<?xml version="1.0" encoding="us-ascii" standalone="no"?><svg xmlns="http://www.w3.org/2000/svg" xmlns:xlink="http://www.w3.org/1999/xlink" contentStyleType="text/css" height="1991px" preserveAspectRatio="none" style="width:2851px;height:1991px;background:#FFFFFF;" version="1.1" viewBox="0 0 2851 1991" width="2851px" zoomAndPan="magnify"><defs/><g><!--cluster logica--><g id="cluster_logica"><path d="M1462.5,283.0137 L1505.5,283.0137 A3.75,3.75 0 0 1 1508,285.5137 L1515,307.6348 L2710.5,307.6348 A2.5,2.5 0 0 1 2713,310.1348 L2713,1981.5137 A2.5,2.5 0 0 1 2710.5,1984.0137 L1462.5,1984.0137 A2.5,2.5 0 0 1 1460,1981.5137 L1460,285.5137 A2.5,2.5 0 0 1 1462.5,283.0137 " fill="none" style="stroke:#000000;stroke-width:1.5;"/><line style="stroke:#000000;stroke-width:1.5;" x1="1460" x2="1515" y1="307.6348" y2="307.6348"/><text fill="#000000" font-family="sans-serif" font-size="14" font-weight="bold" lengthAdjust="spacing" textLength="42" x="1464" y="300.1211">logica</text></g><!--cluster presentacion--><g id="cluster_presentacion"><path d="M8.5,6.0137 L102.5,6.0137 A3.75,3.75 0 0 1 105,8.5137 L112,30.6348 L1417.5,30.6348 A2.5,2.5 0 0 1 1420,33.1348 L1420,509.5137 A2.5,2.5 0 0 1 1417.5,512.0137 L8.5,512.0137 A2.5,2.5 0 0 1 6,509.5137 L6,8.5137 A2.5,2.5 0 0 1 8.5,6.0137 " fill="none" style="stroke:#000000;stroke-width:1.5;"/><line style="stroke:#000000;stroke-width:1.5;" x1="6" x2="112" y1="30.6348" y2="30.6348"/><text fill="#000000" font-family="sans-serif" font-size="14" font-weight="bold" lengthAdjust="spacing" textLength="93" x="10" y="23.1211">presentacion</text></g><!--class Personaje--><g id="elem_Personaje"><rect codeLine="3" fill="#F1F1F1" height="252.832" id="Personaje" rx="2.5" ry="2.5" style="stroke:#181818;stroke-width:0.5;" width="530" x="1492" y="1487.5137"/><ellipse cx="1720.75" cy="1503.5137" fill="#A9DCDF" rx="11" ry="11" style="stroke:#181818;stroke-width:1.0;"/><path d="M1722.9375,1505.2793 L1718.7969,1505.2793 L1718.375,1506.3105 L1718.7969,1506.3105 Q1719.4063,1506.3105 1719.6719,1506.5449 Q1719.9375,1506.7793 1719.9375,1507.1699 Q1719.9375,1507.5449 1719.6719,1507.7793 Q1719.4063,1508.0137 1718.7969,1508.0137 L1716.5,1508.0137 Q1715.8906,1508.0137 1715.6406,1507.7793 Q1715.375,1507.5449 1715.375,1507.1543 Q1715.375,1506.7793 1715.6563,1506.5449 Q1715.9219,1506.2949 1716.5469,1506.3105 L1719.2188,1499.6543 L1718.1094,1499.6543 Q1717.5,1499.6543 1717.2344,1499.4199 Q1716.9688,1499.1855 1716.9688,1498.7949 Q1716.9688,1498.4199 1717.2344,1498.1855 Q1717.5,1497.9512 1718.1094,1497.9512 L1721.7813,1497.9512 L1725.1719,1506.3105 Q1725.7656,1506.3105 1725.9531,1506.4512 Q1726.3438,1506.7168 1726.3438,1507.1699 Q1726.3438,1507.5449 1726.0781,1507.7793 Q1725.8281,1508.0137 1725.2188,1508.0137 L1722.9219,1508.0137 Q1722.3125,1508.0137 1722.0469,1507.7793 Q1721.7813,1507.5449 1721.7813,1507.1543 Q1721.7813,1506.7793 1722.0469,1506.5449 Q1722.3125,1506.3105 1722.9219,1506.3105 L1723.3438,1506.3105 L1722.9375,1505.2793 Z M1722.2188,1503.5762 L1720.8594,1500.2012 L1719.4844,1503.5762 L1722.2188,1503.5762 Z " fill="#000000"/><text fill="#000000" font-family="sans-serif" font-size="14" font-style="italic" lengthAdjust="spacing" textLength="64" x="1741.25" y="1509.3105">Personaje</text><line style="stroke:#181818;stroke-width:0.5;" x1="1493" x2="2021" y1="1519.5137" y2="1519.5137"/><polygon fill="none" points="1503,1529.3242,1507,1533.3242,1503,1537.3242,1499,1533.3242" style="stroke:#B38D22;stroke-width:1.0;"/><text fill="#000000" font-family="sans-serif" font-size="14" lengthAdjust="spacing" textLength="87" x="1512" y="1538.6211">posici&#243;nX : int</text><polygon fill="none" points="1503,1547.9453,1507,1551.9453,1503,1555.9453,1499,1551.9453" style="stroke:#B38D22;stroke-width:1.0;"/><text fill="#000000" font-family="sans-serif" font-size="14" lengthAdjust="spacing" textLength="88" x="1512" y="1557.2422">posici&#243;nY : int</text><polygon fill="none" points="1503,1566.5664,1507,1570.5664,1503,1574.5664,1499,1570.5664" style="stroke:#B38D22;stroke-width:1.0;"/><text fill="#000000" font-family="sans-serif" font-size="14" lengthAdjust="spacing" textLength="106" x="1512" y="1575.8633">direcci&#243;n : String</text><polygon fill="none" points="1503,1585.1875,1507,1589.1875,1503,1593.1875,1499,1589.1875" style="stroke:#B38D22;stroke-width:1.0;"/><text fill="#000000" font-family="sans-serif" font-size="14" lengthAdjust="spacing" textLength="152" x="1512" y="1594.4844">direcci&#243;nImagen : String</text><line style="stroke:#181818;stroke-width:0.5;" x1="1493" x2="2021" y1="1601.998" y2="1601.998"/><ellipse cx="1503" cy="1616.8086" fill="#84BE84" rx="3" ry="3" style="stroke:#038048;stroke-width:1.0;"/><text fill="#000000" font-family="sans-serif" font-size="14" lengthAdjust="spacing" textLength="108" x="1512" y="1621.1055">actualizar() : void</text><ellipse cx="1503" cy="1635.4297" fill="#84BE84" rx="3" ry="3" style="stroke:#038048;stroke-width:1.0;"/><text fill="#000000" font-family="sans-serif" font-size="14" lengthAdjust="spacing" textLength="69" x="1512" y="1639.7266">run() : void</text><ellipse cx="1503" cy="1654.0508" fill="#84BE84" rx="3" ry="3" style="stroke:#038048;stroke-width:1.0;"/><text fill="#000000" font-family="sans-serif" font-size="14" lengthAdjust="spacing" textLength="182" x="1512" y="1658.3477">estaColisionando() : boolean</text><ellipse cx="1503" cy="1672.6719" fill="#84BE84" rx="3" ry="3" style="stroke:#038048;stroke-width:1.0;"/><text fill="#000000" font-family="sans-serif" font-size="14" lengthAdjust="spacing" textLength="314" x="1512" y="1676.9688">sePuedeMover(direcci&#243;nNueva : String) : boolean</text><ellipse cx="1503" cy="1691.293" fill="#84BE84" rx="3" ry="3" style="stroke:#038048;stroke-width:1.0;"/><text fill="#000000" font-family="sans-serif" font-size="14" lengthAdjust="spacing" textLength="504" x="1512" y="1695.5898">direcci&#243;nEsContraria(direcci&#243;nActual : String, direcci&#243;nNueva : String) : boolean</text><ellipse cx="1503" cy="1709.9141" fill="#84BE84" rx="3" ry="3" style="stroke:#038048;stroke-width:1.0;"/><text fill="#000000" font-family="sans-serif" font-size="14" lengthAdjust="spacing" textLength="303" x="1512" y="1714.2109">moverse(direcci&#243;n : String, velocidad : int) : void</text><ellipse cx="1503" cy="1728.5352" fill="#84BE84" rx="3" ry="3" style="stroke:#038048;stroke-width:1.0;"/><text fill="#000000" font-family="sans-serif" font-size="14" lengthAdjust="spacing" textLength="155" x="1512" y="1732.832">estaAlineado() : boolean</text></g><!--class Fantasma--><g id="elem_Fantasma"><rect codeLine="16" fill="#F1F1F1" height="215.5898" id="Fantasma" rx="2.5" ry="2.5" style="stroke:#181818;stroke-width:0.5;" width="403" x="1740.5" y="861.0137"/><ellipse cx="1906.25" cy="877.0137" fill="#A9DCDF" rx="11" ry="11" style="stroke:#181818;stroke-width:1.0;"/><path d="M1908.4375,878.7793 L1904.2969,878.7793 L1903.875,879.8105 L1904.2969,879.8105 Q1904.9063,879.8105 1905.1719,880.0449 Q1905.4375,880.2793 1905.4375,880.6699 Q1905.4375,881.0449 1905.1719,881.2793 Q1904.9063,881.5137 1904.2969,881.5137 L1902,881.5137 Q1901.3906,881.5137 1901.1406,881.2793 Q1900.875,881.0449 1900.875,880.6543 Q1900.875,880.2793 1901.1563,880.0449 Q1901.4219,879.7949 1902.0469,879.8105 L1904.7188,873.1543 L1903.6094,873.1543 Q1903,873.1543 1902.7344,872.9199 Q1902.4688,872.6855 1902.4688,872.2949 Q1902.4688,871.9199 1902.7344,871.6855 Q1903,871.4512 1903.6094,871.4512 L1907.2813,871.4512 L1910.6719,879.8105 Q1911.2656,879.8105 1911.4531,879.9512 Q1911.8438,880.2168 1911.8438,880.6699 Q1911.8438,881.0449 1911.5781,881.2793 Q1911.3281,881.5137 1910.7188,881.5137 L1908.4219,881.5137 Q1907.8125,881.5137 1907.5469,881.2793 Q1907.2813,881.0449 1907.2813,880.6543 Q1907.2813,880.2793 1907.5469,880.0449 Q1907.8125,879.8105 1908.4219,879.8105 L1908.8438,879.8105 L1908.4375,878.7793 Z M1907.7188,877.0762 L1906.3594,873.7012 L1904.9844,877.0762 L1907.7188,877.0762 Z " fill="#000000"/><text fill="#000000" font-family="sans-serif" font-size="14" font-style="italic" lengthAdjust="spacing" textLength="63" x="1926.75" y="882.8105">Fantasma</text><line style="stroke:#181818;stroke-width:0.5;" x1="1741.5" x2="2142.5" y1="893.0137" y2="893.0137"/><polygon fill="none" points="1751.5,902.8242,1755.5,906.8242,1751.5,910.8242,1747.5,906.8242" style="stroke:#B38D22;stroke-width:1.0;"/><text fill="#000000" font-family="sans-serif" font-size="14" lengthAdjust="spacing" textLength="156" x="1760.5" y="912.1211">direcci&#243;nAnterior : String</text><polygon fill="none" points="1751.5,921.4453,1755.5,925.4453,1751.5,929.4453,1747.5,925.4453" style="stroke:#B38D22;stroke-width:1.0;"/><text fill="#000000" font-family="sans-serif" font-size="14" lengthAdjust="spacing" textLength="154" x="1760.5" y="930.7422">VELOCIDAD_HUIDA : int</text><line style="stroke:#181818;stroke-width:0.5;" x1="1741.5" x2="2142.5" y1="938.2559" y2="938.2559"/><ellipse cx="1751.5" cy="953.0664" fill="#84BE84" rx="3" ry="3" style="stroke:#038048;stroke-width:1.0;"/><text fill="#000000" font-family="sans-serif" font-size="14" lengthAdjust="spacing" textLength="108" x="1760.5" y="957.3633">perseguir() : void</text><ellipse cx="1751.5" cy="971.6875" fill="#84BE84" rx="3" ry="3" style="stroke:#038048;stroke-width:1.0;"/><text fill="#000000" font-family="sans-serif" font-size="14" lengthAdjust="spacing" textLength="72" x="1760.5" y="975.9844">huir() : void</text><ellipse cx="1751.5" cy="990.3086" fill="#84BE84" rx="3" ry="3" style="stroke:#038048;stroke-width:1.0;"/><text fill="#000000" font-family="sans-serif" font-size="14" lengthAdjust="spacing" textLength="377" x="1760.5" y="994.6055">obtenerMejorDireccion(columna : String, fila : String) : Tecla</text><ellipse cx="1751.5" cy="1008.9297" fill="#84BE84" rx="3" ry="3" style="stroke:#038048;stroke-width:1.0;"/><text fill="#000000" font-family="sans-serif" font-size="14" lengthAdjust="spacing" textLength="372" x="1760.5" y="1013.2266">obtenerDirecci&#243;nRandom(direcci&#243;nAnterior : Tecla) : Tecla</text><rect fill="#F24D5C" height="6" style="stroke:#C82930;stroke-width:1.0;" width="6" x="1748.5" y="1024.5508"/><text fill="#000000" font-family="sans-serif" font-size="14" lengthAdjust="spacing" textLength="236" x="1760.5" y="1031.8477">obtenerMejorDireccionHuida() : Tecla</text><polygon fill="#FFFF44" points="1751.5,1041.1719,1755.5,1045.1719,1751.5,1049.1719,1747.5,1045.1719" style="stroke:#B38D22;stroke-width:1.0;"/><text fill="#000000" font-family="sans-serif" font-size="14" lengthAdjust="spacing" textLength="259" x="1760.5" y="1050.4688">estaColisionandoConJugador() : boolean</text><ellipse cx="1751.5" cy="1064.793" fill="#84BE84" rx="3" ry="3" style="stroke:#038048;stroke-width:1.0;"/><text fill="#000000" font-family="sans-serif" font-size="14" font-style="italic" lengthAdjust="spacing" textLength="190" x="1760.5" y="1069.0898">moverPorPersonalidad() : void</text></g><!--class Jugador--><g id="elem_Jugador"><rect codeLine="27" fill="#F1F1F1" height="234.2109" id="Jugador" rx="2.5" ry="2.5" style="stroke:#181818;stroke-width:0.5;" width="244" x="2043" y="1156.0137"/><ellipse cx="2135.25" cy="1172.0137" fill="#ADD1B2" rx="11" ry="11" style="stroke:#181818;stroke-width:1.0;"/><path d="M2138.0156,1167.8887 Q2138.1719,1167.6699 2138.3594,1167.5605 Q2138.5469,1167.4512 2138.7656,1167.4512 Q2139.1406,1167.4512 2139.375,1167.7168 Q2139.6094,1167.9668 2139.6094,1168.5762 L2139.6094,1170.0293 Q2139.6094,1170.6387 2139.375,1170.9043 Q2139.1406,1171.1699 2138.7656,1171.1699 Q2138.4219,1171.1699 2138.2188,1170.9668 Q2138.0156,1170.7793 2137.9063,1170.2637 Q2137.8594,1169.9043 2137.6719,1169.7168 Q2137.3438,1169.3418 2136.7344,1169.123 Q2136.125,1168.9043 2135.5,1168.9043 Q2134.7344,1168.9043 2134.0938,1169.2324 Q2133.4688,1169.5605 2132.9688,1170.3105 Q2132.4844,1171.0605 2132.4844,1172.0918 L2132.4844,1173.1855 Q2132.4844,1174.4199 2133.375,1175.248 Q2134.2656,1176.0605 2135.8594,1176.0605 Q2136.7969,1176.0605 2137.4531,1175.8105 Q2137.8438,1175.6543 2138.2656,1175.2168 Q2138.5313,1174.9512 2138.6719,1174.873 Q2138.8281,1174.7949 2139.0313,1174.7949 Q2139.3594,1174.7949 2139.6094,1175.0605 Q2139.875,1175.3105 2139.875,1175.6543 Q2139.875,1175.998 2139.5313,1176.4043 Q2139.0313,1176.9824 2138.2344,1177.3105 Q2137.1563,1177.7637 2135.8594,1177.7637 Q2134.3438,1177.7637 2133.1406,1177.1387 Q2132.1563,1176.6387 2131.4688,1175.5762 Q2130.7813,1174.498 2130.7813,1173.2168 L2130.7813,1172.0605 Q2130.7813,1170.7324 2131.3906,1169.5918 Q2132.0156,1168.4355 2133.1094,1167.8262 Q2134.2031,1167.2012 2135.4375,1167.2012 Q2136.1719,1167.2012 2136.8125,1167.373 Q2137.4688,1167.5293 2138.0156,1167.8887 Z " fill="#000000"/><text fill="#000000" font-family="sans-serif" font-size="14" lengthAdjust="spacing" textLength="51" x="2155.75" y="1177.8105">Jugador</text><line style="stroke:#181818;stroke-width:0.5;" x1="2044" x2="2286" y1="1188.0137" y2="1188.0137"/><rect fill="none" height="6" style="stroke:#C82930;stroke-width:1.0;" width="6" x="2051" y="1199.8242"/><text fill="#000000" font-family="sans-serif" font-size="14" lengthAdjust="spacing" textLength="145" x="2063" y="1207.1211">&#250;ltimaDirecci&#243;n : String</text><rect fill="none" height="6" style="stroke:#C82930;stroke-width:1.0;" width="6" x="2051" y="1218.4453"/><text fill="#000000" font-family="sans-serif" font-size="14" lengthAdjust="spacing" textLength="74" x="2063" y="1225.7422">puntaje : int</text><rect fill="none" height="6" style="stroke:#C82930;stroke-width:1.0;" width="6" x="2051" y="1237.0664"/><text fill="#000000" font-family="sans-serif" font-size="14" lengthAdjust="spacing" textLength="136" x="2063" y="1244.3633">powerPellet : boolean</text><rect fill="none" height="6" style="stroke:#C82930;stroke-width:1.0;" width="6" x="2051" y="1255.6875"/><text fill="#000000" font-family="sans-serif" font-size="14" lengthAdjust="spacing" textLength="218" x="2063" y="1262.9844">DURACI&#211;N_POWER_PELLET : int</text><line style="stroke:#181818;stroke-width:0.5;" x1="2044" x2="2286" y1="1270.498" y2="1270.498"/><rect fill="#F24D5C" height="6" style="stroke:#C82930;stroke-width:1.0;" width="6" x="2051" y="1282.3086"/><text fill="#000000" font-family="sans-serif" font-size="14" lengthAdjust="spacing" textLength="123" x="2063" y="1289.6055">obtenerItem() : void</text><rect fill="#F24D5C" height="6" style="stroke:#C82930;stroke-width:1.0;" width="6" x="2051" y="1300.9297"/><text fill="#000000" font-family="sans-serif" font-size="14" lengthAdjust="spacing" textLength="179" x="2063" y="1308.2266">obtenerMovimiento() : String</text><rect fill="#F24D5C" height="6" style="stroke:#C82930;stroke-width:1.0;" width="6" x="2051" y="1319.5508"/><text fill="#000000" font-family="sans-serif" font-size="14" lengthAdjust="spacing" textLength="205" x="2063" y="1326.8477">actualizar&#218;ltimaDirecci&#243;n() : void</text><ellipse cx="2054" cy="1341.1719" fill="#84BE84" rx="3" ry="3" style="stroke:#038048;stroke-width:1.0;"/><text fill="#000000" font-family="sans-serif" font-size="14" lengthAdjust="spacing" textLength="178" x="2063" y="1345.4688">tienePowerPellet() : boolean</text><ellipse cx="2054" cy="1359.793" fill="#84BE84" rx="3" ry="3" style="stroke:#038048;stroke-width:1.0;"/><text fill="#000000" font-family="sans-serif" font-size="14" lengthAdjust="spacing" textLength="114" x="2063" y="1364.0898">reaparecer(): void</text><ellipse cx="2054" cy="1378.4141" fill="#84BE84" rx="3" ry="3" style="stroke:#038048;stroke-width:1.0;"/><text fill="#000000" font-family="sans-serif" font-size="14" lengthAdjust="spacing" textLength="164" x="2063" y="1382.7109">activarPowerPellet() : void</text></g><!--class ArchivoManager--><g id="elem_ArchivoManager"><rect codeLine="39" fill="#F1F1F1" height="290.0742" id="ArchivoManager" rx="2.5" ry="2.5" style="stroke:#181818;stroke-width:0.5;" width="344" x="2308" y="1469.0137"/><ellipse cx="2424.25" cy="1485.0137" fill="#ADD1B2" rx="11" ry="11" style="stroke:#181818;stroke-width:1.0;"/><path d="M2427.0156,1480.8887 Q2427.1719,1480.6699 2427.3594,1480.5605 Q2427.5469,1480.4512 2427.7656,1480.4512 Q2428.1406,1480.4512 2428.375,1480.7168 Q2428.6094,1480.9668 2428.6094,1481.5762 L2428.6094,1483.0293 Q2428.6094,1483.6387 2428.375,1483.9043 Q2428.1406,1484.1699 2427.7656,1484.1699 Q2427.4219,1484.1699 2427.2188,1483.9668 Q2427.0156,1483.7793 2426.9063,1483.2637 Q2426.8594,1482.9043 2426.6719,1482.7168 Q2426.3438,1482.3418 2425.7344,1482.123 Q2425.125,1481.9043 2424.5,1481.9043 Q2423.7344,1481.9043 2423.0938,1482.2324 Q2422.4688,1482.5605 2421.9688,1483.3105 Q2421.4844,1484.0605 2421.4844,1485.0918 L2421.4844,1486.1855 Q2421.4844,1487.4199 2422.375,1488.248 Q2423.2656,1489.0605 2424.8594,1489.0605 Q2425.7969,1489.0605 2426.4531,1488.8105 Q2426.8438,1488.6543 2427.2656,1488.2168 Q2427.5313,1487.9512 2427.6719,1487.873 Q2427.8281,1487.7949 2428.0313,1487.7949 Q2428.3594,1487.7949 2428.6094,1488.0605 Q2428.875,1488.3105 2428.875,1488.6543 Q2428.875,1488.998 2428.5313,1489.4043 Q2428.0313,1489.9824 2427.2344,1490.3105 Q2426.1563,1490.7637 2424.8594,1490.7637 Q2423.3438,1490.7637 2422.1406,1490.1387 Q2421.1563,1489.6387 2420.4688,1488.5762 Q2419.7813,1487.498 2419.7813,1486.2168 L2419.7813,1485.0605 Q2419.7813,1483.7324 2420.3906,1482.5918 Q2421.0156,1481.4355 2422.1094,1480.8262 Q2423.2031,1480.2012 2424.4375,1480.2012 Q2425.1719,1480.2012 2425.8125,1480.373 Q2426.4688,1480.5293 2427.0156,1480.8887 Z " fill="#000000"/><text fill="#000000" font-family="sans-serif" font-size="14" lengthAdjust="spacing" textLength="103" x="2444.75" y="1490.8105">ArchivoManager</text><line style="stroke:#181818;stroke-width:0.5;" x1="2309" x2="2651" y1="1501.0137" y2="1501.0137"/><rect fill="none" height="6" style="stroke:#C82930;stroke-width:1.0;" width="6" x="2316" y="1512.8242"/><text fill="#000000" font-family="sans-serif" font-size="14" lengthAdjust="spacing" textLength="81" x="2328" y="1520.1211">archivo : File</text><rect fill="none" height="6" style="stroke:#C82930;stroke-width:1.0;" width="6" x="2316" y="1531.4453"/><text fill="#000000" font-family="sans-serif" font-size="14" lengthAdjust="spacing" textLength="220" x="2328" y="1538.7422">datosDelArchivo: ArrayList&lt;String&gt;</text><rect fill="none" height="6" style="stroke:#C82930;stroke-width:1.0;" width="6" x="2316" y="1550.0664"/><text fill="#000000" font-family="sans-serif" font-size="14" lengthAdjust="spacing" textLength="180" x="2328" y="1557.3633">puntuaciones: ArrayList&lt;int&gt;</text><rect fill="none" height="6" style="stroke:#C82930;stroke-width:1.0;" width="6" x="2316" y="1568.6875"/><text fill="#000000" font-family="sans-serif" font-size="14" lengthAdjust="spacing" textLength="163" x="2328" y="1575.9844">escritorArchivo: FileWriter</text><line style="stroke:#181818;stroke-width:0.5;" x1="2309" x2="2651" y1="1583.498" y2="1583.498"/><ellipse cx="2319" cy="1598.3086" fill="#84BE84" rx="3" ry="3" style="stroke:#038048;stroke-width:1.0;"/><text fill="#000000" font-family="sans-serif" font-size="14" lengthAdjust="spacing" textLength="318" x="2328" y="1602.6055">guardarNombre(nombre: String, puntaje: int) : void</text><ellipse cx="2319" cy="1616.9297" fill="#84BE84" rx="3" ry="3" style="stroke:#038048;stroke-width:1.0;"/><text fill="#000000" font-family="sans-serif" font-size="14" lengthAdjust="spacing" textLength="235" x="2328" y="1621.2266">guardarPuntacion(puntaje : int) : void</text><ellipse cx="2319" cy="1635.5508" fill="#84BE84" rx="3" ry="3" style="stroke:#038048;stroke-width:1.0;"/><text fill="#000000" font-family="sans-serif" font-size="14" lengthAdjust="spacing" textLength="197" x="2328" y="1639.8477">escribirPuntaje(limite: int) : void</text><ellipse cx="2319" cy="1654.1719" fill="#84BE84" rx="3" ry="3" style="stroke:#038048;stroke-width:1.0;"/><text fill="#000000" font-family="sans-serif" font-size="14" lengthAdjust="spacing" textLength="198" x="2328" y="1658.4688">leerArchivo(): ArrayList&lt;String&gt;</text><ellipse cx="2319" cy="1672.793" fill="#84BE84" rx="3" ry="3" style="stroke:#038048;stroke-width:1.0;"/><text fill="#000000" font-family="sans-serif" font-size="14" lengthAdjust="spacing" textLength="147" x="2328" y="1677.0898">obtenerHighScore(): int</text><ellipse cx="2319" cy="1691.4141" fill="#84BE84" rx="3" ry="3" style="stroke:#038048;stroke-width:1.0;"/><text fill="#000000" font-family="sans-serif" font-size="14" lengthAdjust="spacing" textLength="312" x="2328" y="1695.7109">ordenarArchivo(nombre: String, puntaje: int): void</text><ellipse cx="2319" cy="1710.0352" fill="#84BE84" rx="3" ry="3" style="stroke:#038048;stroke-width:1.0;"/><text fill="#000000" font-family="sans-serif" font-size="14" lengthAdjust="spacing" textLength="131" x="2328" y="1714.332">ordenarDatos(): void</text><ellipse cx="2319" cy="1728.6563" fill="#84BE84" rx="3" ry="3" style="stroke:#038048;stroke-width:1.0;"/><text fill="#000000" font-family="sans-serif" font-size="14" lengthAdjust="spacing" textLength="191" x="2328" y="1732.9531">guardarNivel(nivel: Nivel): void</text><ellipse cx="2319" cy="1747.2773" fill="#84BE84" rx="3" ry="3" style="stroke:#038048;stroke-width:1.0;"/><text fill="#000000" font-family="sans-serif" font-size="14" lengthAdjust="spacing" textLength="119" x="2328" y="1751.5742">cargarNivel(): Nivel</text></g><!--class Pinky--><g id="elem_Pinky"><rect codeLine="54" fill="#F1F1F1" height="48" id="Pinky" rx="2.5" ry="2.5" style="stroke:#181818;stroke-width:0.5;" width="66" x="1812" y="659.5137"/><ellipse cx="1827" cy="675.5137" fill="#ADD1B2" rx="11" ry="11" style="stroke:#181818;stroke-width:1.0;"/><path d="M1829.7656,671.3887 Q1829.9219,671.1699 1830.1094,671.0605 Q1830.2969,670.9512 1830.5156,670.9512 Q1830.8906,670.9512 1831.125,671.2168 Q1831.3594,671.4668 1831.3594,672.0762 L1831.3594,673.5293 Q1831.3594,674.1387 1831.125,674.4043 Q1830.8906,674.6699 1830.5156,674.6699 Q1830.1719,674.6699 1829.9688,674.4668 Q1829.7656,674.2793 1829.6563,673.7637 Q1829.6094,673.4043 1829.4219,673.2168 Q1829.0938,672.8418 1828.4844,672.623 Q1827.875,672.4043 1827.25,672.4043 Q1826.4844,672.4043 1825.8438,672.7324 Q1825.2188,673.0605 1824.7188,673.8105 Q1824.2344,674.5605 1824.2344,675.5918 L1824.2344,676.6855 Q1824.2344,677.9199 1825.125,678.748 Q1826.0156,679.5605 1827.6094,679.5605 Q1828.5469,679.5605 1829.2031,679.3105 Q1829.5938,679.1543 1830.0156,678.7168 Q1830.2813,678.4512 1830.4219,678.373 Q1830.5781,678.2949 1830.7813,678.2949 Q1831.1094,678.2949 1831.3594,678.5605 Q1831.625,678.8105 1831.625,679.1543 Q1831.625,679.498 1831.2813,679.9043 Q1830.7813,680.4824 1829.9844,680.8105 Q1828.9063,681.2637 1827.6094,681.2637 Q1826.0938,681.2637 1824.8906,680.6387 Q1823.9063,680.1387 1823.2188,679.0762 Q1822.5313,677.998 1822.5313,676.7168 L1822.5313,675.5605 Q1822.5313,674.2324 1823.1406,673.0918 Q1823.7656,671.9355 1824.8594,671.3262 Q1825.9531,670.7012 1827.1875,670.7012 Q1827.9219,670.7012 1828.5625,670.873 Q1829.2188,671.0293 1829.7656,671.3887 Z " fill="#000000"/><text fill="#000000" font-family="sans-serif" font-size="14" lengthAdjust="spacing" textLength="34" x="1841" y="681.3105">Pinky</text><line style="stroke:#181818;stroke-width:0.5;" x1="1813" x2="1877" y1="691.5137" y2="691.5137"/><line style="stroke:#181818;stroke-width:0.5;" x1="1813" x2="1877" y1="699.5137" y2="699.5137"/></g><!--class Blinky--><g id="elem_Blinky"><rect codeLine="56" fill="#F1F1F1" height="48" id="Blinky" rx="2.5" ry="2.5" style="stroke:#181818;stroke-width:0.5;" width="69" x="1707.5" y="659.5137"/><ellipse cx="1722.5" cy="675.5137" fill="#ADD1B2" rx="11" ry="11" style="stroke:#181818;stroke-width:1.0;"/><path d="M1725.2656,671.3887 Q1725.4219,671.1699 1725.6094,671.0605 Q1725.7969,670.9512 1726.0156,670.9512 Q1726.3906,670.9512 1726.625,671.2168 Q1726.8594,671.4668 1726.8594,672.0762 L1726.8594,673.5293 Q1726.8594,674.1387 1726.625,674.4043 Q1726.3906,674.6699 1726.0156,674.6699 Q1725.6719,674.6699 1725.4688,674.4668 Q1725.2656,674.2793 1725.1563,673.7637 Q1725.1094,673.4043 1724.9219,673.2168 Q1724.5938,672.8418 1723.9844,672.623 Q1723.375,672.4043 1722.75,672.4043 Q1721.9844,672.4043 1721.3438,672.7324 Q1720.7188,673.0605 1720.2188,673.8105 Q1719.7344,674.5605 1719.7344,675.5918 L1719.7344,676.6855 Q1719.7344,677.9199 1720.625,678.748 Q1721.5156,679.5605 1723.1094,679.5605 Q1724.0469,679.5605 1724.7031,679.3105 Q1725.0938,679.1543 1725.5156,678.7168 Q1725.7813,678.4512 1725.9219,678.373 Q1726.0781,678.2949 1726.2813,678.2949 Q1726.6094,678.2949 1726.8594,678.5605 Q1727.125,678.8105 1727.125,679.1543 Q1727.125,679.498 1726.7813,679.9043 Q1726.2813,680.4824 1725.4844,680.8105 Q1724.4063,681.2637 1723.1094,681.2637 Q1721.5938,681.2637 1720.3906,680.6387 Q1719.4063,680.1387 1718.7188,679.0762 Q1718.0313,677.998 1718.0313,676.7168 L1718.0313,675.5605 Q1718.0313,674.2324 1718.6406,673.0918 Q1719.2656,671.9355 1720.3594,671.3262 Q1721.4531,670.7012 1722.6875,670.7012 Q1723.4219,670.7012 1724.0625,670.873 Q1724.7188,671.0293 1725.2656,671.3887 Z " fill="#000000"/><text fill="#000000" font-family="sans-serif" font-size="14" lengthAdjust="spacing" textLength="37" x="1736.5" y="681.3105">Blinky</text><line style="stroke:#181818;stroke-width:0.5;" x1="1708.5" x2="1775.5" y1="691.5137" y2="691.5137"/><line style="stroke:#181818;stroke-width:0.5;" x1="1708.5" x2="1775.5" y1="699.5137" y2="699.5137"/></g><!--class Clyde--><g id="elem_Clyde"><rect codeLine="58" fill="#F1F1F1" height="48" id="Clyde" rx="2.5" ry="2.5" style="stroke:#181818;stroke-width:0.5;" width="68" x="2006" y="659.5137"/><ellipse cx="2021" cy="675.5137" fill="#ADD1B2" rx="11" ry="11" style="stroke:#181818;stroke-width:1.0;"/><path d="M2023.7656,671.3887 Q2023.9219,671.1699 2024.1094,671.0605 Q2024.2969,670.9512 2024.5156,670.9512 Q2024.8906,670.9512 2025.125,671.2168 Q2025.3594,671.4668 2025.3594,672.0762 L2025.3594,673.5293 Q2025.3594,674.1387 2025.125,674.4043 Q2024.8906,674.6699 2024.5156,674.6699 Q2024.1719,674.6699 2023.9688,674.4668 Q2023.7656,674.2793 2023.6563,673.7637 Q2023.6094,673.4043 2023.4219,673.2168 Q2023.0938,672.8418 2022.4844,672.623 Q2021.875,672.4043 2021.25,672.4043 Q2020.4844,672.4043 2019.8438,672.7324 Q2019.2188,673.0605 2018.7188,673.8105 Q2018.2344,674.5605 2018.2344,675.5918 L2018.2344,676.6855 Q2018.2344,677.9199 2019.125,678.748 Q2020.0156,679.5605 2021.6094,679.5605 Q2022.5469,679.5605 2023.2031,679.3105 Q2023.5938,679.1543 2024.0156,678.7168 Q2024.2813,678.4512 2024.4219,678.373 Q2024.5781,678.2949 2024.7813,678.2949 Q2025.1094,678.2949 2025.3594,678.5605 Q2025.625,678.8105 2025.625,679.1543 Q2025.625,679.498 2025.2813,679.9043 Q2024.7813,680.4824 2023.9844,680.8105 Q2022.9063,681.2637 2021.6094,681.2637 Q2020.0938,681.2637 2018.8906,680.6387 Q2017.9063,680.1387 2017.2188,679.0762 Q2016.5313,677.998 2016.5313,676.7168 L2016.5313,675.5605 Q2016.5313,674.2324 2017.1406,673.0918 Q2017.7656,671.9355 2018.8594,671.3262 Q2019.9531,670.7012 2021.1875,670.7012 Q2021.9219,670.7012 2022.5625,670.873 Q2023.2188,671.0293 2023.7656,671.3887 Z " fill="#000000"/><text fill="#000000" font-family="sans-serif" font-size="14" lengthAdjust="spacing" textLength="36" x="2035" y="681.3105">Clyde</text><line style="stroke:#181818;stroke-width:0.5;" x1="2007" x2="2073" y1="691.5137" y2="691.5137"/><line style="stroke:#181818;stroke-width:0.5;" x1="2007" x2="2073" y1="699.5137" y2="699.5137"/></g><!--class Inky--><g id="elem_Inky"><rect codeLine="60" fill="#F1F1F1" height="48" id="Inky" rx="2.5" ry="2.5" style="stroke:#181818;stroke-width:0.5;" width="57" x="1913.5" y="659.5137"/><ellipse cx="1928.5" cy="675.5137" fill="#ADD1B2" rx="11" ry="11" style="stroke:#181818;stroke-width:1.0;"/><path d="M1931.2656,671.3887 Q1931.4219,671.1699 1931.6094,671.0605 Q1931.7969,670.9512 1932.0156,670.9512 Q1932.3906,670.9512 1932.625,671.2168 Q1932.8594,671.4668 1932.8594,672.0762 L1932.8594,673.5293 Q1932.8594,674.1387 1932.625,674.4043 Q1932.3906,674.6699 1932.0156,674.6699 Q1931.6719,674.6699 1931.4688,674.4668 Q1931.2656,674.2793 1931.1563,673.7637 Q1931.1094,673.4043 1930.9219,673.2168 Q1930.5938,672.8418 1929.9844,672.623 Q1929.375,672.4043 1928.75,672.4043 Q1927.9844,672.4043 1927.3438,672.7324 Q1926.7188,673.0605 1926.2188,673.8105 Q1925.7344,674.5605 1925.7344,675.5918 L1925.7344,676.6855 Q1925.7344,677.9199 1926.625,678.748 Q1927.5156,679.5605 1929.1094,679.5605 Q1930.0469,679.5605 1930.7031,679.3105 Q1931.0938,679.1543 1931.5156,678.7168 Q1931.7813,678.4512 1931.9219,678.373 Q1932.0781,678.2949 1932.2813,678.2949 Q1932.6094,678.2949 1932.8594,678.5605 Q1933.125,678.8105 1933.125,679.1543 Q1933.125,679.498 1932.7813,679.9043 Q1932.2813,680.4824 1931.4844,680.8105 Q1930.4063,681.2637 1929.1094,681.2637 Q1927.5938,681.2637 1926.3906,680.6387 Q1925.4063,680.1387 1924.7188,679.0762 Q1924.0313,677.998 1924.0313,676.7168 L1924.0313,675.5605 Q1924.0313,674.2324 1924.6406,673.0918 Q1925.2656,671.9355 1926.3594,671.3262 Q1927.4531,670.7012 1928.6875,670.7012 Q1929.4219,670.7012 1930.0625,670.873 Q1930.7188,671.0293 1931.2656,671.3887 Z " fill="#000000"/><text fill="#000000" font-family="sans-serif" font-size="14" lengthAdjust="spacing" textLength="25" x="1942.5" y="681.3105">Inky</text><line style="stroke:#181818;stroke-width:0.5;" x1="1914.5" x2="1969.5" y1="691.5137" y2="691.5137"/><line style="stroke:#181818;stroke-width:0.5;" x1="1914.5" x2="1969.5" y1="699.5137" y2="699.5137"/></g><!--class Laberinto--><g id="elem_Laberinto"><rect codeLine="62" fill="#F1F1F1" height="122.4844" id="Laberinto" rx="2.5" ry="2.5" style="stroke:#181818;stroke-width:0.5;" width="296" x="2212" y="1838.0137"/><ellipse cx="2325.75" cy="1854.0137" fill="#ADD1B2" rx="11" ry="11" style="stroke:#181818;stroke-width:1.0;"/><path d="M2328.5156,1849.8887 Q2328.6719,1849.6699 2328.8594,1849.5605 Q2329.0469,1849.4512 2329.2656,1849.4512 Q2329.6406,1849.4512 2329.875,1849.7168 Q2330.1094,1849.9668 2330.1094,1850.5762 L2330.1094,1852.0293 Q2330.1094,1852.6387 2329.875,1852.9043 Q2329.6406,1853.1699 2329.2656,1853.1699 Q2328.9219,1853.1699 2328.7188,1852.9668 Q2328.5156,1852.7793 2328.4063,1852.2637 Q2328.3594,1851.9043 2328.1719,1851.7168 Q2327.8438,1851.3418 2327.2344,1851.123 Q2326.625,1850.9043 2326,1850.9043 Q2325.2344,1850.9043 2324.5938,1851.2324 Q2323.9688,1851.5605 2323.4688,1852.3105 Q2322.9844,1853.0605 2322.9844,1854.0918 L2322.9844,1855.1855 Q2322.9844,1856.4199 2323.875,1857.248 Q2324.7656,1858.0605 2326.3594,1858.0605 Q2327.2969,1858.0605 2327.9531,1857.8105 Q2328.3438,1857.6543 2328.7656,1857.2168 Q2329.0313,1856.9512 2329.1719,1856.873 Q2329.3281,1856.7949 2329.5313,1856.7949 Q2329.8594,1856.7949 2330.1094,1857.0605 Q2330.375,1857.3105 2330.375,1857.6543 Q2330.375,1857.998 2330.0313,1858.4043 Q2329.5313,1858.9824 2328.7344,1859.3105 Q2327.6563,1859.7637 2326.3594,1859.7637 Q2324.8438,1859.7637 2323.6406,1859.1387 Q2322.6563,1858.6387 2321.9688,1857.5762 Q2321.2813,1856.498 2321.2813,1855.2168 L2321.2813,1854.0605 Q2321.2813,1852.7324 2321.8906,1851.5918 Q2322.5156,1850.4355 2323.6094,1849.8262 Q2324.7031,1849.2012 2325.9375,1849.2012 Q2326.6719,1849.2012 2327.3125,1849.373 Q2327.9688,1849.5293 2328.5156,1849.8887 Z " fill="#000000"/><text fill="#000000" font-family="sans-serif" font-size="14" lengthAdjust="spacing" textLength="60" x="2346.25" y="1859.8105">Laberinto</text><line style="stroke:#181818;stroke-width:0.5;" x1="2213" x2="2507" y1="1870.0137" y2="1870.0137"/><rect fill="none" height="6" style="stroke:#C82930;stroke-width:1.0;" width="6" x="2220" y="1881.8242"/><text fill="#000000" font-family="sans-serif" font-size="14" lengthAdjust="spacing" textLength="78" x="2232" y="1889.1211">mapa : int[][]</text><line style="stroke:#181818;stroke-width:0.5;" x1="2213" x2="2507" y1="1896.6348" y2="1896.6348"/><rect fill="#F24D5C" height="6" style="stroke:#C82930;stroke-width:1.0;" width="6" x="2220" y="1908.4453"/><text fill="#000000" font-family="sans-serif" font-size="14" lengthAdjust="spacing" textLength="237" x="2232" y="1915.7422">cargarmapa(pathName : String) : void</text><ellipse cx="2223" cy="1930.0664" fill="#84BE84" rx="3" ry="3" style="stroke:#038048;stroke-width:1.0;"/><text fill="#000000" font-family="sans-serif" font-size="14" lengthAdjust="spacing" textLength="258" x="2232" y="1934.3633">getValorMapa(fila : int, columna : int) : int</text><ellipse cx="2223" cy="1948.6875" fill="#84BE84" rx="3" ry="3" style="stroke:#038048;stroke-width:1.0;"/><text fill="#000000" font-family="sans-serif" font-size="14" lengthAdjust="spacing" textLength="270" x="2232" y="1952.9844">cambiarValorA0(fila : int, columna : int) : int</text></g><!--class DetectorTeclas--><g id="elem_DetectorTeclas"><rect codeLine="68" fill="#F1F1F1" height="85.2422" id="DetectorTeclas" rx="2.5" ry="2.5" style="stroke:#181818;stroke-width:0.5;" width="216" x="2057" y="1571.5137"/><ellipse cx="2112.75" cy="1587.5137" fill="#ADD1B2" rx="11" ry="11" style="stroke:#181818;stroke-width:1.0;"/><path d="M2115.5156,1583.3887 Q2115.6719,1583.1699 2115.8594,1583.0605 Q2116.0469,1582.9512 2116.2656,1582.9512 Q2116.6406,1582.9512 2116.875,1583.2168 Q2117.1094,1583.4668 2117.1094,1584.0762 L2117.1094,1585.5293 Q2117.1094,1586.1387 2116.875,1586.4043 Q2116.6406,1586.6699 2116.2656,1586.6699 Q2115.9219,1586.6699 2115.7188,1586.4668 Q2115.5156,1586.2793 2115.4063,1585.7637 Q2115.3594,1585.4043 2115.1719,1585.2168 Q2114.8438,1584.8418 2114.2344,1584.623 Q2113.625,1584.4043 2113,1584.4043 Q2112.2344,1584.4043 2111.5938,1584.7324 Q2110.9688,1585.0605 2110.4688,1585.8105 Q2109.9844,1586.5605 2109.9844,1587.5918 L2109.9844,1588.6855 Q2109.9844,1589.9199 2110.875,1590.748 Q2111.7656,1591.5605 2113.3594,1591.5605 Q2114.2969,1591.5605 2114.9531,1591.3105 Q2115.3438,1591.1543 2115.7656,1590.7168 Q2116.0313,1590.4512 2116.1719,1590.373 Q2116.3281,1590.2949 2116.5313,1590.2949 Q2116.8594,1590.2949 2117.1094,1590.5605 Q2117.375,1590.8105 2117.375,1591.1543 Q2117.375,1591.498 2117.0313,1591.9043 Q2116.5313,1592.4824 2115.7344,1592.8105 Q2114.6563,1593.2637 2113.3594,1593.2637 Q2111.8438,1593.2637 2110.6406,1592.6387 Q2109.6563,1592.1387 2108.9688,1591.0762 Q2108.2813,1589.998 2108.2813,1588.7168 L2108.2813,1587.5605 Q2108.2813,1586.2324 2108.8906,1585.0918 Q2109.5156,1583.9355 2110.6094,1583.3262 Q2111.7031,1582.7012 2112.9375,1582.7012 Q2113.6719,1582.7012 2114.3125,1582.873 Q2114.9688,1583.0293 2115.5156,1583.3887 Z " fill="#000000"/><text fill="#000000" font-family="sans-serif" font-size="14" lengthAdjust="spacing" textLength="96" x="2133.25" y="1593.3105">DetectorTeclas</text><line style="stroke:#181818;stroke-width:0.5;" x1="2058" x2="2272" y1="1603.5137" y2="1603.5137"/><ellipse cx="2068" cy="1618.3242" fill="none" rx="3" ry="3" style="stroke:#038048;stroke-width:1.0;"/><text fill="#000000" font-family="sans-serif" font-size="14" lengthAdjust="spacing" textLength="106" x="2077" y="1622.6211">direcci&#243;n : String</text><line style="stroke:#181818;stroke-width:0.5;" x1="2058" x2="2272" y1="1630.1348" y2="1630.1348"/><ellipse cx="2068" cy="1644.9453" fill="#84BE84" rx="3" ry="3" style="stroke:#038048;stroke-width:1.0;"/><text fill="#000000" font-family="sans-serif" font-size="14" lengthAdjust="spacing" textLength="190" x="2077" y="1649.2422">keyTyped(e : KeyEvent) : void</text></g><!--class Nivel--><g id="elem_Nivel"><rect codeLine="72" fill="#F1F1F1" height="196.9688" id="Nivel" rx="2.5" ry="2.5" style="stroke:#181818;stroke-width:0.5;" width="265" x="2109.5" y="585.0137"/><ellipse cx="2222.75" cy="601.0137" fill="#ADD1B2" rx="11" ry="11" style="stroke:#181818;stroke-width:1.0;"/><path d="M2225.5156,596.8887 Q2225.6719,596.6699 2225.8594,596.5605 Q2226.0469,596.4512 2226.2656,596.4512 Q2226.6406,596.4512 2226.875,596.7168 Q2227.1094,596.9668 2227.1094,597.5762 L2227.1094,599.0293 Q2227.1094,599.6387 2226.875,599.9043 Q2226.6406,600.1699 2226.2656,600.1699 Q2225.9219,600.1699 2225.7188,599.9668 Q2225.5156,599.7793 2225.4063,599.2637 Q2225.3594,598.9043 2225.1719,598.7168 Q2224.8438,598.3418 2224.2344,598.123 Q2223.625,597.9043 2223,597.9043 Q2222.2344,597.9043 2221.5938,598.2324 Q2220.9688,598.5605 2220.4688,599.3105 Q2219.9844,600.0605 2219.9844,601.0918 L2219.9844,602.1855 Q2219.9844,603.4199 2220.875,604.248 Q2221.7656,605.0605 2223.3594,605.0605 Q2224.2969,605.0605 2224.9531,604.8105 Q2225.3438,604.6543 2225.7656,604.2168 Q2226.0313,603.9512 2226.1719,603.873 Q2226.3281,603.7949 2226.5313,603.7949 Q2226.8594,603.7949 2227.1094,604.0605 Q2227.375,604.3105 2227.375,604.6543 Q2227.375,604.998 2227.0313,605.4043 Q2226.5313,605.9824 2225.7344,606.3105 Q2224.6563,606.7637 2223.3594,606.7637 Q2221.8438,606.7637 2220.6406,606.1387 Q2219.6563,605.6387 2218.9688,604.5762 Q2218.2813,603.498 2218.2813,602.2168 L2218.2813,601.0605 Q2218.2813,599.7324 2218.8906,598.5918 Q2219.5156,597.4355 2220.6094,596.8262 Q2221.7031,596.2012 2222.9375,596.2012 Q2223.6719,596.2012 2224.3125,596.373 Q2224.9688,596.5293 2225.5156,596.8887 Z " fill="#000000"/><text fill="#000000" font-family="sans-serif" font-size="14" lengthAdjust="spacing" textLength="30" x="2243.25" y="606.8105">Nivel</text><line style="stroke:#181818;stroke-width:0.5;" x1="2110.5" x2="2373.5" y1="617.0137" y2="617.0137"/><rect fill="none" height="6" style="stroke:#C82930;stroke-width:1.0;" width="6" x="2117.5" y="628.8242"/><text fill="#000000" font-family="sans-serif" font-size="14" lengthAdjust="spacing" textLength="122" x="2129.5" y="636.1211">dificultad: Dificultad</text><rect fill="none" height="6" style="stroke:#C82930;stroke-width:1.0;" width="6" x="2117.5" y="647.4453"/><text fill="#000000" font-family="sans-serif" font-size="14" lengthAdjust="spacing" textLength="141" x="2129.5" y="654.7422">direccionMapa : String</text><rect fill="none" height="6" style="stroke:#C82930;stroke-width:1.0;" width="6" x="2117.5" y="666.0664"/><text fill="#000000" font-family="sans-serif" font-size="14" lengthAdjust="spacing" textLength="136" x="2129.5" y="673.3633">completado : boolean</text><rect fill="none" height="6" style="stroke:#C82930;stroke-width:1.0;" width="6" x="2117.5" y="684.6875"/><text fill="#000000" font-family="sans-serif" font-size="14" lengthAdjust="spacing" textLength="129" x="2129.5" y="691.9844">siguienteNivel : Nivel</text><rect fill="none" height="6" style="stroke:#C82930;stroke-width:1.0;" width="6" x="2117.5" y="703.3086"/><text fill="#000000" font-family="sans-serif" font-size="14" lengthAdjust="spacing" textLength="107" x="2129.5" y="710.6055">jugador: Jugador</text><line style="stroke:#181818;stroke-width:0.5;" x1="2110.5" x2="2373.5" y1="718.1191" y2="718.1191"/><ellipse cx="2120.5" cy="732.9297" fill="#84BE84" rx="3" ry="3" style="stroke:#038048;stroke-width:1.0;"/><text fill="#000000" font-family="sans-serif" font-size="14" lengthAdjust="spacing" textLength="239" x="2129.5" y="737.2266">iniciarNivel(controles: DetectorTeclas)</text><ellipse cx="2120.5" cy="751.5508" fill="#84BE84" rx="3" ry="3" style="stroke:#038048;stroke-width:1.0;"/><text fill="#000000" font-family="sans-serif" font-size="14" lengthAdjust="spacing" textLength="93" x="2129.5" y="755.8477">detener(): void</text><ellipse cx="2120.5" cy="770.1719" fill="#84BE84" rx="3" ry="3" style="stroke:#038048;stroke-width:1.0;"/><text fill="#000000" font-family="sans-serif" font-size="14" lengthAdjust="spacing" textLength="100" x="2129.5" y="774.4688">terminar() : void</text></g><!--class PacMan--><g id="elem_PacMan"><rect codeLine="82" fill="#F1F1F1" height="103.8633" id="PacMan" rx="2.5" ry="2.5" style="stroke:#181818;stroke-width:0.5;" width="165" x="2159.5" y="328.0137"/><ellipse cx="2212.25" cy="344.0137" fill="#ADD1B2" rx="11" ry="11" style="stroke:#181818;stroke-width:1.0;"/><path d="M2215.0156,339.8887 Q2215.1719,339.6699 2215.3594,339.5605 Q2215.5469,339.4512 2215.7656,339.4512 Q2216.1406,339.4512 2216.375,339.7168 Q2216.6094,339.9668 2216.6094,340.5762 L2216.6094,342.0293 Q2216.6094,342.6387 2216.375,342.9043 Q2216.1406,343.1699 2215.7656,343.1699 Q2215.4219,343.1699 2215.2188,342.9668 Q2215.0156,342.7793 2214.9063,342.2637 Q2214.8594,341.9043 2214.6719,341.7168 Q2214.3438,341.3418 2213.7344,341.123 Q2213.125,340.9043 2212.5,340.9043 Q2211.7344,340.9043 2211.0938,341.2324 Q2210.4688,341.5605 2209.9688,342.3105 Q2209.4844,343.0605 2209.4844,344.0918 L2209.4844,345.1855 Q2209.4844,346.4199 2210.375,347.248 Q2211.2656,348.0605 2212.8594,348.0605 Q2213.7969,348.0605 2214.4531,347.8105 Q2214.8438,347.6543 2215.2656,347.2168 Q2215.5313,346.9512 2215.6719,346.873 Q2215.8281,346.7949 2216.0313,346.7949 Q2216.3594,346.7949 2216.6094,347.0605 Q2216.875,347.3105 2216.875,347.6543 Q2216.875,347.998 2216.5313,348.4043 Q2216.0313,348.9824 2215.2344,349.3105 Q2214.1563,349.7637 2212.8594,349.7637 Q2211.3438,349.7637 2210.1406,349.1387 Q2209.1563,348.6387 2208.4688,347.5762 Q2207.7813,346.498 2207.7813,345.2168 L2207.7813,344.0605 Q2207.7813,342.7324 2208.3906,341.5918 Q2209.0156,340.4355 2210.1094,339.8262 Q2211.2031,339.2012 2212.4375,339.2012 Q2213.1719,339.2012 2213.8125,339.373 Q2214.4688,339.5293 2215.0156,339.8887 Z " fill="#000000"/><text fill="#000000" font-family="sans-serif" font-size="14" lengthAdjust="spacing" textLength="51" x="2232.75" y="349.8105">PacMan</text><line style="stroke:#181818;stroke-width:0.5;" x1="2160.5" x2="2323.5" y1="360.0137" y2="360.0137"/><rect fill="none" height="6" style="stroke:#C82930;stroke-width:1.0;" width="6" x="2167.5" y="371.8242"/><text fill="#000000" font-family="sans-serif" font-size="14" lengthAdjust="spacing" textLength="90" x="2179.5" y="379.1211">niveles: Nivel[]</text><line style="stroke:#181818;stroke-width:0.5;" x1="2160.5" x2="2323.5" y1="386.6348" y2="386.6348"/><ellipse cx="2170.5" cy="401.4453" fill="#84BE84" rx="3" ry="3" style="stroke:#038048;stroke-width:1.0;"/><text fill="#000000" font-family="sans-serif" font-size="14" lengthAdjust="spacing" textLength="139" x="2179.5" y="405.7422">enlazarNiveles() : void</text><ellipse cx="2170.5" cy="420.0664" fill="#84BE84" rx="3" ry="3" style="stroke:#038048;stroke-width:1.0;"/><text fill="#000000" font-family="sans-serif" font-size="14" lengthAdjust="spacing" textLength="139" x="2179.5" y="424.3633">reiniciarNiveles(): void</text></g><!--class Dificultad--><g id="elem_Dificultad"><rect codeLine="88" fill="#F1F1F1" height="122.4844" id="Dificultad" rx="2.5" ry="2.5" style="stroke:#181818;stroke-width:0.5;" width="90" x="2410" y="622.5137"/><ellipse cx="2425" cy="638.5137" fill="#EB937F" rx="11" ry="11" style="stroke:#181818;stroke-width:1.0;"/><path d="M2423.8594,639.3105 L2423.8594,641.8105 L2428.1875,641.8105 L2428.1875,640.8887 Q2428.1875,640.2793 2428.4219,640.0137 Q2428.6719,639.748 2429.0469,639.748 Q2429.4219,639.748 2429.6563,640.0137 Q2429.8906,640.2793 2429.8906,640.8887 L2429.8906,643.5137 L2421.8906,643.5137 Q2421.2656,643.5137 2421,643.2793 Q2420.75,643.0449 2420.75,642.6543 Q2420.75,642.2793 2421.0156,642.0449 Q2421.2813,641.8105 2421.8906,641.8105 L2422.1563,641.8105 L2422.1563,635.1543 L2421.8906,635.1543 Q2421.2656,635.1543 2421,634.9199 Q2420.75,634.6855 2420.75,634.2949 Q2420.75,633.9199 2421,633.6855 Q2421.2656,633.4512 2421.8906,633.4512 L2429.5156,633.4512 L2429.5156,636.0449 Q2429.5156,636.6543 2429.2813,636.9199 Q2429.0625,637.1699 2428.6719,637.1699 Q2428.2969,637.1699 2428.0625,636.9199 Q2427.8281,636.6543 2427.8281,636.0449 L2427.8281,635.1543 L2423.8594,635.1543 L2423.8594,637.6074 L2425.3438,637.6074 Q2425.3438,636.9512 2425.4688,636.7637 Q2425.7344,636.3574 2426.2031,636.3574 Q2426.5781,636.3574 2426.8125,636.623 Q2427.0469,636.873 2427.0469,637.4824 L2427.0469,639.4512 Q2427.0469,639.998 2426.9219,640.1855 Q2426.6563,640.5762 2426.2031,640.5762 Q2425.7344,640.5762 2425.4688,640.1699 Q2425.3438,639.9824 2425.3438,639.3105 L2423.8594,639.3105 Z " fill="#000000"/><text fill="#000000" font-family="sans-serif" font-size="14" lengthAdjust="spacing" textLength="58" x="2439" y="644.3105">Dificultad</text><line style="stroke:#181818;stroke-width:0.5;" x1="2411" x2="2499" y1="654.5137" y2="654.5137"/><text fill="#000000" font-family="sans-serif" font-size="14" lengthAdjust="spacing" textLength="43" x="2416" y="673.6211">FACIL,</text><text fill="#000000" font-family="sans-serif" font-size="14" lengthAdjust="spacing" textLength="46" x="2416" y="692.2422">MEDIA,</text><text fill="#000000" font-family="sans-serif" font-size="14" lengthAdjust="spacing" textLength="50" x="2416" y="710.8633">DIFICIL,</text><text fill="#000000" font-family="sans-serif" font-size="14" lengthAdjust="spacing" textLength="72" x="2416" y="729.4844">IMPOSIBLE</text><line style="stroke:#181818;stroke-width:0.5;" x1="2411" x2="2499" y1="736.998" y2="736.998"/></g><!--class Tecla--><g id="elem_Tecla"><rect codeLine="94" fill="#F1F1F1" height="122.4844" id="Tecla" rx="2.5" ry="2.5" style="stroke:#181818;stroke-width:0.5;" width="84" x="1715" y="1838.0137"/><ellipse cx="1737.65" cy="1854.0137" fill="#EB937F" rx="11" ry="11" style="stroke:#181818;stroke-width:1.0;"/><path d="M1736.5094,1854.8105 L1736.5094,1857.3105 L1740.8375,1857.3105 L1740.8375,1856.3887 Q1740.8375,1855.7793 1741.0719,1855.5137 Q1741.3219,1855.248 1741.6969,1855.248 Q1742.0719,1855.248 1742.3063,1855.5137 Q1742.5406,1855.7793 1742.5406,1856.3887 L1742.5406,1859.0137 L1734.5406,1859.0137 Q1733.9156,1859.0137 1733.65,1858.7793 Q1733.4,1858.5449 1733.4,1858.1543 Q1733.4,1857.7793 1733.6656,1857.5449 Q1733.9313,1857.3105 1734.5406,1857.3105 L1734.8063,1857.3105 L1734.8063,1850.6543 L1734.5406,1850.6543 Q1733.9156,1850.6543 1733.65,1850.4199 Q1733.4,1850.1855 1733.4,1849.7949 Q1733.4,1849.4199 1733.65,1849.1855 Q1733.9156,1848.9512 1734.5406,1848.9512 L1742.1656,1848.9512 L1742.1656,1851.5449 Q1742.1656,1852.1543 1741.9313,1852.4199 Q1741.7125,1852.6699 1741.3219,1852.6699 Q1740.9469,1852.6699 1740.7125,1852.4199 Q1740.4781,1852.1543 1740.4781,1851.5449 L1740.4781,1850.6543 L1736.5094,1850.6543 L1736.5094,1853.1074 L1737.9938,1853.1074 Q1737.9938,1852.4512 1738.1188,1852.2637 Q1738.3844,1851.8574 1738.8531,1851.8574 Q1739.2281,1851.8574 1739.4625,1852.123 Q1739.6969,1852.373 1739.6969,1852.9824 L1739.6969,1854.9512 Q1739.6969,1855.498 1739.5719,1855.6855 Q1739.3063,1856.0762 1738.8531,1856.0762 Q1738.3844,1856.0762 1738.1188,1855.6699 Q1737.9938,1855.4824 1737.9938,1854.8105 L1736.5094,1854.8105 Z " fill="#000000"/><text fill="#000000" font-family="sans-serif" font-size="14" lengthAdjust="spacing" textLength="35" x="1753.35" y="1859.8105">Tecla</text><line style="stroke:#181818;stroke-width:0.5;" x1="1716" x2="1798" y1="1870.0137" y2="1870.0137"/><text fill="#000000" font-family="sans-serif" font-size="14" lengthAdjust="spacing" textLength="54" x="1721" y="1889.1211">ARRIBA,</text><text fill="#000000" font-family="sans-serif" font-size="14" lengthAdjust="spacing" textLength="48" x="1721" y="1907.7422">ABAJO,</text><text fill="#000000" font-family="sans-serif" font-size="14" lengthAdjust="spacing" textLength="70" x="1721" y="1926.3633">DERECHA,</text><text fill="#000000" font-family="sans-serif" font-size="14" lengthAdjust="spacing" textLength="72" x="1721" y="1944.9844">IZQUIERDA</text><line style="stroke:#181818;stroke-width:0.5;" x1="1716" x2="1798" y1="1952.498" y2="1952.498"/></g><!--class Item--><g id="elem_Item"><rect codeLine="100" fill="#F1F1F1" height="103.8633" id="Item" rx="2.5" ry="2.5" style="stroke:#181818;stroke-width:0.5;" width="128" x="1788" y="328.0137"/><ellipse cx="1834.75" cy="344.0137" fill="#EB937F" rx="11" ry="11" style="stroke:#181818;stroke-width:1.0;"/><path d="M1833.6094,344.8105 L1833.6094,347.3105 L1837.9375,347.3105 L1837.9375,346.3887 Q1837.9375,345.7793 1838.1719,345.5137 Q1838.4219,345.248 1838.7969,345.248 Q1839.1719,345.248 1839.4063,345.5137 Q1839.6406,345.7793 1839.6406,346.3887 L1839.6406,349.0137 L1831.6406,349.0137 Q1831.0156,349.0137 1830.75,348.7793 Q1830.5,348.5449 1830.5,348.1543 Q1830.5,347.7793 1830.7656,347.5449 Q1831.0313,347.3105 1831.6406,347.3105 L1831.9063,347.3105 L1831.9063,340.6543 L1831.6406,340.6543 Q1831.0156,340.6543 1830.75,340.4199 Q1830.5,340.1855 1830.5,339.7949 Q1830.5,339.4199 1830.75,339.1855 Q1831.0156,338.9512 1831.6406,338.9512 L1839.2656,338.9512 L1839.2656,341.5449 Q1839.2656,342.1543 1839.0313,342.4199 Q1838.8125,342.6699 1838.4219,342.6699 Q1838.0469,342.6699 1837.8125,342.4199 Q1837.5781,342.1543 1837.5781,341.5449 L1837.5781,340.6543 L1833.6094,340.6543 L1833.6094,343.1074 L1835.0938,343.1074 Q1835.0938,342.4512 1835.2188,342.2637 Q1835.4844,341.8574 1835.9531,341.8574 Q1836.3281,341.8574 1836.5625,342.123 Q1836.7969,342.373 1836.7969,342.9824 L1836.7969,344.9512 Q1836.7969,345.498 1836.6719,345.6855 Q1836.4063,346.0762 1835.9531,346.0762 Q1835.4844,346.0762 1835.2188,345.6699 Q1835.0938,345.4824 1835.0938,344.8105 L1833.6094,344.8105 Z " fill="#000000"/><text fill="#000000" font-family="sans-serif" font-size="14" lengthAdjust="spacing" textLength="26" x="1855.25" y="349.8105">Item</text><line style="stroke:#181818;stroke-width:0.5;" x1="1789" x2="1915" y1="360.0137" y2="360.0137"/><text fill="#000000" font-family="sans-serif" font-size="14" lengthAdjust="spacing" textLength="70" x="1794" y="379.1211">PAC_DOT,</text><text fill="#000000" font-family="sans-serif" font-size="14" lengthAdjust="spacing" textLength="116" x="1794" y="397.7422">POWER_PELLET,</text><text fill="#000000" font-family="sans-serif" font-size="14" lengthAdjust="spacing" textLength="46" x="1794" y="416.3633">FRUTA</text><line style="stroke:#181818;stroke-width:0.5;" x1="1789" x2="1915" y1="423.877" y2="423.877"/></g><!--class InterfazGrafica--><g id="elem_InterfazGrafica"><rect codeLine="108" fill="#F1F1F1" height="122.4844" id="InterfazGrafica" rx="2.5" ry="2.5" style="stroke:#181818;stroke-width:0.5;" width="220" x="801" y="319.0137"/><ellipse cx="859.75" cy="335.0137" fill="#A9DCDF" rx="11" ry="11" style="stroke:#181818;stroke-width:1.0;"/><path d="M861.9375,336.7793 L857.7969,336.7793 L857.375,337.8105 L857.7969,337.8105 Q858.4063,337.8105 858.6719,338.0449 Q858.9375,338.2793 858.9375,338.6699 Q858.9375,339.0449 858.6719,339.2793 Q858.4063,339.5137 857.7969,339.5137 L855.5,339.5137 Q854.8906,339.5137 854.6406,339.2793 Q854.375,339.0449 854.375,338.6543 Q854.375,338.2793 854.6563,338.0449 Q854.9219,337.7949 855.5469,337.8105 L858.2188,331.1543 L857.1094,331.1543 Q856.5,331.1543 856.2344,330.9199 Q855.9688,330.6855 855.9688,330.2949 Q855.9688,329.9199 856.2344,329.6855 Q856.5,329.4512 857.1094,329.4512 L860.7813,329.4512 L864.1719,337.8105 Q864.7656,337.8105 864.9531,337.9512 Q865.3438,338.2168 865.3438,338.6699 Q865.3438,339.0449 865.0781,339.2793 Q864.8281,339.5137 864.2188,339.5137 L861.9219,339.5137 Q861.3125,339.5137 861.0469,339.2793 Q860.7813,339.0449 860.7813,338.6543 Q860.7813,338.2793 861.0469,338.0449 Q861.3125,337.8105 861.9219,337.8105 L862.3438,337.8105 L861.9375,336.7793 Z M861.2188,335.0762 L859.8594,331.7012 L858.4844,335.0762 L861.2188,335.0762 Z " fill="#000000"/><text fill="#000000" font-family="sans-serif" font-size="14" font-style="italic" lengthAdjust="spacing" textLength="94" x="880.25" y="340.8105">InterfazGrafica</text><line style="stroke:#181818;stroke-width:0.5;" x1="802" x2="1020" y1="351.0137" y2="351.0137"/><polygon fill="none" points="812,360.8242,816,364.8242,812,368.8242,808,364.8242" style="stroke:#B38D22;stroke-width:1.0;"/><text fill="#000000" font-family="sans-serif" font-size="14" lengthAdjust="spacing" textLength="142" x="821" y="370.1211">panel : PanelDelJuego</text><line style="stroke:#181818;stroke-width:0.5;" x1="802" x2="1020" y1="377.6348" y2="377.6348"/><ellipse cx="812" cy="392.4453" fill="#84BE84" rx="3" ry="3" style="stroke:#038048;stroke-width:1.0;"/><text fill="#000000" font-family="sans-serif" font-size="14" lengthAdjust="spacing" textLength="194" x="821" y="396.7422">dibujar(g2 : Graphics2D) : void</text><ellipse cx="812" cy="411.0664" fill="#84BE84" rx="3" ry="3" style="stroke:#038048;stroke-width:1.0;"/><text fill="#000000" font-family="sans-serif" font-size="14" lengthAdjust="spacing" textLength="69" x="821" y="415.3633">run() : void</text><ellipse cx="812" cy="429.6875" fill="#84BE84" rx="3" ry="3" style="stroke:#038048;stroke-width:1.0;"/><text fill="#000000" font-family="sans-serif" font-size="14" lengthAdjust="spacing" textLength="143" x="821" y="433.9844">obtenerImagen() : void</text></g><!--class InterfazGraficaDeFantasma--><g id="elem_InterfazGraficaDeFantasma"><rect codeLine="114" fill="#F1F1F1" height="122.4844" id="InterfazGraficaDeFantasma" rx="2.5" ry="2.5" style="stroke:#181818;stroke-width:0.5;" width="212" x="928" y="70.0137"/><ellipse cx="946.15" cy="86.0137" fill="#ADD1B2" rx="11" ry="11" style="stroke:#181818;stroke-width:1.0;"/><path d="M948.9156,81.8887 Q949.0719,81.6699 949.2594,81.5605 Q949.4469,81.4512 949.6656,81.4512 Q950.0406,81.4512 950.275,81.7168 Q950.5094,81.9668 950.5094,82.5762 L950.5094,84.0293 Q950.5094,84.6387 950.275,84.9043 Q950.0406,85.1699 949.6656,85.1699 Q949.3219,85.1699 949.1188,84.9668 Q948.9156,84.7793 948.8063,84.2637 Q948.7594,83.9043 948.5719,83.7168 Q948.2438,83.3418 947.6344,83.123 Q947.025,82.9043 946.4,82.9043 Q945.6344,82.9043 944.9938,83.2324 Q944.3688,83.5605 943.8688,84.3105 Q943.3844,85.0605 943.3844,86.0918 L943.3844,87.1855 Q943.3844,88.4199 944.275,89.248 Q945.1656,90.0605 946.7594,90.0605 Q947.6969,90.0605 948.3531,89.8105 Q948.7438,89.6543 949.1656,89.2168 Q949.4313,88.9512 949.5719,88.873 Q949.7281,88.7949 949.9313,88.7949 Q950.2594,88.7949 950.5094,89.0605 Q950.775,89.3105 950.775,89.6543 Q950.775,89.998 950.4313,90.4043 Q949.9313,90.9824 949.1344,91.3105 Q948.0563,91.7637 946.7594,91.7637 Q945.2438,91.7637 944.0406,91.1387 Q943.0563,90.6387 942.3688,89.5762 Q941.6813,88.498 941.6813,87.2168 L941.6813,86.0605 Q941.6813,84.7324 942.2906,83.5918 Q942.9156,82.4355 944.0094,81.8262 Q945.1031,81.2012 946.3375,81.2012 Q947.0719,81.2012 947.7125,81.373 Q948.3688,81.5293 948.9156,81.8887 Z " fill="#000000"/><text fill="#000000" font-family="sans-serif" font-size="14" lengthAdjust="spacing" textLength="173" x="960.85" y="91.8105">InterfazGraficaDeFantasma</text><line style="stroke:#181818;stroke-width:0.5;" x1="929" x2="1139" y1="102.0137" y2="102.0137"/><rect fill="none" height="6" style="stroke:#C82930;stroke-width:1.0;" width="6" x="936" y="113.8242"/><text fill="#000000" font-family="sans-serif" font-size="14" lengthAdjust="spacing" textLength="136" x="948" y="121.1211">fantasmas: Fantasma</text><rect fill="none" height="6" style="stroke:#C82930;stroke-width:1.0;" width="6" x="936" y="132.4453"/><text fill="#000000" font-family="sans-serif" font-size="14" lengthAdjust="spacing" textLength="186" x="948" y="139.7422">spritesHuida: BufferedImage[]</text><rect fill="none" height="6" style="stroke:#C82930;stroke-width:1.0;" width="6" x="936" y="151.0664"/><text fill="#000000" font-family="sans-serif" font-size="14" lengthAdjust="spacing" textLength="119" x="948" y="158.3633">actualizar: boolean</text><line style="stroke:#181818;stroke-width:0.5;" x1="929" x2="1139" y1="165.877" y2="165.877"/><ellipse cx="939" cy="180.6875" fill="#84BE84" rx="3" ry="3" style="stroke:#038048;stroke-width:1.0;"/><text fill="#000000" font-family="sans-serif" font-size="14" lengthAdjust="spacing" textLength="104" x="948" y="184.9844">actualizar(): void</text></g><!--class InterfazGraficaDeJugador--><g id="elem_InterfazGraficaDeJugador"><rect codeLine="120" fill="#F1F1F1" height="48" id="InterfazGraficaDeJugador" rx="2.5" ry="2.5" style="stroke:#181818;stroke-width:0.5;" width="193" x="699.5" y="107.0137"/><ellipse cx="714.5" cy="123.0137" fill="#ADD1B2" rx="11" ry="11" style="stroke:#181818;stroke-width:1.0;"/><path d="M717.2656,118.8887 Q717.4219,118.6699 717.6094,118.5605 Q717.7969,118.4512 718.0156,118.4512 Q718.3906,118.4512 718.625,118.7168 Q718.8594,118.9668 718.8594,119.5762 L718.8594,121.0293 Q718.8594,121.6387 718.625,121.9043 Q718.3906,122.1699 718.0156,122.1699 Q717.6719,122.1699 717.4688,121.9668 Q717.2656,121.7793 717.1563,121.2637 Q717.1094,120.9043 716.9219,120.7168 Q716.5938,120.3418 715.9844,120.123 Q715.375,119.9043 714.75,119.9043 Q713.9844,119.9043 713.3438,120.2324 Q712.7188,120.5605 712.2188,121.3105 Q711.7344,122.0605 711.7344,123.0918 L711.7344,124.1855 Q711.7344,125.4199 712.625,126.248 Q713.5156,127.0605 715.1094,127.0605 Q716.0469,127.0605 716.7031,126.8105 Q717.0938,126.6543 717.5156,126.2168 Q717.7813,125.9512 717.9219,125.873 Q718.0781,125.7949 718.2813,125.7949 Q718.6094,125.7949 718.8594,126.0605 Q719.125,126.3105 719.125,126.6543 Q719.125,126.998 718.7813,127.4043 Q718.2813,127.9824 717.4844,128.3105 Q716.4063,128.7637 715.1094,128.7637 Q713.5938,128.7637 712.3906,128.1387 Q711.4063,127.6387 710.7188,126.5762 Q710.0313,125.498 710.0313,124.2168 L710.0313,123.0605 Q710.0313,121.7324 710.6406,120.5918 Q711.2656,119.4355 712.3594,118.8262 Q713.4531,118.2012 714.6875,118.2012 Q715.4219,118.2012 716.0625,118.373 Q716.7188,118.5293 717.2656,118.8887 Z " fill="#000000"/><text fill="#000000" font-family="sans-serif" font-size="14" lengthAdjust="spacing" textLength="161" x="728.5" y="128.8105">InterfazGraficaDeJugador</text><line style="stroke:#181818;stroke-width:0.5;" x1="700.5" x2="891.5" y1="139.0137" y2="139.0137"/><line style="stroke:#181818;stroke-width:0.5;" x1="700.5" x2="891.5" y1="147.0137" y2="147.0137"/></g><!--class InterfazGraficaDelMarco--><g id="elem_InterfazGraficaDelMarco"><rect codeLine="123" fill="#F1F1F1" height="159.7266" id="InterfazGraficaDelMarco" rx="2.5" ry="2.5" style="stroke:#181818;stroke-width:0.5;" width="262" x="402" y="51.0137"/><ellipse cx="452.75" cy="67.0137" fill="#ADD1B2" rx="11" ry="11" style="stroke:#181818;stroke-width:1.0;"/><path d="M455.5156,62.8887 Q455.6719,62.6699 455.8594,62.5605 Q456.0469,62.4512 456.2656,62.4512 Q456.6406,62.4512 456.875,62.7168 Q457.1094,62.9668 457.1094,63.5762 L457.1094,65.0293 Q457.1094,65.6387 456.875,65.9043 Q456.6406,66.1699 456.2656,66.1699 Q455.9219,66.1699 455.7188,65.9668 Q455.5156,65.7793 455.4063,65.2637 Q455.3594,64.9043 455.1719,64.7168 Q454.8438,64.3418 454.2344,64.123 Q453.625,63.9043 453,63.9043 Q452.2344,63.9043 451.5938,64.2324 Q450.9688,64.5605 450.4688,65.3105 Q449.9844,66.0605 449.9844,67.0918 L449.9844,68.1855 Q449.9844,69.4199 450.875,70.248 Q451.7656,71.0605 453.3594,71.0605 Q454.2969,71.0605 454.9531,70.8105 Q455.3438,70.6543 455.7656,70.2168 Q456.0313,69.9512 456.1719,69.873 Q456.3281,69.7949 456.5313,69.7949 Q456.8594,69.7949 457.1094,70.0605 Q457.375,70.3105 457.375,70.6543 Q457.375,70.998 457.0313,71.4043 Q456.5313,71.9824 455.7344,72.3105 Q454.6563,72.7637 453.3594,72.7637 Q451.8438,72.7637 450.6406,72.1387 Q449.6563,71.6387 448.9688,70.5762 Q448.2813,69.498 448.2813,68.2168 L448.2813,67.0605 Q448.2813,65.7324 448.8906,64.5918 Q449.5156,63.4355 450.6094,62.8262 Q451.7031,62.2012 452.9375,62.2012 Q453.6719,62.2012 454.3125,62.373 Q454.9688,62.5293 455.5156,62.8887 Z " fill="#000000"/><text fill="#000000" font-family="sans-serif" font-size="14" lengthAdjust="spacing" textLength="152" x="473.25" y="72.8105">InterfazGraficaDelMarco</text><line style="stroke:#181818;stroke-width:0.5;" x1="403" x2="663" y1="83.0137" y2="83.0137"/><rect fill="none" height="6" style="stroke:#C82930;stroke-width:1.0;" width="6" x="410" y="94.8242"/><text fill="#000000" font-family="sans-serif" font-size="14" lengthAdjust="spacing" textLength="111" x="422" y="102.1211">jugador : Jugador</text><rect fill="none" height="6" style="stroke:#C82930;stroke-width:1.0;" width="6" x="410" y="113.4453"/><text fill="#000000" font-family="sans-serif" font-size="14" lengthAdjust="spacing" textLength="127" x="422" y="120.7422">laberinto : Laberinto</text><rect fill="none" height="6" style="stroke:#C82930;stroke-width:1.0;" width="6" x="410" y="132.0664"/><text fill="#000000" font-family="sans-serif" font-size="14" lengthAdjust="spacing" textLength="236" x="422" y="139.3633">imagenPacmanaSkin : BufferedImage</text><rect fill="none" height="6" style="stroke:#C82930;stroke-width:1.0;" width="6" x="410" y="150.6875"/><text fill="#000000" font-family="sans-serif" font-size="14" lengthAdjust="spacing" textLength="132" x="422" y="157.9844">fuentePacman : Font</text><line style="stroke:#181818;stroke-width:0.5;" x1="403" x2="663" y1="165.498" y2="165.498"/><ellipse cx="413" cy="180.3086" fill="#84BE84" rx="3" ry="3" style="stroke:#038048;stroke-width:1.0;"/><text fill="#000000" font-family="sans-serif" font-size="14" lengthAdjust="spacing" textLength="134" x="422" y="184.6055">cargarFuente() : void</text><ellipse cx="413" cy="198.9297" fill="#84BE84" rx="3" ry="3" style="stroke:#038048;stroke-width:1.0;"/><text fill="#000000" font-family="sans-serif" font-size="14" lengthAdjust="spacing" textLength="146" x="422" y="203.2266">cargarImagenes(): void</text></g><!--class InterfazGraficaDeLaberinto--><g id="elem_InterfazGraficaDeLaberinto"><rect codeLine="131" fill="#F1F1F1" height="85.2422" id="InterfazGraficaDeLaberinto" rx="2.5" ry="2.5" style="stroke:#181818;stroke-width:0.5;" width="202" x="1175" y="88.5137"/><ellipse cx="1190" cy="104.5137" fill="#ADD1B2" rx="11" ry="11" style="stroke:#181818;stroke-width:1.0;"/><path d="M1192.7656,100.3887 Q1192.9219,100.1699 1193.1094,100.0605 Q1193.2969,99.9512 1193.5156,99.9512 Q1193.8906,99.9512 1194.125,100.2168 Q1194.3594,100.4668 1194.3594,101.0762 L1194.3594,102.5293 Q1194.3594,103.1387 1194.125,103.4043 Q1193.8906,103.6699 1193.5156,103.6699 Q1193.1719,103.6699 1192.9688,103.4668 Q1192.7656,103.2793 1192.6563,102.7637 Q1192.6094,102.4043 1192.4219,102.2168 Q1192.0938,101.8418 1191.4844,101.623 Q1190.875,101.4043 1190.25,101.4043 Q1189.4844,101.4043 1188.8438,101.7324 Q1188.2188,102.0605 1187.7188,102.8105 Q1187.2344,103.5605 1187.2344,104.5918 L1187.2344,105.6855 Q1187.2344,106.9199 1188.125,107.748 Q1189.0156,108.5605 1190.6094,108.5605 Q1191.5469,108.5605 1192.2031,108.3105 Q1192.5938,108.1543 1193.0156,107.7168 Q1193.2813,107.4512 1193.4219,107.373 Q1193.5781,107.2949 1193.7813,107.2949 Q1194.1094,107.2949 1194.3594,107.5605 Q1194.625,107.8105 1194.625,108.1543 Q1194.625,108.498 1194.2813,108.9043 Q1193.7813,109.4824 1192.9844,109.8105 Q1191.9063,110.2637 1190.6094,110.2637 Q1189.0938,110.2637 1187.8906,109.6387 Q1186.9063,109.1387 1186.2188,108.0762 Q1185.5313,106.998 1185.5313,105.7168 L1185.5313,104.5605 Q1185.5313,103.2324 1186.1406,102.0918 Q1186.7656,100.9355 1187.8594,100.3262 Q1188.9531,99.7012 1190.1875,99.7012 Q1190.9219,99.7012 1191.5625,99.873 Q1192.2188,100.0293 1192.7656,100.3887 Z " fill="#000000"/><text fill="#000000" font-family="sans-serif" font-size="14" lengthAdjust="spacing" textLength="170" x="1204" y="110.3105">InterfazGraficaDeLaberinto</text><line style="stroke:#181818;stroke-width:0.5;" x1="1176" x2="1376" y1="120.5137" y2="120.5137"/><line style="stroke:#181818;stroke-width:0.5;" x1="1176" x2="1376" y1="128.5137" y2="128.5137"/><ellipse cx="1186" cy="143.3242" fill="#84BE84" rx="3" ry="3" style="stroke:#038048;stroke-width:1.0;"/><text fill="#000000" font-family="sans-serif" font-size="14" lengthAdjust="spacing" textLength="88" x="1195" y="147.6211">pausar(): void</text><ellipse cx="1186" cy="161.9453" fill="#84BE84" rx="3" ry="3" style="stroke:#038048;stroke-width:1.0;"/><text fill="#000000" font-family="sans-serif" font-size="14" lengthAdjust="spacing" textLength="111" x="1195" y="166.2422">despausar(): void</text></g><!--class MenuPacMan--><g id="elem_MenuPacMan"><rect codeLine="135" fill="#F1F1F1" height="85.2422" id="MenuPacMan" rx="2.5" ry="2.5" style="stroke:#181818;stroke-width:0.5;" width="179" x="187.5" y="88.5137"/><ellipse cx="229.95" cy="104.5137" fill="#ADD1B2" rx="11" ry="11" style="stroke:#181818;stroke-width:1.0;"/><path d="M232.7156,100.3887 Q232.8719,100.1699 233.0594,100.0605 Q233.2469,99.9512 233.4656,99.9512 Q233.8406,99.9512 234.075,100.2168 Q234.3094,100.4668 234.3094,101.0762 L234.3094,102.5293 Q234.3094,103.1387 234.075,103.4043 Q233.8406,103.6699 233.4656,103.6699 Q233.1219,103.6699 232.9188,103.4668 Q232.7156,103.2793 232.6063,102.7637 Q232.5594,102.4043 232.3719,102.2168 Q232.0438,101.8418 231.4344,101.623 Q230.825,101.4043 230.2,101.4043 Q229.4344,101.4043 228.7938,101.7324 Q228.1688,102.0605 227.6688,102.8105 Q227.1844,103.5605 227.1844,104.5918 L227.1844,105.6855 Q227.1844,106.9199 228.075,107.748 Q228.9656,108.5605 230.5594,108.5605 Q231.4969,108.5605 232.1531,108.3105 Q232.5438,108.1543 232.9656,107.7168 Q233.2313,107.4512 233.3719,107.373 Q233.5281,107.2949 233.7313,107.2949 Q234.0594,107.2949 234.3094,107.5605 Q234.575,107.8105 234.575,108.1543 Q234.575,108.498 234.2313,108.9043 Q233.7313,109.4824 232.9344,109.8105 Q231.8563,110.2637 230.5594,110.2637 Q229.0438,110.2637 227.8406,109.6387 Q226.8563,109.1387 226.1688,108.0762 Q225.4813,106.998 225.4813,105.7168 L225.4813,104.5605 Q225.4813,103.2324 226.0906,102.0918 Q226.7156,100.9355 227.8094,100.3262 Q228.9031,99.7012 230.1375,99.7012 Q230.8719,99.7012 231.5125,99.873 Q232.1688,100.0293 232.7156,100.3887 Z " fill="#000000"/><text fill="#000000" font-family="sans-serif" font-size="14" lengthAdjust="spacing" textLength="86" x="250.05" y="110.3105">MenuPacMan</text><line style="stroke:#181818;stroke-width:0.5;" x1="188.5" x2="365.5" y1="120.5137" y2="120.5137"/><line style="stroke:#181818;stroke-width:0.5;" x1="188.5" x2="365.5" y1="128.5137" y2="128.5137"/><ellipse cx="198.5" cy="143.3242" fill="#84BE84" rx="3" ry="3" style="stroke:#038048;stroke-width:1.0;"/><text fill="#000000" font-family="sans-serif" font-size="14" lengthAdjust="spacing" textLength="146" x="207.5" y="147.6211">colocarBotonos() : void</text><ellipse cx="198.5" cy="161.9453" fill="#84BE84" rx="3" ry="3" style="stroke:#038048;stroke-width:1.0;"/><text fill="#000000" font-family="sans-serif" font-size="14" lengthAdjust="spacing" textLength="153" x="207.5" y="166.2422">colocarEtiquetas() : void</text></g><!--class ContenedorPacMan--><g id="elem_ContenedorPacMan"><rect codeLine="139" fill="#F1F1F1" height="215.5898" id="ContenedorPacMan" rx="2.5" ry="2.5" style="stroke:#181818;stroke-width:0.5;" width="192" x="574" y="272.0137"/><ellipse cx="604.3" cy="288.0137" fill="#ADD1B2" rx="11" ry="11" style="stroke:#181818;stroke-width:1.0;"/><path d="M607.0656,283.8887 Q607.2219,283.6699 607.4094,283.5605 Q607.5969,283.4512 607.8156,283.4512 Q608.1906,283.4512 608.425,283.7168 Q608.6594,283.9668 608.6594,284.5762 L608.6594,286.0293 Q608.6594,286.6387 608.425,286.9043 Q608.1906,287.1699 607.8156,287.1699 Q607.4719,287.1699 607.2688,286.9668 Q607.0656,286.7793 606.9563,286.2637 Q606.9094,285.9043 606.7219,285.7168 Q606.3938,285.3418 605.7844,285.123 Q605.175,284.9043 604.55,284.9043 Q603.7844,284.9043 603.1438,285.2324 Q602.5188,285.5605 602.0188,286.3105 Q601.5344,287.0605 601.5344,288.0918 L601.5344,289.1855 Q601.5344,290.4199 602.425,291.248 Q603.3156,292.0605 604.9094,292.0605 Q605.8469,292.0605 606.5031,291.8105 Q606.8938,291.6543 607.3156,291.2168 Q607.5813,290.9512 607.7219,290.873 Q607.8781,290.7949 608.0813,290.7949 Q608.4094,290.7949 608.6594,291.0605 Q608.925,291.3105 608.925,291.6543 Q608.925,291.998 608.5813,292.4043 Q608.0813,292.9824 607.2844,293.3105 Q606.2063,293.7637 604.9094,293.7637 Q603.3938,293.7637 602.1906,293.1387 Q601.2063,292.6387 600.5188,291.5762 Q599.8313,290.498 599.8313,289.2168 L599.8313,288.0605 Q599.8313,286.7324 600.4406,285.5918 Q601.0656,284.4355 602.1594,283.8262 Q603.2531,283.2012 604.4875,283.2012 Q605.2219,283.2012 605.8625,283.373 Q606.5188,283.5293 607.0656,283.8887 Z " fill="#000000"/><text fill="#000000" font-family="sans-serif" font-size="14" lengthAdjust="spacing" textLength="126" x="621.7" y="293.8105">ContenedorPacMan</text><line style="stroke:#181818;stroke-width:0.5;" x1="575" x2="765" y1="304.0137" y2="304.0137"/><rect fill="none" height="6" style="stroke:#C82930;stroke-width:1.0;" width="6" x="582" y="315.8242"/><text fill="#000000" font-family="sans-serif" font-size="14" lengthAdjust="spacing" textLength="166" x="594" y="323.1211">controles : DetectorTeclas</text><rect fill="none" height="6" style="stroke:#C82930;stroke-width:1.0;" width="6" x="582" y="334.4453"/><text fill="#000000" font-family="sans-serif" font-size="14" lengthAdjust="spacing" textLength="133" x="594" y="341.7422">menu : MenuPacMan</text><rect fill="none" height="6" style="stroke:#C82930;stroke-width:1.0;" width="6" x="582" y="353.0664"/><text fill="#000000" font-family="sans-serif" font-size="14" lengthAdjust="spacing" textLength="71" x="594" y="360.3633">nivel : Nivel</text><rect fill="none" height="6" style="stroke:#C82930;stroke-width:1.0;" width="6" x="582" y="371.6875"/><text fill="#000000" font-family="sans-serif" font-size="14" lengthAdjust="spacing" textLength="148" x="594" y="378.9844">botonRegreso : Jbutton</text><line style="stroke:#181818;stroke-width:0.5;" x1="575" x2="765" y1="386.498" y2="386.498"/><ellipse cx="585" cy="401.3086" fill="#84BE84" rx="3" ry="3" style="stroke:#038048;stroke-width:1.0;"/><text fill="#000000" font-family="sans-serif" font-size="14" lengthAdjust="spacing" textLength="156" x="594" y="405.6055">iniciar(nivel : Nivel) : void</text><ellipse cx="585" cy="419.9297" fill="#84BE84" rx="3" ry="3" style="stroke:#038048;stroke-width:1.0;"/><text fill="#000000" font-family="sans-serif" font-size="14" lengthAdjust="spacing" textLength="145" x="594" y="424.2266">configurarBoton(): void</text><ellipse cx="585" cy="438.5508" fill="#84BE84" rx="3" ry="3" style="stroke:#038048;stroke-width:1.0;"/><text fill="#000000" font-family="sans-serif" font-size="14" lengthAdjust="spacing" textLength="102" x="594" y="442.8477">reanudar(): void</text><ellipse cx="585" cy="457.1719" fill="#84BE84" rx="3" ry="3" style="stroke:#038048;stroke-width:1.0;"/><text fill="#000000" font-family="sans-serif" font-size="14" lengthAdjust="spacing" textLength="134" x="594" y="461.4688">pausarInterfaz(): void</text><ellipse cx="585" cy="475.793" fill="#84BE84" rx="3" ry="3" style="stroke:#038048;stroke-width:1.0;"/><text fill="#000000" font-family="sans-serif" font-size="14" lengthAdjust="spacing" textLength="134" x="594" y="480.0898">pausarInterfaz(): void</text></g><!--class Puntuacion--><g id="elem_Puntuacion"><rect codeLine="150" fill="#F1F1F1" height="141.1055" id="Puntuacion" rx="2.5" ry="2.5" style="stroke:#181818;stroke-width:0.5;" width="208" x="30" y="309.5137"/><ellipse cx="94.25" cy="325.5137" fill="#ADD1B2" rx="11" ry="11" style="stroke:#181818;stroke-width:1.0;"/><path d="M97.0156,321.3887 Q97.1719,321.1699 97.3594,321.0605 Q97.5469,320.9512 97.7656,320.9512 Q98.1406,320.9512 98.375,321.2168 Q98.6094,321.4668 98.6094,322.0762 L98.6094,323.5293 Q98.6094,324.1387 98.375,324.4043 Q98.1406,324.6699 97.7656,324.6699 Q97.4219,324.6699 97.2188,324.4668 Q97.0156,324.2793 96.9063,323.7637 Q96.8594,323.4043 96.6719,323.2168 Q96.3438,322.8418 95.7344,322.623 Q95.125,322.4043 94.5,322.4043 Q93.7344,322.4043 93.0938,322.7324 Q92.4688,323.0605 91.9688,323.8105 Q91.4844,324.5605 91.4844,325.5918 L91.4844,326.6855 Q91.4844,327.9199 92.375,328.748 Q93.2656,329.5605 94.8594,329.5605 Q95.7969,329.5605 96.4531,329.3105 Q96.8438,329.1543 97.2656,328.7168 Q97.5313,328.4512 97.6719,328.373 Q97.8281,328.2949 98.0313,328.2949 Q98.3594,328.2949 98.6094,328.5605 Q98.875,328.8105 98.875,329.1543 Q98.875,329.498 98.5313,329.9043 Q98.0313,330.4824 97.2344,330.8105 Q96.1563,331.2637 94.8594,331.2637 Q93.3438,331.2637 92.1406,330.6387 Q91.1563,330.1387 90.4688,329.0762 Q89.7813,327.998 89.7813,326.7168 L89.7813,325.5605 Q89.7813,324.2324 90.3906,323.0918 Q91.0156,321.9355 92.1094,321.3262 Q93.2031,320.7012 94.4375,320.7012 Q95.1719,320.7012 95.8125,320.873 Q96.4688,321.0293 97.0156,321.3887 Z " fill="#000000"/><text fill="#000000" font-family="sans-serif" font-size="14" lengthAdjust="spacing" textLength="71" x="114.75" y="331.3105">Puntuacion</text><line style="stroke:#181818;stroke-width:0.5;" x1="31" x2="237" y1="341.5137" y2="341.5137"/><rect fill="none" height="6" style="stroke:#C82930;stroke-width:1.0;" width="6" x="38" y="353.3242"/><text fill="#000000" font-family="sans-serif" font-size="14" lengthAdjust="spacing" textLength="77" x="50" y="360.6211">archivo: File</text><rect fill="none" height="6" style="stroke:#C82930;stroke-width:1.0;" width="6" x="38" y="371.9453"/><text fill="#000000" font-family="sans-serif" font-size="14" lengthAdjust="spacing" textLength="132" x="50" y="379.2422">fuentePacman : Font</text><rect fill="none" height="6" style="stroke:#C82930;stroke-width:1.0;" width="6" x="38" y="390.5664"/><text fill="#000000" font-family="sans-serif" font-size="14" lengthAdjust="spacing" textLength="129" x="50" y="397.8633">menu: MenuPacMan</text><line style="stroke:#181818;stroke-width:0.5;" x1="31" x2="237" y1="405.377" y2="405.377"/><ellipse cx="41" cy="420.1875" fill="#84BE84" rx="3" ry="3" style="stroke:#038048;stroke-width:1.0;"/><text fill="#000000" font-family="sans-serif" font-size="14" lengthAdjust="spacing" textLength="130" x="50" y="424.4844">cargarFuente(): void</text><ellipse cx="41" cy="438.8086" fill="#84BE84" rx="3" ry="3" style="stroke:#038048;stroke-width:1.0;"/><text fill="#000000" font-family="sans-serif" font-size="14" lengthAdjust="spacing" textLength="182" x="50" y="443.1055">mostrarPunttuaciones(): void</text></g><!--class Sonido--><g id="elem_Sonido"><rect codeLine="157" fill="#F1F1F1" height="215.5898" id="Sonido" rx="2.5" ry="2.5" style="stroke:#181818;stroke-width:0.5;" width="266" x="273" y="272.0137"/><ellipse cx="379.75" cy="288.0137" fill="#ADD1B2" rx="11" ry="11" style="stroke:#181818;stroke-width:1.0;"/><path d="M382.5156,283.8887 Q382.6719,283.6699 382.8594,283.5605 Q383.0469,283.4512 383.2656,283.4512 Q383.6406,283.4512 383.875,283.7168 Q384.1094,283.9668 384.1094,284.5762 L384.1094,286.0293 Q384.1094,286.6387 383.875,286.9043 Q383.6406,287.1699 383.2656,287.1699 Q382.9219,287.1699 382.7188,286.9668 Q382.5156,286.7793 382.4063,286.2637 Q382.3594,285.9043 382.1719,285.7168 Q381.8438,285.3418 381.2344,285.123 Q380.625,284.9043 380,284.9043 Q379.2344,284.9043 378.5938,285.2324 Q377.9688,285.5605 377.4688,286.3105 Q376.9844,287.0605 376.9844,288.0918 L376.9844,289.1855 Q376.9844,290.4199 377.875,291.248 Q378.7656,292.0605 380.3594,292.0605 Q381.2969,292.0605 381.9531,291.8105 Q382.3438,291.6543 382.7656,291.2168 Q383.0313,290.9512 383.1719,290.873 Q383.3281,290.7949 383.5313,290.7949 Q383.8594,290.7949 384.1094,291.0605 Q384.375,291.3105 384.375,291.6543 Q384.375,291.998 384.0313,292.4043 Q383.5313,292.9824 382.7344,293.3105 Q381.6563,293.7637 380.3594,293.7637 Q378.8438,293.7637 377.6406,293.1387 Q376.6563,292.6387 375.9688,291.5762 Q375.2813,290.498 375.2813,289.2168 L375.2813,288.0605 Q375.2813,286.7324 375.8906,285.5918 Q376.5156,284.4355 377.6094,283.8262 Q378.7031,283.2012 379.9375,283.2012 Q380.6719,283.2012 381.3125,283.373 Q381.9688,283.5293 382.5156,283.8887 Z " fill="#000000"/><text fill="#000000" font-family="sans-serif" font-size="14" lengthAdjust="spacing" textLength="44" x="400.25" y="293.8105">Sonido</text><line style="stroke:#181818;stroke-width:0.5;" x1="274" x2="538" y1="304.0137" y2="304.0137"/><rect fill="none" height="6" style="stroke:#C82930;stroke-width:1.0;" width="6" x="281" y="315.8242"/><text fill="#000000" font-family="sans-serif" font-size="14" lengthAdjust="spacing" textLength="96" x="293" y="323.1211">sonidos : URL[]</text><rect fill="none" height="6" style="stroke:#C82930;stroke-width:1.0;" width="6" x="281" y="334.4453"/><text fill="#000000" font-family="sans-serif" font-size="14" lengthAdjust="spacing" textLength="53" x="293" y="341.7422">clip: Clip</text><line style="stroke:#181818;stroke-width:0.5;" x1="274" x2="538" y1="349.2559" y2="349.2559"/><ellipse cx="284" cy="364.0664" fill="#84BE84" rx="3" ry="3" style="stroke:#038048;stroke-width:1.0;"/><text fill="#000000" font-family="sans-serif" font-size="14" lengthAdjust="spacing" textLength="131" x="293" y="368.3633">correrEnLoop(): void</text><ellipse cx="284" cy="382.6875" fill="#84BE84" rx="3" ry="3" style="stroke:#038048;stroke-width:1.0;"/><text fill="#000000" font-family="sans-serif" font-size="14" lengthAdjust="spacing" textLength="136" x="293" y="386.9844">cargarSonidos(): void</text><ellipse cx="284" cy="401.3086" fill="#84BE84" rx="3" ry="3" style="stroke:#038048;stroke-width:1.0;"/><text fill="#000000" font-family="sans-serif" font-size="14" lengthAdjust="spacing" textLength="78" x="293" y="405.6055">parar(): void</text><ellipse cx="284" cy="419.9297" fill="#84BE84" rx="3" ry="3" style="stroke:#038048;stroke-width:1.0;"/><text fill="#000000" font-family="sans-serif" font-size="14" lengthAdjust="spacing" textLength="149" x="293" y="424.2266">reproducirEfecto(): void</text><ellipse cx="284" cy="438.5508" fill="#84BE84" rx="3" ry="3" style="stroke:#038048;stroke-width:1.0;"/><text fill="#000000" font-family="sans-serif" font-size="14" lengthAdjust="spacing" textLength="165" x="293" y="442.8477">terminarSonido(): boolean</text><ellipse cx="284" cy="457.1719" fill="#84BE84" rx="3" ry="3" style="stroke:#038048;stroke-width:1.0;"/><text fill="#000000" font-family="sans-serif" font-size="14" lengthAdjust="spacing" textLength="218" x="293" y="461.4688">obtenerSonidos(sonidos: Sonidos)</text><ellipse cx="284" cy="475.793" fill="#84BE84" rx="3" ry="3" style="stroke:#038048;stroke-width:1.0;"/><text fill="#000000" font-family="sans-serif" font-size="14" lengthAdjust="spacing" textLength="240" x="293" y="480.0898">obtenerUrl(nombreAudio: String): URL</text></g><!--class Sonidos--><g id="elem_Sonidos"><rect codeLine="169" fill="#F1F1F1" height="141.1055" id="Sonidos" rx="2.5" ry="2.5" style="stroke:#181818;stroke-width:0.5;" width="122" x="30" y="60.5137"/><ellipse cx="62.55" cy="76.5137" fill="#EB937F" rx="11" ry="11" style="stroke:#181818;stroke-width:1.0;"/><path d="M61.4094,77.3105 L61.4094,79.8105 L65.7375,79.8105 L65.7375,78.8887 Q65.7375,78.2793 65.9719,78.0137 Q66.2219,77.748 66.5969,77.748 Q66.9719,77.748 67.2063,78.0137 Q67.4406,78.2793 67.4406,78.8887 L67.4406,81.5137 L59.4406,81.5137 Q58.8156,81.5137 58.55,81.2793 Q58.3,81.0449 58.3,80.6543 Q58.3,80.2793 58.5656,80.0449 Q58.8313,79.8105 59.4406,79.8105 L59.7063,79.8105 L59.7063,73.1543 L59.4406,73.1543 Q58.8156,73.1543 58.55,72.9199 Q58.3,72.6855 58.3,72.2949 Q58.3,71.9199 58.55,71.6855 Q58.8156,71.4512 59.4406,71.4512 L67.0656,71.4512 L67.0656,74.0449 Q67.0656,74.6543 66.8313,74.9199 Q66.6125,75.1699 66.2219,75.1699 Q65.8469,75.1699 65.6125,74.9199 Q65.3781,74.6543 65.3781,74.0449 L65.3781,73.1543 L61.4094,73.1543 L61.4094,75.6074 L62.8938,75.6074 Q62.8938,74.9512 63.0188,74.7637 Q63.2844,74.3574 63.7531,74.3574 Q64.1281,74.3574 64.3625,74.623 Q64.5969,74.873 64.5969,75.4824 L64.5969,77.4512 Q64.5969,77.998 64.4719,78.1855 Q64.2063,78.5762 63.7531,78.5762 Q63.2844,78.5762 63.0188,78.1699 Q62.8938,77.9824 62.8938,77.3105 L61.4094,77.3105 Z " fill="#000000"/><text fill="#000000" font-family="sans-serif" font-size="14" lengthAdjust="spacing" textLength="51" x="80.45" y="82.3105">Sonidos</text><line style="stroke:#181818;stroke-width:0.5;" x1="31" x2="151" y1="92.5137" y2="92.5137"/><text fill="#000000" font-family="sans-serif" font-size="14" lengthAdjust="spacing" textLength="42" x="36" y="111.6211">MENU,</text><text fill="#000000" font-family="sans-serif" font-size="14" lengthAdjust="spacing" textLength="61" x="36" y="130.2422">MUERTE,</text><text fill="#000000" font-family="sans-serif" font-size="14" lengthAdjust="spacing" textLength="63" x="36" y="148.8633">PARTIDA,</text><text fill="#000000" font-family="sans-serif" font-size="14" lengthAdjust="spacing" textLength="110" x="36" y="167.4844">INICIO_PARTIDA,</text><text fill="#000000" font-family="sans-serif" font-size="14" lengthAdjust="spacing" textLength="78" x="36" y="186.1055">POWER_UP</text><line style="stroke:#181818;stroke-width:0.5;" x1="31" x2="151" y1="193.6191" y2="193.6191"/></g><!--class Runnable--><g id="elem_Runnable"><rect codeLine="178" fill="#F1F1F1" height="48" id="Runnable" rx="2.5" ry="2.5" style="stroke:#181818;stroke-width:0.5;" width="93" x="2737.5" y="1590.0137"/><ellipse cx="2752.5" cy="1606.0137" fill="#B4A7E5" rx="11" ry="11" style="stroke:#181818;stroke-width:1.0;"/><path d="M2753.4531,1602.6543 L2753.4531,1609.3105 L2755.1719,1609.3105 Q2755.7813,1609.3105 2756.0469,1609.5449 Q2756.3125,1609.7793 2756.3125,1610.1699 Q2756.3125,1610.5449 2756.0469,1610.7793 Q2755.7813,1611.0137 2755.1719,1611.0137 L2750.0313,1611.0137 Q2749.4219,1611.0137 2749.1563,1610.7793 Q2748.8906,1610.5449 2748.8906,1610.1543 Q2748.8906,1609.7793 2749.1563,1609.5449 Q2749.4219,1609.3105 2750.0313,1609.3105 L2751.75,1609.3105 L2751.75,1602.6543 L2750.0313,1602.6543 Q2749.4219,1602.6543 2749.1563,1602.4199 Q2748.8906,1602.1855 2748.8906,1601.7949 Q2748.8906,1601.4199 2749.1563,1601.1855 Q2749.4219,1600.9512 2750.0313,1600.9512 L2755.1719,1600.9512 Q2755.7813,1600.9512 2756.0469,1601.1855 Q2756.3125,1601.4199 2756.3125,1601.7949 Q2756.3125,1602.1855 2756.0469,1602.4199 Q2755.7813,1602.6543 2755.1719,1602.6543 L2753.4531,1602.6543 Z " fill="#000000"/><text fill="#000000" font-family="sans-serif" font-size="14" font-style="italic" lengthAdjust="spacing" textLength="61" x="2766.5" y="1611.8105">Runnable</text><line style="stroke:#181818;stroke-width:0.5;" x1="2738.5" x2="2829.5" y1="1622.0137" y2="1622.0137"/><line style="stroke:#181818;stroke-width:0.5;" x1="2738.5" x2="2829.5" y1="1630.0137" y2="1630.0137"/></g><!--class KeyListener--><g id="elem_KeyListener"><rect codeLine="179" fill="#F1F1F1" height="48" id="KeyListener" rx="2.5" ry="2.5" style="stroke:#181818;stroke-width:0.5;" width="107" x="2737.5" y="1875.0137"/><ellipse cx="2752.5" cy="1891.0137" fill="#B4A7E5" rx="11" ry="11" style="stroke:#181818;stroke-width:1.0;"/><path d="M2753.4531,1887.6543 L2753.4531,1894.3105 L2755.1719,1894.3105 Q2755.7813,1894.3105 2756.0469,1894.5449 Q2756.3125,1894.7793 2756.3125,1895.1699 Q2756.3125,1895.5449 2756.0469,1895.7793 Q2755.7813,1896.0137 2755.1719,1896.0137 L2750.0313,1896.0137 Q2749.4219,1896.0137 2749.1563,1895.7793 Q2748.8906,1895.5449 2748.8906,1895.1543 Q2748.8906,1894.7793 2749.1563,1894.5449 Q2749.4219,1894.3105 2750.0313,1894.3105 L2751.75,1894.3105 L2751.75,1887.6543 L2750.0313,1887.6543 Q2749.4219,1887.6543 2749.1563,1887.4199 Q2748.8906,1887.1855 2748.8906,1886.7949 Q2748.8906,1886.4199 2749.1563,1886.1855 Q2749.4219,1885.9512 2750.0313,1885.9512 L2755.1719,1885.9512 Q2755.7813,1885.9512 2756.0469,1886.1855 Q2756.3125,1886.4199 2756.3125,1886.7949 Q2756.3125,1887.1855 2756.0469,1887.4199 Q2755.7813,1887.6543 2755.1719,1887.6543 L2753.4531,1887.6543 Z " fill="#000000"/><text fill="#000000" font-family="sans-serif" font-size="14" font-style="italic" lengthAdjust="spacing" textLength="75" x="2766.5" y="1896.8105">KeyListener</text><line style="stroke:#181818;stroke-width:0.5;" x1="2738.5" x2="2843.5" y1="1907.0137" y2="1907.0137"/><line style="stroke:#181818;stroke-width:0.5;" x1="2738.5" x2="2843.5" y1="1915.0137" y2="1915.0137"/></g><!--link presentacion to logica--><g id="link_presentacion_logica"><path codeLine="182" d="M1420.0369,167.4688 C1420.3498,168.8491 1420.6696,170.2599 1420.9959,171.6995 C1426.2175,194.7327 1433.1087,225.1293 1440,255.5249 C1446.8913,285.9205 1453.7825,316.3152 1459.0041,339.3448 C1459.3304,340.7841 1459.6502,342.1947 1459.9631,343.5747 " fill="none" id="presentacion-to-logica" style="stroke:#181818;stroke-width:1.0;stroke-dasharray:7.0,7.0;"/><polygon fill="#181818" points="1459.9631,343.5747,1461.874,333.913,1458.8575,338.6985,1454.072,335.682,1459.9631,343.5747" style="stroke:#181818;stroke-width:1.0;"/></g><!--link Blinky to Fantasma--><g id="link_Blinky_Fantasma"><path codeLine="185" d="M1752.85,707.6437 C1762.66,727.8337 1777.99,757.6437 1794,782.0137 C1807.74,802.9437 1823.28,824.3937 1838.99,844.9437 " fill="none" id="Blinky-to-Fantasma" style="stroke:#181818;stroke-width:1.0;"/><polygon fill="none" points="1844.59,840.7437,1851.31,860.8337,1833.52,849.3137,1844.59,840.7437" style="stroke:#181818;stroke-width:1.0;"/></g><!--link Pinky to Fantasma--><g id="link_Pinky_Fantasma"><path codeLine="186" d="M1852.94,707.7137 C1863.09,737.3837 1881.45,791.0437 1898.87,841.9737 " fill="none" id="Pinky-to-Fantasma" style="stroke:#181818;stroke-width:1.0;"/><polygon fill="none" points="1905.51,839.7337,1905.36,860.9237,1892.26,844.2737,1905.51,839.7337" style="stroke:#181818;stroke-width:1.0;"/></g><!--link Inky to Fantasma--><g id="link_Inky_Fantasma"><path codeLine="187" d="M1942,707.7137 C1942,737.1237 1942,790.1037 1942,840.6237 " fill="none" id="Inky-to-Fantasma" style="stroke:#181818;stroke-width:1.0;"/><polygon fill="none" points="1949,840.9237,1942,860.9237,1935,840.9237,1949,840.9237" style="stroke:#181818;stroke-width:1.0;"/></g><!--link Clyde to Fantasma--><g id="link_Clyde_Fantasma"><path codeLine="188" d="M2031.98,707.7137 C2021.72,737.3837 2003.17,791.0437 1985.57,841.9737 " fill="none" id="Clyde-to-Fantasma" style="stroke:#181818;stroke-width:1.0;"/><polygon fill="none" points="1992.17,844.3137,1979.02,860.9237,1978.94,839.7337,1992.17,844.3137" style="stroke:#181818;stroke-width:1.0;"/></g><!--link Fantasma to Jugador--><g id="link_Fantasma_Jugador"><path codeLine="189" d="M2021.25,1077.3337 C2039,1101.3737 2057.95,1127.0337 2076.06,1151.5637 " fill="none" id="Fantasma-to-Jugador" style="stroke:#181818;stroke-width:1.0;"/><polygon fill="#181818" points="2079.2,1155.8137,2077.0605,1146.2,2076.2252,1151.7949,2070.6304,1150.9596,2079.2,1155.8137" style="stroke:#181818;stroke-width:1.0;"/><text fill="#000000" font-family="sans-serif" font-size="13" lengthAdjust="spacing" textLength="42" x="2055" y="1122.042">jugador</text><text fill="#000000" font-family="sans-serif" font-size="13" lengthAdjust="spacing" textLength="7" x="2066.4792" y="1144.7919">1</text></g><!--link Personaje to Laberinto--><g id="link_Personaje_Laberinto"><path codeLine="190" d="M2000.71,1740.6637 C2013.62,1746.9437 2026.44,1753.0937 2039,1759.0137 C2094.73,1785.2737 2156.69,1812.5437 2211.2,1835.9137 " fill="none" id="Personaje-to-Laberinto" style="stroke:#181818;stroke-width:1.0;"/><polygon fill="#181818" points="2216.11,1838.0137,2209.4134,1830.7918,2211.5143,1836.0441,2206.262,1838.145,2216.11,1838.0137" style="stroke:#181818;stroke-width:1.0;"/></g><!--link Personaje to Tecla--><g id="link_Personaje_Tecla"><path codeLine="191" d="M1757,1740.7937 C1757,1772.6137 1757,1805.5137 1757,1832.9437 " fill="none" id="Personaje-to-Tecla" style="stroke:#181818;stroke-width:1.0;"/><polygon fill="#181818" points="1757,1837.9937,1761,1828.9937,1757,1832.9937,1753,1828.9937,1757,1837.9937" style="stroke:#181818;stroke-width:1.0;"/><text fill="#000000" font-family="sans-serif" font-size="13" lengthAdjust="spacing" textLength="52" x="1758" y="1804.042">direcci&#243;n</text><text fill="#000000" font-family="sans-serif" font-size="13" lengthAdjust="spacing" textLength="7" x="1749.5734" y="1826.5375">1</text></g><!--link Personaje to Runnable--><g id="link_Personaje_Runnable"><path codeLine="192" d="M1926.75,1487.4037 C1967.31,1463.5637 2011.84,1442.1637 2056.5,1429.5137 C2123.96,1410.4037 2627.53,1393.2037 2687.5,1429.5137 C2737.72,1459.9237 2763.06,1526.0137 2774.88,1570.2637 " fill="none" id="Personaje-to-Runnable" style="stroke:#181818;stroke-width:1.0;stroke-dasharray:7.0,7.0;"/><polygon fill="none" points="2781.75,1568.9037,2779.64,1589.9837,2768.14,1572.1937,2781.75,1568.9037" style="stroke:#181818;stroke-width:1.0;"/></g><!--link Jugador to ArchivoManager--><g id="link_Jugador_ArchivoManager"><path codeLine="193" d="M2272.96,1390.2037 C2295.37,1414.3137 2319.27,1440.0337 2342.57,1465.1137 " fill="none" id="Jugador-to-ArchivoManager" style="stroke:#181818;stroke-width:1.0;"/><polygon fill="#181818" points="2346,1468.8037,2342.8015,1459.4886,2342.5956,1465.1417,2336.9424,1464.9358,2346,1468.8037" style="stroke:#181818;stroke-width:1.0;"/></g><!--link Jugador to DetectorTeclas--><g id="link_Jugador_DetectorTeclas"><path codeLine="194" d="M2165,1390.2037 C2165,1450.5537 2165,1520.9437 2165,1566.1937 " fill="none" id="Jugador-to-DetectorTeclas" style="stroke:#181818;stroke-width:1.0;"/><polygon fill="#181818" points="2165,1571.3137,2169,1562.3137,2165,1566.3137,2161,1562.3137,2165,1571.3137" style="stroke:#181818;stroke-width:1.0;"/><text fill="#000000" font-family="sans-serif" font-size="13" lengthAdjust="spacing" textLength="53" x="2166" y="1435.042">controles</text><text fill="#000000" font-family="sans-serif" font-size="13" lengthAdjust="spacing" textLength="7" x="2157.4422" y="1560.1859">1</text></g><!--link Jugador to Personaje--><g id="link_Jugador_Personaje"><path codeLine="195" d="M2042.86,1375.4937 C2005.47,1406.5637 1963.69,1441.2837 1923.86,1474.3737 " fill="none" id="Jugador-to-Personaje" style="stroke:#181818;stroke-width:1.0;"/><polygon fill="none" points="1928.26,1479.8137,1908.41,1487.2137,1919.31,1469.0437,1928.26,1479.8137" style="stroke:#181818;stroke-width:1.0;"/></g><!--link Fantasma to Personaje--><g id="link_Fantasma_Personaje"><path codeLine="196" d="M1911.14,1077.2737 C1880.37,1184.2337 1832.89,1349.2437 1798.76,1467.8737 " fill="none" id="Fantasma-to-Personaje" style="stroke:#181818;stroke-width:1.0;"/><polygon fill="none" points="1805.45,1469.9437,1793.19,1487.2337,1791.99,1466.0737,1805.45,1469.9437" style="stroke:#181818;stroke-width:1.0;"/></g><!--link DetectorTeclas to KeyListener--><g id="link_DetectorTeclas_KeyListener"><path codeLine="197" d="M2189.85,1656.5637 C2211.91,1689.6737 2247.24,1734.4137 2290,1759.0137 C2452.75,1852.6337 2531.97,1765.1337 2705,1838.0137 C2719.93,1844.3037 2734.88,1853.4737 2748.02,1862.7537 " fill="none" id="DetectorTeclas-to-KeyListener" style="stroke:#181818;stroke-width:1.0;stroke-dasharray:7.0,7.0;"/><polygon fill="none" points="2752.29,1857.2137,2764.11,1874.7937,2743.9,1868.4137,2752.29,1857.2137" style="stroke:#181818;stroke-width:1.0;"/></g><!--link Nivel to Jugador--><g id="link_Nivel_Jugador"><path codeLine="198" d="M2229.2,782.1837 C2215.94,883.3637 2195.19,1041.6437 2180.89,1150.7537 " fill="none" id="Nivel-to-Jugador" style="stroke:#181818;stroke-width:1.0;"/><polygon fill="#181818" points="2180.22,1155.9137,2185.3442,1147.5028,2180.863,1150.9552,2177.4107,1146.474,2180.22,1155.9137" style="stroke:#181818;stroke-width:1.0;"/><text fill="#000000" font-family="sans-serif" font-size="13" lengthAdjust="spacing" textLength="42" x="2220" y="974.542">jugador</text><text fill="#000000" font-family="sans-serif" font-size="13" lengthAdjust="spacing" textLength="7" x="2173.9708" y="1144.8983">1</text></g><!--link Nivel to Fantasma--><g id="link_Nivel_Fantasma"><path codeLine="199" d="M2138.76,782.0737 C2113.15,806.2737 2085.53,832.3837 2059.3,857.1637 " fill="none" id="Nivel-to-Fantasma" style="stroke:#181818;stroke-width:1.0;"/><polygon fill="#181818" points="2055.45,860.8037,2064.7389,857.53,2059.0843,857.3697,2059.2445,851.7151,2055.45,860.8037" style="stroke:#181818;stroke-width:1.0;"/><text fill="#000000" font-family="sans-serif" font-size="13" lengthAdjust="spacing" textLength="60" x="2102" y="827.042">fantasmas</text><text fill="#000000" font-family="sans-serif" font-size="13" lengthAdjust="spacing" textLength="7" x="2056.1809" y="849.6505">4</text></g><!--link Nivel to Laberinto--><g id="link_Nivel_Laberinto"><path codeLine="200" d="M2316.29,782.0337 C2419.31,924.0337 2600.58,1200.2137 2669,1469.0137 C2700.79,1593.9237 2738.99,1650.7837 2669,1759.0137 C2633.97,1813.1837 2572.25,1846.4537 2513.13,1866.7837 " fill="none" id="Nivel-to-Laberinto" style="stroke:#181818;stroke-width:1.0;"/><polygon fill="#181818" points="2508.15,1868.4637,2517.9589,1869.3505,2512.8833,1866.8526,2515.3812,1861.7771,2508.15,1868.4637" style="stroke:#181818;stroke-width:1.0;"/><text fill="#000000" font-family="sans-serif" font-size="13" lengthAdjust="spacing" textLength="49" x="2647" y="1278.542">laberinto</text><text fill="#000000" font-family="sans-serif" font-size="13" lengthAdjust="spacing" textLength="7" x="2515.9695" y="1863.4735">1</text></g><!--link Nivel to Dificultad--><g id="link_Nivel_Dificultad"><path codeLine="201" d="M2374.71,683.5137 C2384.68,683.5137 2394.65,683.5137 2404.62,683.5137 " fill="none" id="Nivel-to-Dificultad" style="stroke:#181818;stroke-width:1.0;"/><polygon fill="#181818" points="2409.84,683.5137,2400.84,679.5137,2404.84,683.5137,2400.84,687.5137,2409.84,683.5137" style="stroke:#181818;stroke-width:1.0;"/></g><!--link PacMan to Nivel--><g id="link_PacMan_Nivel"><path codeLine="202" d="M2242,432.1637 C2242,472.5237 2242,530.1337 2242,579.9137 " fill="none" id="PacMan-to-Nivel" style="stroke:#181818;stroke-width:1.0;"/><polygon fill="#181818" points="2242,585.0137,2246,576.0137,2242,580.0137,2238,576.0137,2242,585.0137" style="stroke:#181818;stroke-width:1.0;"/><text fill="#000000" font-family="sans-serif" font-size="13" lengthAdjust="spacing" textLength="39" x="2243" y="551.042">niveles</text><text fill="#000000" font-family="sans-serif" font-size="13" lengthAdjust="spacing" textLength="5" x="2236.8086" y="573.8621">*</text></g><!--link InterfazGraficaDeFantasma to InterfazGrafica--><g id="link_InterfazGraficaDeFantasma_InterfazGrafica"><path codeLine="205" d="M1004.07,192.1237 C987.85,224.6837 967.62,265.3037 950.17,300.3537 " fill="none" id="InterfazGraficaDeFantasma-to-InterfazGrafica" style="stroke:#181818;stroke-width:1.0;"/><polygon fill="none" points="956.25,303.8537,941.07,318.6337,943.72,297.6137,956.25,303.8537" style="stroke:#181818;stroke-width:1.0;"/></g><!--link InterfazGraficaDelMarco to InterfazGrafica--><g id="link_InterfazGraficaDelMarco_InterfazGrafica"><path codeLine="206" d="M664.2,202.0737 C721.38,232.7437 776.91,262.7837 783,267.0137 C799.64,278.5737 816.56,291.9837 832.41,305.4237 " fill="none" id="InterfazGraficaDelMarco-to-InterfazGrafica" style="stroke:#181818;stroke-width:1.0;"/><polygon fill="none" points="837.32,300.4137,847.86,318.8037,828.16,310.9937,837.32,300.4137" style="stroke:#181818;stroke-width:1.0;"/></g><!--link InterfazGraficaDeJugador to InterfazGrafica--><g id="link_InterfazGraficaDeJugador_InterfazGrafica"><path codeLine="207" d="M806.82,155.2537 C822.17,188.2237 851.02,250.1937 874.48,300.5737 " fill="none" id="InterfazGraficaDeJugador-to-InterfazGrafica" style="stroke:#181818;stroke-width:1.0;"/><polygon fill="none" points="880.91,297.7937,883,318.8837,868.22,303.7037,880.91,297.7937" style="stroke:#181818;stroke-width:1.0;"/></g><!--link InterfazGraficaDeLaberinto to InterfazGrafica--><g id="link_InterfazGraficaDeLaberinto_InterfazGrafica"><path codeLine="208" d="M1214.5,173.6337 C1160.5,210.1737 1080.8,264.1137 1016.61,307.5437 " fill="none" id="InterfazGraficaDeLaberinto-to-InterfazGrafica" style="stroke:#181818;stroke-width:1.0;"/><polygon fill="none" points="1020.3,313.5037,999.81,318.9137,1012.45,301.9137,1020.3,313.5037" style="stroke:#181818;stroke-width:1.0;"/></g><!--link InterfazGraficaDeLaberinto to Runnable--><g id="link_InterfazGraficaDeLaberinto_Runnable"><path codeLine="209" d="M1318.96,173.6237 C1336.73,188.2037 1358.45,202.9437 1381,211.0137 C1519.63,260.6237 2583.19,184.2837 2705,267.0137 C2750.1,297.6437 2755,324.5037 2755,379.0137 C2755,379.0137 2755,379.0137 2755,1274.0137 C2755,1380.4837 2769.38,1505.0837 2777.89,1569.5037 " fill="none" id="InterfazGraficaDeLaberinto-to-Runnable" style="stroke:#181818;stroke-width:1.0;stroke-dasharray:7.0,7.0;"/><polygon fill="none" points="2784.87,1568.8837,2780.62,1589.6437,2770.99,1570.7637,2784.87,1568.8837" style="stroke:#181818;stroke-width:1.0;"/></g><!--link MenuPacMan to Puntuacion--><g id="link_MenuPacMan_Puntuacion"><path codeLine="210" d="M252.9,173.6337 C232.2,209.3937 201.85,261.8137 177,304.7437 " fill="none" id="MenuPacMan-to-Puntuacion" style="stroke:#181818;stroke-width:1.0;"/><polygon fill="#181818" points="174.46,309.1337,182.4393,303.3604,176.9714,304.8101,175.5216,299.3422,174.46,309.1337" style="stroke:#181818;stroke-width:1.0;"/><text fill="#000000" font-family="sans-serif" font-size="13" lengthAdjust="spacing" textLength="7" x="171.0983" y="298.3572">1</text></g><!--link MenuPacMan to InterfazGrafica--><g id="link_MenuPacMan_InterfazGrafica"><path codeLine="211" d="M322.9,173.7137 C340.78,187.7637 362.2,202.1137 384,211.0137 C549.78,278.7137 620.17,192.5037 783,267.0137 C808.4,278.6337 832.51,296.9637 852.82,315.4637 " fill="none" id="MenuPacMan-to-InterfazGrafica" style="stroke:#181818;stroke-width:1.0;"/><polygon fill="#181818" points="856.56,318.9137,852.638,309.8794,852.8778,315.5312,847.226,315.7709,856.56,318.9137" style="stroke:#181818;stroke-width:1.0;"/><text fill="#000000" font-family="sans-serif" font-size="13" lengthAdjust="spacing" textLength="5" x="844.9763" y="307.8833">*</text></g><!--link MenuPacMan to ContenedorPacMan--><g id="link_MenuPacMan_ContenedorPacMan"><path codeLine="212" d="M326.24,173.5137 C343.69,186.7937 363.98,200.7137 384,211.0137 C455.48,247.8037 487.28,225.2937 556,267.0137 C560.63,269.8237 565.22,272.8637 569.74,276.0637 " fill="none" id="MenuPacMan-to-ContenedorPacMan" style="stroke:#181818;stroke-width:1.0;"/><polygon fill="#181818" points="573.88,279.0537,568.9237,270.5428,569.8259,276.1273,564.2414,277.0295,573.88,279.0537" style="stroke:#181818;stroke-width:1.0;"/><text fill="#000000" font-family="sans-serif" font-size="13" lengthAdjust="spacing" textLength="7" x="558.9415" y="267.3873">1</text></g><!--link MenuPacMan to Sonido--><g id="link_MenuPacMan_Sonido"><path codeLine="213" d="M298.74,173.6337 C312.24,199.4937 330.3,234.0637 347.74,267.4537 " fill="none" id="MenuPacMan-to-Sonido" style="stroke:#181818;stroke-width:1.0;"/><polygon fill="#181818" points="350.08,271.9437,349.4697,262.1137,347.7701,267.5092,342.3746,265.8096,350.08,271.9437" style="stroke:#181818;stroke-width:1.0;"/><text fill="#000000" font-family="sans-serif" font-size="13" lengthAdjust="spacing" textLength="7" x="338.902" y="260.8003">1</text></g><!--SRC=[bLZDSjis4BxhAJZEeN9jUTfCJvgEPsIHhkbAjYfBITjCnWEHAnas2R0WgOwTvYbwwslqrgjVh0iI904IT1mVuXYxMEpljv-KaE21xC29-8u6nFaqSF27RD9Ca21pWeYagRC0aN96xa69vSyR9-4f3UZpl-nNP-nGbjb4ltL48HKG538KtMI2ifrLwiVebKNdo46_SXBH9oA6XoZVSnfgKf4psp6a6PdoYAOK0s4XBtGsd4T0cAQMmYA74EPy3sBOE7ELmvxKljYlDjfUEkKCyoSeqMnC2hTh8yVErvcFfKif32tvEtRs4F60XYGiqzqJ_oIY38Wbzi-sefyJbf4q9aRDjN1O1e9oOQlYEszsFVNTYNjxiSPVhHuuSX8PoIwdrWBUzPppJGOCn1pkkN1BDpWR1ZpAOqQqN6nfPEPo1HXGrv1RXxAK3H4FhR4LbxjMHdPtBd8imh2h_gRJVzWXb_aEYo5wEl5JLOxFPUaNNAWnZ6IXpGoL1IphfingPHivp_z56Os9-yBiZPmanuBZZ9lLmdF-9puFKGIPnTEHuwwNawd__FVLxUBwlRUyNNYpcRVgc549ypE8k-LjyidtDAR0ih9BEqusm__yJoicMzDaQ0eMJG0zoHP04e9sSEWFEpRmIRedect5clo92Exediy9G_GIUWb8AS6BvpG2JH2IZASkHEhg66q8yZYZQVPZ6VrfgqOvaQq6gQw9gTRL80q4pRYeRSett-CH22smNKv4ICGLZpS2XgpurSoHQeS-G56N5rAhc4IZVQm8X3vjQ7dZ7eOHrZdhDHy1LDxBalJdf9xd2xgxkmauHdBOnXikGc2ajlTYf5tSAI-xiaoMxgYII163Xqp-EtQAFxgg0H6xIlDGQNKwQ47PmwCQNltyBEeHJAF742pdlbrzHZQ8RJXV1a34sFzbvJvy_F1H4vG-I_4m8TdT5Od10DTsDY1xHo8kvlA2Gc8qUkmqEAtgRLOe8F664b7SdNptkfjwL2va46335x2RQg4TlKWuZfm7U5mz9X0EPLW_mwEtXrO_wiyK9JCI5z8j3V8e8-7OSUl_6mfgDypB57SGBU1nWfY2c6r5rvJYeaIVe7nRRvjIuRx4-t45_5fmb24Bgpeka9m4hIDkcDawr9C5nInP-XoX8wQipRcCpYK1ufwHdM8Uv8k52rfZ8HomY3mfto2rCZdG_OTc-BINWUMnbdVjyNFSIRFZ-i-vv_gJva_NF_SDkJzVND_uPpElRRp8aMPtibpwPvgboTdaybepx2szwOKczt__PUrxItVIDYmNeMPtCPdUkjUhvgA-J9lJy-LwLPdwF1WaYhqd0b9GI6pdyBxaD5loz9CWsuReAxfEMD5Q2_aRLz5b3ZjkZD0clyVIxzwY4Xf8xcYGldLVpxwhtLzm-luEQldeWeM3ZfojEiIsgkJwl2HopQK54nixP_bs2mB2ucK3s1eYOIC4-cUCrphR4AylwqPpv0FyKtUCdUuSZvoenknnWz-Qd1PvnVcBaNVSF529T4RaUlPo2IQbhYGZl8N34kxF2nrR8KjvMKT8NvyRszQH7mH8df8ksXH0b5g4-XjpdA8Ev1p9TS7HopEUSSQjkA8ql8p-aIFkfltzA3_6OPnO30ksrNZgj05Ltwle9CeRNzlWQ07qZNHz2JiSQLdmoqsUuK4NreU60MkWR8lRGwXiM40TUI_BGsB3-pBxLI6_Ji7O2ZLZTInqkCE6NshFCftMRBOxj-Djp2KQ5kIp9j2zFjzmHaEJ8AN5aQprUZap6L94ap6oC9eOgHS2XCTcd2V3FYPOFfDQSokiHH6G21xc0HNULZRS2tkwD2uLkkYcuBXwNyKsLd4RX42fhaMaQFCa3ocl6M2HZiv2LdQq1CwzgxMsZDVUSkLfgswoNFcklZIlS3jVttREovsuNZGBa9Rz5u2pp1aZ6socvWZvdFpC80CO3BvPGgGAZrvc0fScaG00wS3OdYSdf-hBCFEEqgvaYe-FHd-TDcjeOJdpkqSbPJVFwbKt6fqw1zyVr9_ZnzLg63HVmqcTPX6Ov_9kILh66lVLb4xmsJfPrIlofldXrH19eosEFMuGK5D5s_LBUap6USlIYVH8hrL9TViJeSb_E6Y-g1etrA1bOgOjq7gPLZgdEd5NG5zS_FR0gKYt8hBsZcZQHoQwdyGKMMY91ptKu9NAHkA_gDsauMlrJuocqLPlbU46vZjIJ6Fx9Ok1zgwrwPIuClWV]--></g></svg>