<?xml version="1.0" encoding="UTF-8" standalone="no"?><svg xmlns="http://www.w3.org/2000/svg" xmlns:xlink="http://www.w3.org/1999/xlink" contentStyleType="text/css" height="446.7px" preserveAspectRatio="none" style="width:627px;height:446px;background:#FFFFFF;" version="1.1" viewBox="0 0 627 446" width="627.3px" zoomAndPan="magnify"><defs/><g><!--cluster logica--><g id="cluster_logica"><path d="M363.15,45.3 L376.05,45.3 A1.125,1.125 0 0 1 376.8,46.05 L378.9,51.7922 L623.85,51.7922 A0.75,0.75 0 0 1 624.6,52.5422 L624.6,444 A0.75,0.75 0 0 1 623.85,444.75 L363.15,444.75 A0.75,0.75 0 0 1 362.4,444 L362.4,46.05 A0.75,0.75 0 0 1 363.15,45.3 " fill="none" style="stroke:#000000;stroke-width:0.44999999999999996;"/><line style="stroke:#000000;stroke-width:0.44999999999999996;" x1="362.4" x2="378.9" y1="51.7922" y2="51.7922"/><text fill="#000000" font-family="sans-serif" font-size="4.2" font-weight="bold" lengthAdjust="spacing" textLength="12.6" x="363.6" y="49.7021">logica</text></g><!--cluster presentacion--><g id="cluster_presentacion"><path d="M2.55,1.8 L30.75,1.8 A1.125,1.125 0 0 1 31.5,2.55 L33.6,8.2922 L349.65,8.2922 A0.75,0.75 0 0 1 350.4,9.0422 L350.4,139.5 A0.75,0.75 0 0 1 349.65,140.25 L2.55,140.25 A0.75,0.75 0 0 1 1.8,139.5 L1.8,2.55 A0.75,0.75 0 0 1 2.55,1.8 " fill="none" style="stroke:#000000;stroke-width:0.44999999999999996;"/><line style="stroke:#000000;stroke-width:0.44999999999999996;" x1="1.8" x2="33.6" y1="8.2922" y2="8.2922"/><text fill="#000000" font-family="sans-serif" font-size="4.2" font-weight="bold" lengthAdjust="spacing" textLength="27.9" x="3" y="6.2021">presentacion</text></g><!--class Personaje--><g id="elem_Personaje"><rect codeLine="3" fill="#F1F1F1" height="66.0141" id="Personaje" rx="0.75" ry="0.75" style="stroke:#181818;stroke-width:0.15;" width="159" x="447.3" y="315.45"/><ellipse cx="515.925" cy="320.25" fill="#A9DCDF" rx="3.3" ry="3.3" style="stroke:#181818;stroke-width:0.3;"/><path d="M516.5813,320.7797 L515.3391,320.7797 L515.2125,321.0891 L515.3391,321.0891 Q515.5219,321.0891 515.6016,321.1594 Q515.6813,321.2297 515.6813,321.3469 Q515.6813,321.4594 515.6016,321.5297 Q515.5219,321.6 515.3391,321.6 L514.65,321.6 Q514.4672,321.6 514.3922,321.5297 Q514.3125,321.4594 514.3125,321.3422 Q514.3125,321.2297 514.3969,321.1594 Q514.4766,321.0844 514.6641,321.0891 L515.4656,319.0922 L515.1328,319.0922 Q514.95,319.0922 514.8703,319.0219 Q514.7906,318.9516 514.7906,318.8344 Q514.7906,318.7219 514.8703,318.6516 Q514.95,318.5813 515.1328,318.5813 L516.2344,318.5813 L517.2516,321.0891 Q517.4297,321.0891 517.4859,321.1312 Q517.6031,321.2109 517.6031,321.3469 Q517.6031,321.4594 517.5234,321.5297 Q517.4484,321.6 517.2656,321.6 L516.5766,321.6 Q516.3938,321.6 516.3141,321.5297 Q516.2344,321.4594 516.2344,321.3422 Q516.2344,321.2297 516.3141,321.1594 Q516.3938,321.0891 516.5766,321.0891 L516.7031,321.0891 L516.5813,320.7797 Z M516.3656,320.2688 L515.9578,319.2562 L515.5453,320.2688 L516.3656,320.2688 Z " fill="#000000"/><text fill="#000000" font-family="sans-serif" font-size="4.2" font-style="italic" lengthAdjust="spacing" textLength="19.2" x="522.075" y="321.7061">Personaje</text><line style="stroke:#181818;stroke-width:0.15;" x1="447.6" x2="606" y1="325.05" y2="325.05"/><polygon fill="none" points="450.6,327.5461,451.8,328.7461,450.6,329.9461,449.4,328.7461" style="stroke:#B38D22;stroke-width:0.3;"/><text fill="#000000" font-family="sans-serif" font-size="4.2" lengthAdjust="spacing" textLength="26.1" x="453.3" y="330.0521">posiciónX : int</text><polygon fill="none" points="450.6,332.2383,451.8,333.4383,450.6,334.6383,449.4,333.4383" style="stroke:#B38D22;stroke-width:0.3;"/><text fill="#000000" font-family="sans-serif" font-size="4.2" lengthAdjust="spacing" textLength="26.4" x="453.3" y="334.7443">posiciónY : int</text><polygon fill="none" points="450.6,336.9305,451.8,338.1305,450.6,339.3305,449.4,338.1305" style="stroke:#B38D22;stroke-width:0.3;"/><text fill="#000000" font-family="sans-serif" font-size="4.2" lengthAdjust="spacing" textLength="31.8" x="453.3" y="339.4365">dirección : String</text><polygon fill="none" points="450.6,341.6227,451.8,342.8227,450.6,344.0227,449.4,342.8227" style="stroke:#B38D22;stroke-width:0.3;"/><text fill="#000000" font-family="sans-serif" font-size="4.2" lengthAdjust="spacing" textLength="45.6" x="453.3" y="344.1287">direcciónImagen : String</text><line style="stroke:#181818;stroke-width:0.15;" x1="447.6" x2="606" y1="346.2188" y2="346.2188"/><ellipse cx="450.6" cy="350.2148" fill="#84BE84" rx="0.9" ry="0.9" style="stroke:#038048;stroke-width:0.3;"/><text fill="#000000" font-family="sans-serif" font-size="4.2" lengthAdjust="spacing" textLength="32.4" x="453.3" y="351.2209">actualizar() : void</text><ellipse cx="450.6" cy="354.907" fill="#84BE84" rx="0.9" ry="0.9" style="stroke:#038048;stroke-width:0.3;"/><text fill="#000000" font-family="sans-serif" font-size="4.2" lengthAdjust="spacing" textLength="20.7" x="453.3" y="355.9131">run() : void</text><ellipse cx="450.6" cy="359.5992" fill="#84BE84" rx="0.9" ry="0.9" style="stroke:#038048;stroke-width:0.3;"/><text fill="#000000" font-family="sans-serif" font-size="4.2" lengthAdjust="spacing" textLength="54.6" x="453.3" y="360.6053">estaColisionando() : boolean</text><ellipse cx="450.6" cy="364.2914" fill="#84BE84" rx="0.9" ry="0.9" style="stroke:#038048;stroke-width:0.3;"/><text fill="#000000" font-family="sans-serif" font-size="4.2" lengthAdjust="spacing" textLength="94.2" x="453.3" y="365.2975">sePuedeMover(direcciónNueva : String) : boolean</text><ellipse cx="450.6" cy="368.9836" fill="#84BE84" rx="0.9" ry="0.9" style="stroke:#038048;stroke-width:0.3;"/><text fill="#000000" font-family="sans-serif" font-size="4.2" lengthAdjust="spacing" textLength="151.2" x="453.3" y="369.9896">direcciónEsContraria(direcciónActual : String, direcciónNueva : String) : boolean</text><ellipse cx="450.6" cy="373.6758" fill="#84BE84" rx="0.9" ry="0.9" style="stroke:#038048;stroke-width:0.3;"/><text fill="#000000" font-family="sans-serif" font-size="4.2" lengthAdjust="spacing" textLength="90.9" x="453.3" y="374.6818">moverse(dirección : String, velocidad : int) : void</text><ellipse cx="450.6" cy="378.368" fill="#84BE84" rx="0.9" ry="0.9" style="stroke:#038048;stroke-width:0.3;"/><text fill="#000000" font-family="sans-serif" font-size="4.2" lengthAdjust="spacing" textLength="46.5" x="453.3" y="379.374">estaAlineado() : boolean</text></g><!--class Fantasma--><g id="elem_Fantasma"><rect codeLine="16" fill="#F1F1F1" height="56.6297" id="Fantasma" rx="0.75" ry="0.75" style="stroke:#181818;stroke-width:0.15;" width="120.9" x="398.55" y="161.25"/><ellipse cx="448.275" cy="166.05" fill="#A9DCDF" rx="3.3" ry="3.3" style="stroke:#181818;stroke-width:0.3;"/><path d="M448.9313,166.5797 L447.6891,166.5797 L447.5625,166.8891 L447.6891,166.8891 Q447.8719,166.8891 447.9516,166.9594 Q448.0313,167.0297 448.0313,167.1469 Q448.0313,167.2594 447.9516,167.3297 Q447.8719,167.4 447.6891,167.4 L447,167.4 Q446.8172,167.4 446.7422,167.3297 Q446.6625,167.2594 446.6625,167.1422 Q446.6625,167.0297 446.7469,166.9594 Q446.8266,166.8844 447.0141,166.8891 L447.8156,164.8922 L447.4828,164.8922 Q447.3,164.8922 447.2203,164.8219 Q447.1406,164.7516 447.1406,164.6344 Q447.1406,164.5219 447.2203,164.4516 Q447.3,164.3813 447.4828,164.3813 L448.5844,164.3813 L449.6016,166.8891 Q449.7797,166.8891 449.8359,166.9313 Q449.9531,167.0109 449.9531,167.1469 Q449.9531,167.2594 449.8734,167.3297 Q449.7984,167.4 449.6156,167.4 L448.9266,167.4 Q448.7438,167.4 448.6641,167.3297 Q448.5844,167.2594 448.5844,167.1422 Q448.5844,167.0297 448.6641,166.9594 Q448.7438,166.8891 448.9266,166.8891 L449.0531,166.8891 L448.9313,166.5797 Z M448.7156,166.0688 L448.3078,165.0563 L447.8953,166.0688 L448.7156,166.0688 Z " fill="#000000"/><text fill="#000000" font-family="sans-serif" font-size="4.2" font-style="italic" lengthAdjust="spacing" textLength="18.9" x="454.425" y="167.5061">Fantasma</text><line style="stroke:#181818;stroke-width:0.15;" x1="398.85" x2="519.15" y1="170.85" y2="170.85"/><polygon fill="none" points="401.85,173.3461,403.05,174.5461,401.85,175.7461,400.65,174.5461" style="stroke:#B38D22;stroke-width:0.3;"/><text fill="#000000" font-family="sans-serif" font-size="4.2" lengthAdjust="spacing" textLength="46.8" x="404.55" y="175.8521">direcciónAnterior : String</text><polygon fill="none" points="401.85,178.0383,403.05,179.2383,401.85,180.4383,400.65,179.2383" style="stroke:#B38D22;stroke-width:0.3;"/><text fill="#000000" font-family="sans-serif" font-size="4.2" lengthAdjust="spacing" textLength="46.2" x="404.55" y="180.5443">VELOCIDAD_HUIDA : int</text><line style="stroke:#181818;stroke-width:0.15;" x1="398.85" x2="519.15" y1="182.6344" y2="182.6344"/><ellipse cx="401.85" cy="186.6305" fill="#84BE84" rx="0.9" ry="0.9" style="stroke:#038048;stroke-width:0.3;"/><text fill="#000000" font-family="sans-serif" font-size="4.2" lengthAdjust="spacing" textLength="32.4" x="404.55" y="187.6365">perseguir() : void</text><ellipse cx="401.85" cy="191.3227" fill="#84BE84" rx="0.9" ry="0.9" style="stroke:#038048;stroke-width:0.3;"/><text fill="#000000" font-family="sans-serif" font-size="4.2" lengthAdjust="spacing" textLength="21.6" x="404.55" y="192.3287">huir() : void</text><ellipse cx="401.85" cy="196.0148" fill="#84BE84" rx="0.9" ry="0.9" style="stroke:#038048;stroke-width:0.3;"/><text fill="#000000" font-family="sans-serif" font-size="4.2" lengthAdjust="spacing" textLength="113.1" x="404.55" y="197.0209">obtenerMejorDireccion(columna : String, fila : String) : Tecla</text><ellipse cx="401.85" cy="200.707" fill="#84BE84" rx="0.9" ry="0.9" style="stroke:#038048;stroke-width:0.3;"/><text fill="#000000" font-family="sans-serif" font-size="4.2" lengthAdjust="spacing" textLength="111.6" x="404.55" y="201.7131">obtenerDirecciónRandom(direcciónAnterior : Tecla) : Tecla</text><rect fill="#F24D5C" height="1.8" style="stroke:#C82930;stroke-width:0.3;" width="1.8" x="400.95" y="204.4992"/><text fill="#000000" font-family="sans-serif" font-size="4.2" lengthAdjust="spacing" textLength="70.8" x="404.55" y="206.4053">obtenerMejorDireccionHuida() : Tecla</text><polygon fill="#FFFF44" points="401.85,208.5914,403.05,209.7914,401.85,210.9914,400.65,209.7914" style="stroke:#B38D22;stroke-width:0.3;"/><text fill="#000000" font-family="sans-serif" font-size="4.2" lengthAdjust="spacing" textLength="77.7" x="404.55" y="211.0975">estaColisionandoConJugador() : boolean</text><ellipse cx="401.85" cy="214.7836" fill="#84BE84" rx="0.9" ry="0.9" style="stroke:#038048;stroke-width:0.3;"/><text fill="#000000" font-family="sans-serif" font-size="4.2" font-style="italic" lengthAdjust="spacing" textLength="57" x="404.55" y="215.7896">moverPorPersonalidad() : void</text></g><!--class Jugador--><g id="elem_Jugador"><rect codeLine="27" fill="#F1F1F1" height="51.9375" id="Jugador" rx="0.75" ry="0.75" style="stroke:#181818;stroke-width:0.15;" width="73.2" x="429.9" y="240.75"/><ellipse cx="457.575" cy="245.55" fill="#ADD1B2" rx="3.3" ry="3.3" style="stroke:#181818;stroke-width:0.3;"/><path d="M458.4047,244.3125 Q458.4516,244.2469 458.5078,244.2141 Q458.5641,244.1812 458.6297,244.1812 Q458.7422,244.1812 458.8125,244.2609 Q458.8828,244.3359 458.8828,244.5187 L458.8828,244.9547 Q458.8828,245.1375 458.8125,245.2172 Q458.7422,245.2969 458.6297,245.2969 Q458.5266,245.2969 458.4656,245.2359 Q458.4047,245.1797 458.3719,245.025 Q458.3578,244.9172 458.3016,244.8609 Q458.2031,244.7484 458.0203,244.6828 Q457.8375,244.6172 457.65,244.6172 Q457.4203,244.6172 457.2281,244.7156 Q457.0406,244.8141 456.8906,245.0391 Q456.7453,245.2641 456.7453,245.5734 L456.7453,245.9016 Q456.7453,246.2719 457.0125,246.5203 Q457.2797,246.7641 457.7578,246.7641 Q458.0391,246.7641 458.2359,246.6891 Q458.3531,246.6422 458.4797,246.5109 Q458.5594,246.4312 458.6016,246.4078 Q458.6484,246.3844 458.7094,246.3844 Q458.8078,246.3844 458.8828,246.4641 Q458.9625,246.5391 458.9625,246.6422 Q458.9625,246.7453 458.8594,246.8672 Q458.7094,247.0406 458.4703,247.1391 Q458.1469,247.275 457.7578,247.275 Q457.3031,247.275 456.9422,247.0875 Q456.6469,246.9375 456.4406,246.6187 Q456.2344,246.2953 456.2344,245.9109 L456.2344,245.5641 Q456.2344,245.1656 456.4172,244.8234 Q456.6047,244.4766 456.9328,244.2938 Q457.2609,244.1063 457.6312,244.1063 Q457.8516,244.1063 458.0438,244.1578 Q458.2406,244.2047 458.4047,244.3125 Z " fill="#000000"/><text fill="#000000" font-family="sans-serif" font-size="4.2" lengthAdjust="spacing" textLength="15.3" x="463.725" y="247.0061">Jugador</text><line style="stroke:#181818;stroke-width:0.15;" x1="430.2" x2="502.8" y1="250.35" y2="250.35"/><rect fill="none" height="1.8" style="stroke:#C82930;stroke-width:0.3;" width="1.8" x="432.3" y="253.4461"/><text fill="#000000" font-family="sans-serif" font-size="4.2" lengthAdjust="spacing" textLength="43.5" x="435.9" y="255.3521">últimaDirección : String</text><rect fill="none" height="1.8" style="stroke:#C82930;stroke-width:0.3;" width="1.8" x="432.3" y="258.1383"/><text fill="#000000" font-family="sans-serif" font-size="4.2" lengthAdjust="spacing" textLength="22.2" x="435.9" y="260.0443">puntaje : int</text><rect fill="none" height="1.8" style="stroke:#C82930;stroke-width:0.3;" width="1.8" x="432.3" y="262.8305"/><text fill="#000000" font-family="sans-serif" font-size="4.2" lengthAdjust="spacing" textLength="40.8" x="435.9" y="264.7365">powerPellet : boolean</text><rect fill="none" height="1.8" style="stroke:#C82930;stroke-width:0.3;" width="1.8" x="432.3" y="267.5227"/><text fill="#000000" font-family="sans-serif" font-size="4.2" lengthAdjust="spacing" textLength="65.4" x="435.9" y="269.4287">DURACIÓN_POWER_PELLET : int</text><line style="stroke:#181818;stroke-width:0.15;" x1="430.2" x2="502.8" y1="271.5188" y2="271.5188"/><rect fill="#F24D5C" height="1.8" style="stroke:#C82930;stroke-width:0.3;" width="1.8" x="432.3" y="274.6148"/><text fill="#000000" font-family="sans-serif" font-size="4.2" lengthAdjust="spacing" textLength="36.9" x="435.9" y="276.5209">obtenerItem() : void</text><rect fill="#F24D5C" height="1.8" style="stroke:#C82930;stroke-width:0.3;" width="1.8" x="432.3" y="279.307"/><text fill="#000000" font-family="sans-serif" font-size="4.2" lengthAdjust="spacing" textLength="53.7" x="435.9" y="281.2131">obtenerMovimiento() : String</text><rect fill="#F24D5C" height="1.8" style="stroke:#C82930;stroke-width:0.3;" width="1.8" x="432.3" y="283.9992"/><text fill="#000000" font-family="sans-serif" font-size="4.2" lengthAdjust="spacing" textLength="61.5" x="435.9" y="285.9053">actualizarÚltimaDirección() : void</text><ellipse cx="433.2" cy="289.5914" fill="#84BE84" rx="0.9" ry="0.9" style="stroke:#038048;stroke-width:0.3;"/><text fill="#000000" font-family="sans-serif" font-size="4.2" lengthAdjust="spacing" textLength="53.4" x="435.9" y="290.5975">tienePowerPellet() : boolean</text></g><!--class Pinky--><g id="elem_Pinky"><rect codeLine="37" fill="#F1F1F1" height="14.4" id="Pinky" rx="0.75" ry="0.75" style="stroke:#181818;stroke-width:0.15;" width="19.8" x="447" y="109.2"/><ellipse cx="451.5" cy="114" fill="#ADD1B2" rx="3.3" ry="3.3" style="stroke:#181818;stroke-width:0.3;"/><path d="M452.3297,112.7625 Q452.3766,112.6969 452.4328,112.6641 Q452.4891,112.6313 452.5547,112.6313 Q452.6672,112.6313 452.7375,112.7109 Q452.8078,112.7859 452.8078,112.9688 L452.8078,113.4047 Q452.8078,113.5875 452.7375,113.6672 Q452.6672,113.7469 452.5547,113.7469 Q452.4516,113.7469 452.3906,113.6859 Q452.3297,113.6297 452.2969,113.475 Q452.2828,113.3672 452.2266,113.3109 Q452.1281,113.1984 451.9453,113.1328 Q451.7625,113.0672 451.575,113.0672 Q451.3453,113.0672 451.1531,113.1656 Q450.9656,113.2641 450.8156,113.4891 Q450.6703,113.7141 450.6703,114.0234 L450.6703,114.3516 Q450.6703,114.7219 450.9375,114.9703 Q451.2047,115.2141 451.6828,115.2141 Q451.9641,115.2141 452.1609,115.1391 Q452.2781,115.0922 452.4047,114.9609 Q452.4844,114.8813 452.5266,114.8578 Q452.5734,114.8344 452.6344,114.8344 Q452.7328,114.8344 452.8078,114.9141 Q452.8875,114.9891 452.8875,115.0922 Q452.8875,115.1953 452.7844,115.3172 Q452.6344,115.4906 452.3953,115.5891 Q452.0719,115.725 451.6828,115.725 Q451.2281,115.725 450.8672,115.5375 Q450.5719,115.3875 450.3656,115.0688 Q450.1594,114.7453 450.1594,114.3609 L450.1594,114.0141 Q450.1594,113.6156 450.3422,113.2734 Q450.5297,112.9266 450.8578,112.7437 Q451.1859,112.5562 451.5563,112.5562 Q451.7766,112.5562 451.9688,112.6078 Q452.1656,112.6547 452.3297,112.7625 Z " fill="#000000"/><text fill="#000000" font-family="sans-serif" font-size="4.2" lengthAdjust="spacing" textLength="10.2" x="455.7" y="115.4561">Pinky</text><line style="stroke:#181818;stroke-width:0.15;" x1="447.3" x2="466.5" y1="118.8" y2="118.8"/><line style="stroke:#181818;stroke-width:0.15;" x1="447.3" x2="466.5" y1="121.2" y2="121.2"/></g><!--class Blinky--><g id="elem_Blinky"><rect codeLine="39" fill="#F1F1F1" height="14.4" id="Blinky" rx="0.75" ry="0.75" style="stroke:#181818;stroke-width:0.15;" width="20.7" x="415.65" y="109.2"/><ellipse cx="420.15" cy="114" fill="#ADD1B2" rx="3.3" ry="3.3" style="stroke:#181818;stroke-width:0.3;"/><path d="M420.9797,112.7625 Q421.0266,112.6969 421.0828,112.6641 Q421.1391,112.6313 421.2047,112.6313 Q421.3172,112.6313 421.3875,112.7109 Q421.4578,112.7859 421.4578,112.9688 L421.4578,113.4047 Q421.4578,113.5875 421.3875,113.6672 Q421.3172,113.7469 421.2047,113.7469 Q421.1016,113.7469 421.0406,113.6859 Q420.9797,113.6297 420.9469,113.475 Q420.9328,113.3672 420.8766,113.3109 Q420.7781,113.1984 420.5953,113.1328 Q420.4125,113.0672 420.225,113.0672 Q419.9953,113.0672 419.8031,113.1656 Q419.6156,113.2641 419.4656,113.4891 Q419.3203,113.7141 419.3203,114.0234 L419.3203,114.3516 Q419.3203,114.7219 419.5875,114.9703 Q419.8547,115.2141 420.3328,115.2141 Q420.6141,115.2141 420.8109,115.1391 Q420.9281,115.0922 421.0547,114.9609 Q421.1344,114.8813 421.1766,114.8578 Q421.2234,114.8344 421.2844,114.8344 Q421.3828,114.8344 421.4578,114.9141 Q421.5375,114.9891 421.5375,115.0922 Q421.5375,115.1953 421.4344,115.3172 Q421.2844,115.4906 421.0453,115.5891 Q420.7219,115.725 420.3328,115.725 Q419.8781,115.725 419.5172,115.5375 Q419.2219,115.3875 419.0156,115.0688 Q418.8094,114.7453 418.8094,114.3609 L418.8094,114.0141 Q418.8094,113.6156 418.9922,113.2734 Q419.1797,112.9266 419.5078,112.7437 Q419.8359,112.5562 420.2063,112.5562 Q420.4266,112.5562 420.6188,112.6078 Q420.8156,112.6547 420.9797,112.7625 Z " fill="#000000"/><text fill="#000000" font-family="sans-serif" font-size="4.2" lengthAdjust="spacing" textLength="11.1" x="424.35" y="115.4561">Blinky</text><line style="stroke:#181818;stroke-width:0.15;" x1="415.95" x2="436.05" y1="118.8" y2="118.8"/><line style="stroke:#181818;stroke-width:0.15;" x1="415.95" x2="436.05" y1="121.2" y2="121.2"/></g><!--class Clyde--><g id="elem_Clyde"><rect codeLine="41" fill="#F1F1F1" height="14.4" id="Clyde" rx="0.75" ry="0.75" style="stroke:#181818;stroke-width:0.15;" width="20.4" x="505.2" y="109.2"/><ellipse cx="509.7" cy="114" fill="#ADD1B2" rx="3.3" ry="3.3" style="stroke:#181818;stroke-width:0.3;"/><path d="M510.5297,112.7625 Q510.5766,112.6969 510.6328,112.6641 Q510.6891,112.6313 510.7547,112.6313 Q510.8672,112.6313 510.9375,112.7109 Q511.0078,112.7859 511.0078,112.9688 L511.0078,113.4047 Q511.0078,113.5875 510.9375,113.6672 Q510.8672,113.7469 510.7547,113.7469 Q510.6516,113.7469 510.5906,113.6859 Q510.5297,113.6297 510.4969,113.475 Q510.4828,113.3672 510.4266,113.3109 Q510.3281,113.1984 510.1453,113.1328 Q509.9625,113.0672 509.775,113.0672 Q509.5453,113.0672 509.3531,113.1656 Q509.1656,113.2641 509.0156,113.4891 Q508.8703,113.7141 508.8703,114.0234 L508.8703,114.3516 Q508.8703,114.7219 509.1375,114.9703 Q509.4047,115.2141 509.8828,115.2141 Q510.1641,115.2141 510.3609,115.1391 Q510.4781,115.0922 510.6047,114.9609 Q510.6844,114.8813 510.7266,114.8578 Q510.7734,114.8344 510.8344,114.8344 Q510.9328,114.8344 511.0078,114.9141 Q511.0875,114.9891 511.0875,115.0922 Q511.0875,115.1953 510.9844,115.3172 Q510.8344,115.4906 510.5953,115.5891 Q510.2719,115.725 509.8828,115.725 Q509.4281,115.725 509.0672,115.5375 Q508.7719,115.3875 508.5656,115.0688 Q508.3594,114.7453 508.3594,114.3609 L508.3594,114.0141 Q508.3594,113.6156 508.5422,113.2734 Q508.7297,112.9266 509.0578,112.7437 Q509.3859,112.5562 509.7562,112.5562 Q509.9766,112.5562 510.1688,112.6078 Q510.3656,112.6547 510.5297,112.7625 Z " fill="#000000"/><text fill="#000000" font-family="sans-serif" font-size="4.2" lengthAdjust="spacing" textLength="10.8" x="513.9" y="115.4561">Clyde</text><line style="stroke:#181818;stroke-width:0.15;" x1="505.5" x2="525.3" y1="118.8" y2="118.8"/><line style="stroke:#181818;stroke-width:0.15;" x1="505.5" x2="525.3" y1="121.2" y2="121.2"/></g><!--class Inky--><g id="elem_Inky"><rect codeLine="43" fill="#F1F1F1" height="14.4" id="Inky" rx="0.75" ry="0.75" style="stroke:#181818;stroke-width:0.15;" width="17.1" x="477.45" y="109.2"/><ellipse cx="481.95" cy="114" fill="#ADD1B2" rx="3.3" ry="3.3" style="stroke:#181818;stroke-width:0.3;"/><path d="M482.7797,112.7625 Q482.8266,112.6969 482.8828,112.6641 Q482.9391,112.6313 483.0047,112.6313 Q483.1172,112.6313 483.1875,112.7109 Q483.2578,112.7859 483.2578,112.9688 L483.2578,113.4047 Q483.2578,113.5875 483.1875,113.6672 Q483.1172,113.7469 483.0047,113.7469 Q482.9016,113.7469 482.8406,113.6859 Q482.7797,113.6297 482.7469,113.475 Q482.7328,113.3672 482.6766,113.3109 Q482.5781,113.1984 482.3953,113.1328 Q482.2125,113.0672 482.025,113.0672 Q481.7953,113.0672 481.6031,113.1656 Q481.4156,113.2641 481.2656,113.4891 Q481.1203,113.7141 481.1203,114.0234 L481.1203,114.3516 Q481.1203,114.7219 481.3875,114.9703 Q481.6547,115.2141 482.1328,115.2141 Q482.4141,115.2141 482.6109,115.1391 Q482.7281,115.0922 482.8547,114.9609 Q482.9344,114.8813 482.9766,114.8578 Q483.0234,114.8344 483.0844,114.8344 Q483.1828,114.8344 483.2578,114.9141 Q483.3375,114.9891 483.3375,115.0922 Q483.3375,115.1953 483.2344,115.3172 Q483.0844,115.4906 482.8453,115.5891 Q482.5219,115.725 482.1328,115.725 Q481.6781,115.725 481.3172,115.5375 Q481.0219,115.3875 480.8156,115.0688 Q480.6094,114.7453 480.6094,114.3609 L480.6094,114.0141 Q480.6094,113.6156 480.7922,113.2734 Q480.9797,112.9266 481.3078,112.7437 Q481.6359,112.5562 482.0062,112.5562 Q482.2266,112.5562 482.4188,112.6078 Q482.6156,112.6547 482.7797,112.7625 Z " fill="#000000"/><text fill="#000000" font-family="sans-serif" font-size="4.2" lengthAdjust="spacing" textLength="7.5" x="486.15" y="115.4561">Inky</text><line style="stroke:#181818;stroke-width:0.15;" x1="477.75" x2="494.25" y1="118.8" y2="118.8"/><line style="stroke:#181818;stroke-width:0.15;" x1="477.75" x2="494.25" y1="121.2" y2="121.2"/></g><!--class Laberinto--><g id="elem_Laberinto"><rect codeLine="45" fill="#F1F1F1" height="33.1687" id="Laberinto" rx="0.75" ry="0.75" style="stroke:#181818;stroke-width:0.15;" width="88.8" x="528.6" y="404.25"/><ellipse cx="562.725" cy="409.05" fill="#ADD1B2" rx="3.3" ry="3.3" style="stroke:#181818;stroke-width:0.3;"/><path d="M563.5547,407.8125 Q563.6016,407.7469 563.6578,407.7141 Q563.7141,407.6813 563.7797,407.6813 Q563.8922,407.6813 563.9625,407.7609 Q564.0328,407.8359 564.0328,408.0188 L564.0328,408.4547 Q564.0328,408.6375 563.9625,408.7172 Q563.8922,408.7969 563.7797,408.7969 Q563.6766,408.7969 563.6156,408.7359 Q563.5547,408.6797 563.5219,408.525 Q563.5078,408.4172 563.4516,408.3609 Q563.3531,408.2484 563.1703,408.1828 Q562.9875,408.1172 562.8,408.1172 Q562.5703,408.1172 562.3781,408.2156 Q562.1906,408.3141 562.0406,408.5391 Q561.8953,408.7641 561.8953,409.0734 L561.8953,409.4016 Q561.8953,409.7719 562.1625,410.0203 Q562.4297,410.2641 562.9078,410.2641 Q563.1891,410.2641 563.3859,410.1891 Q563.5031,410.1422 563.6297,410.0109 Q563.7094,409.9313 563.7516,409.9078 Q563.7984,409.8844 563.8594,409.8844 Q563.9578,409.8844 564.0328,409.9641 Q564.1125,410.0391 564.1125,410.1422 Q564.1125,410.2453 564.0094,410.3672 Q563.8594,410.5406 563.6203,410.6391 Q563.2969,410.775 562.9078,410.775 Q562.4531,410.775 562.0922,410.5875 Q561.7969,410.4375 561.5906,410.1188 Q561.3844,409.7953 561.3844,409.4109 L561.3844,409.0641 Q561.3844,408.6656 561.5672,408.3234 Q561.7547,407.9766 562.0828,407.7938 Q562.4109,407.6063 562.7813,407.6063 Q563.0016,407.6063 563.1938,407.6578 Q563.3906,407.7047 563.5547,407.8125 Z " fill="#000000"/><text fill="#000000" font-family="sans-serif" font-size="4.2" lengthAdjust="spacing" textLength="18" x="568.875" y="410.5061">Laberinto</text><line style="stroke:#181818;stroke-width:0.15;" x1="528.9" x2="617.1" y1="413.85" y2="413.85"/><rect fill="none" height="1.8" style="stroke:#C82930;stroke-width:0.3;" width="1.8" x="531" y="416.9461"/><text fill="#000000" font-family="sans-serif" font-size="4.2" lengthAdjust="spacing" textLength="23.4" x="534.6" y="418.8521">mapa : int[][]</text><line style="stroke:#181818;stroke-width:0.15;" x1="528.9" x2="617.1" y1="420.9422" y2="420.9422"/><rect fill="#F24D5C" height="1.8" style="stroke:#C82930;stroke-width:0.3;" width="1.8" x="531" y="424.0383"/><text fill="#000000" font-family="sans-serif" font-size="4.2" lengthAdjust="spacing" textLength="71.1" x="534.6" y="425.9443">cargarmapa(pathName : String) : void</text><ellipse cx="531.9" cy="429.6305" fill="#84BE84" rx="0.9" ry="0.9" style="stroke:#038048;stroke-width:0.3;"/><text fill="#000000" font-family="sans-serif" font-size="4.2" lengthAdjust="spacing" textLength="77.4" x="534.6" y="430.6365">getValorMapa(fila : int, columna : int) : int</text><ellipse cx="531.9" cy="434.3227" fill="#84BE84" rx="0.9" ry="0.9" style="stroke:#038048;stroke-width:0.3;"/><text fill="#000000" font-family="sans-serif" font-size="4.2" lengthAdjust="spacing" textLength="81" x="534.6" y="435.3287">cambiarValorA0(fila : int, columna : int) : int</text></g><!--class DetectorTeclas--><g id="elem_DetectorTeclas"><rect codeLine="51" fill="#F1F1F1" height="23.7844" id="DetectorTeclas" rx="0.75" ry="0.75" style="stroke:#181818;stroke-width:0.15;" width="64.8" x="372" y="336.6"/><ellipse cx="388.725" cy="341.4" fill="#ADD1B2" rx="3.3" ry="3.3" style="stroke:#181818;stroke-width:0.3;"/><path d="M389.5547,340.1625 Q389.6016,340.0969 389.6578,340.0641 Q389.7141,340.0313 389.7797,340.0313 Q389.8922,340.0313 389.9625,340.1109 Q390.0328,340.1859 390.0328,340.3688 L390.0328,340.8047 Q390.0328,340.9875 389.9625,341.0672 Q389.8922,341.1469 389.7797,341.1469 Q389.6766,341.1469 389.6156,341.0859 Q389.5547,341.0297 389.5219,340.875 Q389.5078,340.7672 389.4516,340.7109 Q389.3531,340.5984 389.1703,340.5328 Q388.9875,340.4672 388.8,340.4672 Q388.5703,340.4672 388.3781,340.5656 Q388.1906,340.6641 388.0406,340.8891 Q387.8953,341.1141 387.8953,341.4234 L387.8953,341.7516 Q387.8953,342.1219 388.1625,342.3703 Q388.4297,342.6141 388.9078,342.6141 Q389.1891,342.6141 389.3859,342.5391 Q389.5031,342.4922 389.6297,342.3609 Q389.7094,342.2813 389.7516,342.2578 Q389.7984,342.2344 389.8594,342.2344 Q389.9578,342.2344 390.0328,342.3141 Q390.1125,342.3891 390.1125,342.4922 Q390.1125,342.5953 390.0094,342.7172 Q389.8594,342.8906 389.6203,342.9891 Q389.2969,343.125 388.9078,343.125 Q388.4531,343.125 388.0922,342.9375 Q387.7969,342.7875 387.5906,342.4688 Q387.3844,342.1453 387.3844,341.7609 L387.3844,341.4141 Q387.3844,341.0156 387.5672,340.6734 Q387.7547,340.3266 388.0828,340.1438 Q388.4109,339.9563 388.7813,339.9563 Q389.0016,339.9563 389.1937,340.0078 Q389.3906,340.0547 389.5547,340.1625 Z " fill="#000000"/><text fill="#000000" font-family="sans-serif" font-size="4.2" lengthAdjust="spacing" textLength="28.8" x="394.875" y="342.8561">DetectorTeclas</text><line style="stroke:#181818;stroke-width:0.15;" x1="372.3" x2="436.5" y1="346.2" y2="346.2"/><ellipse cx="375.3" cy="350.1961" fill="none" rx="0.9" ry="0.9" style="stroke:#038048;stroke-width:0.3;"/><text fill="#000000" font-family="sans-serif" font-size="4.2" lengthAdjust="spacing" textLength="31.8" x="378" y="351.2021">dirección : String</text><line style="stroke:#181818;stroke-width:0.15;" x1="372.3" x2="436.5" y1="353.2922" y2="353.2922"/><ellipse cx="375.3" cy="357.2883" fill="#84BE84" rx="0.9" ry="0.9" style="stroke:#038048;stroke-width:0.3;"/><text fill="#000000" font-family="sans-serif" font-size="4.2" lengthAdjust="spacing" textLength="57" x="378" y="358.2943">keyTyped(e : KeyEvent) : void</text></g><!--class Nivel--><g id="elem_Nivel"><rect codeLine="55" fill="#F1F1F1" height="14.4" id="Nivel" rx="0.75" ry="0.75" style="stroke:#181818;stroke-width:0.15;" width="18.6" x="537.3" y="109.2"/><ellipse cx="541.8" cy="114" fill="#ADD1B2" rx="3.3" ry="3.3" style="stroke:#181818;stroke-width:0.3;"/><path d="M542.6297,112.7625 Q542.6766,112.6969 542.7328,112.6641 Q542.7891,112.6313 542.8547,112.6313 Q542.9672,112.6313 543.0375,112.7109 Q543.1078,112.7859 543.1078,112.9688 L543.1078,113.4047 Q543.1078,113.5875 543.0375,113.6672 Q542.9672,113.7469 542.8547,113.7469 Q542.7516,113.7469 542.6906,113.6859 Q542.6297,113.6297 542.5969,113.475 Q542.5828,113.3672 542.5266,113.3109 Q542.4281,113.1984 542.2453,113.1328 Q542.0625,113.0672 541.875,113.0672 Q541.6453,113.0672 541.4531,113.1656 Q541.2656,113.2641 541.1156,113.4891 Q540.9703,113.7141 540.9703,114.0234 L540.9703,114.3516 Q540.9703,114.7219 541.2375,114.9703 Q541.5047,115.2141 541.9828,115.2141 Q542.2641,115.2141 542.4609,115.1391 Q542.5781,115.0922 542.7047,114.9609 Q542.7844,114.8813 542.8266,114.8578 Q542.8734,114.8344 542.9344,114.8344 Q543.0328,114.8344 543.1078,114.9141 Q543.1875,114.9891 543.1875,115.0922 Q543.1875,115.1953 543.0844,115.3172 Q542.9344,115.4906 542.6953,115.5891 Q542.3719,115.725 541.9828,115.725 Q541.5281,115.725 541.1672,115.5375 Q540.8719,115.3875 540.6656,115.0688 Q540.4594,114.7453 540.4594,114.3609 L540.4594,114.0141 Q540.4594,113.6156 540.6422,113.2734 Q540.8297,112.9266 541.1578,112.7437 Q541.4859,112.5562 541.8562,112.5562 Q542.0766,112.5562 542.2688,112.6078 Q542.4656,112.6547 542.6297,112.7625 Z " fill="#000000"/><text fill="#000000" font-family="sans-serif" font-size="4.2" lengthAdjust="spacing" textLength="9" x="546" y="115.4561">Nivel</text><line style="stroke:#181818;stroke-width:0.15;" x1="537.6" x2="555.6" y1="118.8" y2="118.8"/><line style="stroke:#181818;stroke-width:0.15;" x1="537.6" x2="555.6" y1="121.2" y2="121.2"/></g><!--class PacMan--><g id="elem_PacMan"><rect codeLine="57" fill="#F1F1F1" height="14.4" id="PacMan" rx="0.75" ry="0.75" style="stroke:#181818;stroke-width:0.15;" width="24.9" x="534.15" y="57.9"/><ellipse cx="538.65" cy="62.7" fill="#ADD1B2" rx="3.3" ry="3.3" style="stroke:#181818;stroke-width:0.3;"/><path d="M539.4797,61.4625 Q539.5266,61.3969 539.5828,61.3641 Q539.6391,61.3313 539.7047,61.3313 Q539.8172,61.3313 539.8875,61.4109 Q539.9578,61.4859 539.9578,61.6687 L539.9578,62.1047 Q539.9578,62.2875 539.8875,62.3672 Q539.8172,62.4469 539.7047,62.4469 Q539.6016,62.4469 539.5406,62.3859 Q539.4797,62.3297 539.4469,62.175 Q539.4328,62.0672 539.3766,62.0109 Q539.2781,61.8984 539.0953,61.8328 Q538.9125,61.7672 538.725,61.7672 Q538.4953,61.7672 538.3031,61.8656 Q538.1156,61.9641 537.9656,62.1891 Q537.8203,62.4141 537.8203,62.7234 L537.8203,63.0516 Q537.8203,63.4219 538.0875,63.6703 Q538.3547,63.9141 538.8328,63.9141 Q539.1141,63.9141 539.3109,63.8391 Q539.4281,63.7922 539.5547,63.6609 Q539.6344,63.5813 539.6766,63.5578 Q539.7234,63.5344 539.7844,63.5344 Q539.8828,63.5344 539.9578,63.6141 Q540.0375,63.6891 540.0375,63.7922 Q540.0375,63.8953 539.9344,64.0172 Q539.7844,64.1906 539.5453,64.2891 Q539.2219,64.425 538.8328,64.425 Q538.3781,64.425 538.0172,64.2375 Q537.7219,64.0875 537.5156,63.7688 Q537.3094,63.4453 537.3094,63.0609 L537.3094,62.7141 Q537.3094,62.3156 537.4922,61.9734 Q537.6797,61.6266 538.0078,61.4437 Q538.3359,61.2562 538.7063,61.2562 Q538.9266,61.2562 539.1188,61.3078 Q539.3156,61.3547 539.4797,61.4625 Z " fill="#000000"/><text fill="#000000" font-family="sans-serif" font-size="4.2" lengthAdjust="spacing" textLength="15.3" x="542.85" y="64.1561">PacMan</text><line style="stroke:#181818;stroke-width:0.15;" x1="534.45" x2="558.75" y1="67.5" y2="67.5"/><line style="stroke:#181818;stroke-width:0.15;" x1="534.45" x2="558.75" y1="69.9" y2="69.9"/></g><!--class Dificultad--><g id="elem_Dificultad"><rect codeLine="59" fill="#F1F1F1" height="33.1687" id="Dificultad" rx="0.75" ry="0.75" style="stroke:#181818;stroke-width:0.15;" width="27" x="530.1" y="172.95"/><ellipse cx="534.6" cy="177.75" fill="#EB937F" rx="3.3" ry="3.3" style="stroke:#181818;stroke-width:0.3;"/><path d="M534.2578,177.9891 L534.2578,178.7391 L535.5563,178.7391 L535.5563,178.4625 Q535.5563,178.2797 535.6266,178.2 Q535.7016,178.1203 535.8141,178.1203 Q535.9266,178.1203 535.9969,178.2 Q536.0672,178.2797 536.0672,178.4625 L536.0672,179.25 L533.6672,179.25 Q533.4797,179.25 533.4,179.1797 Q533.325,179.1094 533.325,178.9922 Q533.325,178.8797 533.4047,178.8094 Q533.4844,178.7391 533.6672,178.7391 L533.7469,178.7391 L533.7469,176.7422 L533.6672,176.7422 Q533.4797,176.7422 533.4,176.6719 Q533.325,176.6016 533.325,176.4844 Q533.325,176.3719 533.4,176.3016 Q533.4797,176.2313 533.6672,176.2313 L535.9547,176.2313 L535.9547,177.0094 Q535.9547,177.1922 535.8844,177.2719 Q535.8188,177.3469 535.7016,177.3469 Q535.5891,177.3469 535.5188,177.2719 Q535.4484,177.1922 535.4484,177.0094 L535.4484,176.7422 L534.2578,176.7422 L534.2578,177.4781 L534.7031,177.4781 Q534.7031,177.2813 534.7406,177.225 Q534.8203,177.1031 534.9609,177.1031 Q535.0734,177.1031 535.1438,177.1828 Q535.2141,177.2578 535.2141,177.4406 L535.2141,178.0313 Q535.2141,178.1953 535.1766,178.2516 Q535.0969,178.3688 534.9609,178.3688 Q534.8203,178.3688 534.7406,178.2469 Q534.7031,178.1906 534.7031,177.9891 L534.2578,177.9891 Z " fill="#000000"/><text fill="#000000" font-family="sans-serif" font-size="4.2" lengthAdjust="spacing" textLength="17.4" x="538.8" y="179.2061">Dificultad</text><line style="stroke:#181818;stroke-width:0.15;" x1="530.4" x2="556.8" y1="182.55" y2="182.55"/><text fill="#000000" font-family="sans-serif" font-size="4.2" lengthAdjust="spacing" textLength="12.9" x="531.9" y="187.5521">FACIL,</text><text fill="#000000" font-family="sans-serif" font-size="4.2" lengthAdjust="spacing" textLength="13.8" x="531.9" y="192.2443">MEDIA,</text><text fill="#000000" font-family="sans-serif" font-size="4.2" lengthAdjust="spacing" textLength="15" x="531.9" y="196.9365">DIFICIL,</text><text fill="#000000" font-family="sans-serif" font-size="4.2" lengthAdjust="spacing" textLength="21.6" x="531.9" y="201.6287">IMPOSIBLE</text><line style="stroke:#181818;stroke-width:0.15;" x1="530.4" x2="556.8" y1="203.7188" y2="203.7188"/></g><!--class Tecla--><g id="elem_Tecla"><rect codeLine="65" fill="#F1F1F1" height="33.1687" id="Tecla" rx="0.75" ry="0.75" style="stroke:#181818;stroke-width:0.15;" width="25.2" x="492.9" y="404.25"/><ellipse cx="499.695" cy="409.05" fill="#EB937F" rx="3.3" ry="3.3" style="stroke:#181818;stroke-width:0.3;"/><path d="M499.3528,409.2891 L499.3528,410.0391 L500.6513,410.0391 L500.6513,409.7625 Q500.6513,409.5797 500.7216,409.5 Q500.7966,409.4203 500.9091,409.4203 Q501.0216,409.4203 501.0919,409.5 Q501.1622,409.5797 501.1622,409.7625 L501.1622,410.55 L498.7622,410.55 Q498.5747,410.55 498.495,410.4797 Q498.42,410.4094 498.42,410.2922 Q498.42,410.1797 498.4997,410.1094 Q498.5794,410.0391 498.7622,410.0391 L498.8419,410.0391 L498.8419,408.0422 L498.7622,408.0422 Q498.5747,408.0422 498.495,407.9719 Q498.42,407.9016 498.42,407.7844 Q498.42,407.6719 498.495,407.6016 Q498.5747,407.5313 498.7622,407.5313 L501.0497,407.5313 L501.0497,408.3094 Q501.0497,408.4922 500.9794,408.5719 Q500.9138,408.6469 500.7966,408.6469 Q500.6841,408.6469 500.6138,408.5719 Q500.5434,408.4922 500.5434,408.3094 L500.5434,408.0422 L499.3528,408.0422 L499.3528,408.7781 L499.7981,408.7781 Q499.7981,408.5813 499.8356,408.525 Q499.9153,408.4031 500.0559,408.4031 Q500.1684,408.4031 500.2388,408.4828 Q500.3091,408.5578 500.3091,408.7406 L500.3091,409.3313 Q500.3091,409.4953 500.2716,409.5516 Q500.1919,409.6688 500.0559,409.6688 Q499.9153,409.6688 499.8356,409.5469 Q499.7981,409.4906 499.7981,409.2891 L499.3528,409.2891 Z " fill="#000000"/><text fill="#000000" font-family="sans-serif" font-size="4.2" lengthAdjust="spacing" textLength="10.5" x="504.405" y="410.5061">Tecla</text><line style="stroke:#181818;stroke-width:0.15;" x1="493.2" x2="517.8" y1="413.85" y2="413.85"/><text fill="#000000" font-family="sans-serif" font-size="4.2" lengthAdjust="spacing" textLength="16.2" x="494.7" y="418.8521">ARRIBA,</text><text fill="#000000" font-family="sans-serif" font-size="4.2" lengthAdjust="spacing" textLength="14.4" x="494.7" y="423.5443">ABAJO,</text><text fill="#000000" font-family="sans-serif" font-size="4.2" lengthAdjust="spacing" textLength="21" x="494.7" y="428.2365">DERECHA,</text><text fill="#000000" font-family="sans-serif" font-size="4.2" lengthAdjust="spacing" textLength="21.6" x="494.7" y="432.9287">IZQUIERDA</text><line style="stroke:#181818;stroke-width:0.15;" x1="493.2" x2="517.8" y1="435.0188" y2="435.0188"/></g><!--class InterfazGrafica--><g id="elem_InterfazGrafica"><rect codeLine="74" fill="#F1F1F1" height="33.1687" id="InterfazGrafica" rx="0.75" ry="0.75" style="stroke:#181818;stroke-width:0.15;" width="66" x="146.7" y="99.75"/><ellipse cx="164.325" cy="104.55" fill="#A9DCDF" rx="3.3" ry="3.3" style="stroke:#181818;stroke-width:0.3;"/><path d="M164.9813,105.0797 L163.7391,105.0797 L163.6125,105.3891 L163.7391,105.3891 Q163.9219,105.3891 164.0016,105.4594 Q164.0812,105.5297 164.0812,105.6469 Q164.0812,105.7594 164.0016,105.8297 Q163.9219,105.9 163.7391,105.9 L163.05,105.9 Q162.8672,105.9 162.7922,105.8297 Q162.7125,105.7594 162.7125,105.6422 Q162.7125,105.5297 162.7969,105.4594 Q162.8766,105.3844 163.0641,105.3891 L163.8656,103.3922 L163.5328,103.3922 Q163.35,103.3922 163.2703,103.3219 Q163.1906,103.2516 163.1906,103.1344 Q163.1906,103.0219 163.2703,102.9516 Q163.35,102.8813 163.5328,102.8813 L164.6344,102.8813 L165.6516,105.3891 Q165.8297,105.3891 165.8859,105.4312 Q166.0031,105.5109 166.0031,105.6469 Q166.0031,105.7594 165.9234,105.8297 Q165.8484,105.9 165.6656,105.9 L164.9766,105.9 Q164.7938,105.9 164.7141,105.8297 Q164.6344,105.7594 164.6344,105.6422 Q164.6344,105.5297 164.7141,105.4594 Q164.7938,105.3891 164.9766,105.3891 L165.1031,105.3891 L164.9813,105.0797 Z M164.7656,104.5688 L164.3578,103.5562 L163.9453,104.5688 L164.7656,104.5688 Z " fill="#000000"/><text fill="#000000" font-family="sans-serif" font-size="4.2" font-style="italic" lengthAdjust="spacing" textLength="28.2" x="170.475" y="106.0061">InterfazGrafica</text><line style="stroke:#181818;stroke-width:0.15;" x1="147" x2="212.4" y1="109.35" y2="109.35"/><polygon fill="none" points="150,111.8461,151.2,113.0461,150,114.2461,148.8,113.0461" style="stroke:#B38D22;stroke-width:0.3;"/><text fill="#000000" font-family="sans-serif" font-size="4.2" lengthAdjust="spacing" textLength="42.6" x="152.7" y="114.3521">panel : PanelDelJuego</text><line style="stroke:#181818;stroke-width:0.15;" x1="147" x2="212.4" y1="116.4422" y2="116.4422"/><ellipse cx="150" cy="120.4383" fill="#84BE84" rx="0.9" ry="0.9" style="stroke:#038048;stroke-width:0.3;"/><text fill="#000000" font-family="sans-serif" font-size="4.2" lengthAdjust="spacing" textLength="58.2" x="152.7" y="121.4443">dibujar(g2 : Graphics2D) : void</text><ellipse cx="150" cy="125.1305" fill="#84BE84" rx="0.9" ry="0.9" style="stroke:#038048;stroke-width:0.3;"/><text fill="#000000" font-family="sans-serif" font-size="4.2" lengthAdjust="spacing" textLength="20.7" x="152.7" y="126.1365">run() : void</text><ellipse cx="150" cy="129.8227" fill="#84BE84" rx="0.9" ry="0.9" style="stroke:#038048;stroke-width:0.3;"/><text fill="#000000" font-family="sans-serif" font-size="4.2" lengthAdjust="spacing" textLength="42.9" x="152.7" y="130.8287">obtenerImagen() : void</text></g><!--class InterfazGraficaDeFantasma--><g id="elem_InterfazGraficaDeFantasma"><rect codeLine="80" fill="#F1F1F1" height="14.4" id="InterfazGraficaDeFantasma" rx="0.75" ry="0.75" style="stroke:#181818;stroke-width:0.15;" width="62.1" x="148.65" y="57.9"/><ellipse cx="153.15" cy="62.7" fill="#A9DCDF" rx="3.3" ry="3.3" style="stroke:#181818;stroke-width:0.3;"/><path d="M153.8063,63.2297 L152.5641,63.2297 L152.4375,63.5391 L152.5641,63.5391 Q152.7469,63.5391 152.8266,63.6094 Q152.9063,63.6797 152.9063,63.7969 Q152.9063,63.9094 152.8266,63.9797 Q152.7469,64.05 152.5641,64.05 L151.875,64.05 Q151.6922,64.05 151.6172,63.9797 Q151.5375,63.9094 151.5375,63.7922 Q151.5375,63.6797 151.6219,63.6094 Q151.7016,63.5344 151.8891,63.5391 L152.6906,61.5422 L152.3578,61.5422 Q152.175,61.5422 152.0953,61.4719 Q152.0156,61.4016 152.0156,61.2844 Q152.0156,61.1719 152.0953,61.1016 Q152.175,61.0313 152.3578,61.0313 L153.4594,61.0313 L154.4766,63.5391 Q154.6547,63.5391 154.7109,63.5813 Q154.8281,63.6609 154.8281,63.7969 Q154.8281,63.9094 154.7484,63.9797 Q154.6734,64.05 154.4906,64.05 L153.8016,64.05 Q153.6188,64.05 153.5391,63.9797 Q153.4594,63.9094 153.4594,63.7922 Q153.4594,63.6797 153.5391,63.6094 Q153.6188,63.5391 153.8016,63.5391 L153.9281,63.5391 L153.8063,63.2297 Z M153.5906,62.7188 L153.1828,61.7063 L152.7703,62.7188 L153.5906,62.7188 Z " fill="#000000"/><text fill="#000000" font-family="sans-serif" font-size="4.2" font-style="italic" lengthAdjust="spacing" textLength="52.5" x="157.35" y="64.1561">InterfazGraficaDeFantasma</text><line style="stroke:#181818;stroke-width:0.15;" x1="148.95" x2="210.45" y1="67.5" y2="67.5"/><line style="stroke:#181818;stroke-width:0.15;" x1="148.95" x2="210.45" y1="69.9" y2="69.9"/></g><!--class InterfazGraficaDeBlinky--><g id="elem_InterfazGraficaDeBlinky"><rect codeLine="82" fill="#F1F1F1" height="14.4" id="InterfazGraficaDeBlinky" rx="0.75" ry="0.75" style="stroke:#181818;stroke-width:0.15;" width="53.7" x="120.75" y="14.4"/><ellipse cx="125.25" cy="19.2" fill="#ADD1B2" rx="3.3" ry="3.3" style="stroke:#181818;stroke-width:0.3;"/><path d="M126.0797,17.9625 Q126.1266,17.8969 126.1828,17.8641 Q126.2391,17.8313 126.3047,17.8313 Q126.4172,17.8313 126.4875,17.9109 Q126.5578,17.9859 126.5578,18.1688 L126.5578,18.6047 Q126.5578,18.7875 126.4875,18.8672 Q126.4172,18.9469 126.3047,18.9469 Q126.2016,18.9469 126.1406,18.8859 Q126.0797,18.8297 126.0469,18.675 Q126.0328,18.5672 125.9766,18.5109 Q125.8781,18.3984 125.6953,18.3328 Q125.5125,18.2672 125.325,18.2672 Q125.0953,18.2672 124.9031,18.3656 Q124.7156,18.4641 124.5656,18.6891 Q124.4203,18.9141 124.4203,19.2234 L124.4203,19.5516 Q124.4203,19.9219 124.6875,20.1703 Q124.9547,20.4141 125.4328,20.4141 Q125.7141,20.4141 125.9109,20.3391 Q126.0281,20.2922 126.1547,20.1609 Q126.2344,20.0813 126.2766,20.0578 Q126.3234,20.0344 126.3844,20.0344 Q126.4828,20.0344 126.5578,20.1141 Q126.6375,20.1891 126.6375,20.2922 Q126.6375,20.3953 126.5344,20.5172 Q126.3844,20.6906 126.1453,20.7891 Q125.8219,20.925 125.4328,20.925 Q124.9781,20.925 124.6172,20.7375 Q124.3219,20.5875 124.1156,20.2688 Q123.9094,19.9453 123.9094,19.5609 L123.9094,19.2141 Q123.9094,18.8156 124.0922,18.4734 Q124.2797,18.1266 124.6078,17.9437 Q124.9359,17.7562 125.3062,17.7562 Q125.5266,17.7562 125.7188,17.8078 Q125.9156,17.8547 126.0797,17.9625 Z " fill="#000000"/><text fill="#000000" font-family="sans-serif" font-size="4.2" lengthAdjust="spacing" textLength="44.1" x="129.45" y="20.6561">InterfazGraficaDeBlinky</text><line style="stroke:#181818;stroke-width:0.15;" x1="121.05" x2="174.15" y1="24" y2="24"/><line style="stroke:#181818;stroke-width:0.15;" x1="121.05" x2="174.15" y1="26.4" y2="26.4"/></g><!--class InterfazGraficaDeInky--><g id="elem_InterfazGraficaDeInky"><rect codeLine="84" fill="#F1F1F1" height="14.4" id="InterfazGraficaDeInky" rx="0.75" ry="0.75" style="stroke:#181818;stroke-width:0.15;" width="50.1" x="60.15" y="14.4"/><ellipse cx="64.65" cy="19.2" fill="#ADD1B2" rx="3.3" ry="3.3" style="stroke:#181818;stroke-width:0.3;"/><path d="M65.4797,17.9625 Q65.5266,17.8969 65.5828,17.8641 Q65.6391,17.8313 65.7047,17.8313 Q65.8172,17.8313 65.8875,17.9109 Q65.9578,17.9859 65.9578,18.1688 L65.9578,18.6047 Q65.9578,18.7875 65.8875,18.8672 Q65.8172,18.9469 65.7047,18.9469 Q65.6016,18.9469 65.5406,18.8859 Q65.4797,18.8297 65.4469,18.675 Q65.4328,18.5672 65.3766,18.5109 Q65.2781,18.3984 65.0953,18.3328 Q64.9125,18.2672 64.725,18.2672 Q64.4953,18.2672 64.3031,18.3656 Q64.1156,18.4641 63.9656,18.6891 Q63.8203,18.9141 63.8203,19.2234 L63.8203,19.5516 Q63.8203,19.9219 64.0875,20.1703 Q64.3547,20.4141 64.8328,20.4141 Q65.1141,20.4141 65.3109,20.3391 Q65.4281,20.2922 65.5547,20.1609 Q65.6344,20.0813 65.6766,20.0578 Q65.7234,20.0344 65.7844,20.0344 Q65.8828,20.0344 65.9578,20.1141 Q66.0375,20.1891 66.0375,20.2922 Q66.0375,20.3953 65.9344,20.5172 Q65.7844,20.6906 65.5453,20.7891 Q65.2219,20.925 64.8328,20.925 Q64.3781,20.925 64.0172,20.7375 Q63.7219,20.5875 63.5156,20.2688 Q63.3094,19.9453 63.3094,19.5609 L63.3094,19.2141 Q63.3094,18.8156 63.4922,18.4734 Q63.6797,18.1266 64.0078,17.9437 Q64.3359,17.7562 64.7063,17.7562 Q64.9266,17.7562 65.1187,17.8078 Q65.3156,17.8547 65.4797,17.9625 Z " fill="#000000"/><text fill="#000000" font-family="sans-serif" font-size="4.2" lengthAdjust="spacing" textLength="40.5" x="68.85" y="20.6561">InterfazGraficaDeInky</text><line style="stroke:#181818;stroke-width:0.15;" x1="60.45" x2="109.95" y1="24" y2="24"/><line style="stroke:#181818;stroke-width:0.15;" x1="60.45" x2="109.95" y1="26.4" y2="26.4"/></g><!--class InterfazGraficaDePinky--><g id="elem_InterfazGraficaDePinky"><rect codeLine="86" fill="#F1F1F1" height="14.4" id="InterfazGraficaDePinky" rx="0.75" ry="0.75" style="stroke:#181818;stroke-width:0.15;" width="52.8" x="249" y="14.4"/><ellipse cx="253.5" cy="19.2" fill="#ADD1B2" rx="3.3" ry="3.3" style="stroke:#181818;stroke-width:0.3;"/><path d="M254.3297,17.9625 Q254.3766,17.8969 254.4328,17.8641 Q254.4891,17.8313 254.5547,17.8313 Q254.6672,17.8313 254.7375,17.9109 Q254.8078,17.9859 254.8078,18.1688 L254.8078,18.6047 Q254.8078,18.7875 254.7375,18.8672 Q254.6672,18.9469 254.5547,18.9469 Q254.4516,18.9469 254.3906,18.8859 Q254.3297,18.8297 254.2969,18.675 Q254.2828,18.5672 254.2266,18.5109 Q254.1281,18.3984 253.9453,18.3328 Q253.7625,18.2672 253.575,18.2672 Q253.3453,18.2672 253.1531,18.3656 Q252.9656,18.4641 252.8156,18.6891 Q252.6703,18.9141 252.6703,19.2234 L252.6703,19.5516 Q252.6703,19.9219 252.9375,20.1703 Q253.2047,20.4141 253.6828,20.4141 Q253.9641,20.4141 254.1609,20.3391 Q254.2781,20.2922 254.4047,20.1609 Q254.4844,20.0813 254.5266,20.0578 Q254.5734,20.0344 254.6344,20.0344 Q254.7328,20.0344 254.8078,20.1141 Q254.8875,20.1891 254.8875,20.2922 Q254.8875,20.3953 254.7844,20.5172 Q254.6344,20.6906 254.3953,20.7891 Q254.0719,20.925 253.6828,20.925 Q253.2281,20.925 252.8672,20.7375 Q252.5719,20.5875 252.3656,20.2688 Q252.1594,19.9453 252.1594,19.5609 L252.1594,19.2141 Q252.1594,18.8156 252.3422,18.4734 Q252.5297,18.1266 252.8578,17.9437 Q253.1859,17.7562 253.5562,17.7562 Q253.7766,17.7562 253.9688,17.8078 Q254.1656,17.8547 254.3297,17.9625 Z " fill="#000000"/><text fill="#000000" font-family="sans-serif" font-size="4.2" lengthAdjust="spacing" textLength="43.2" x="257.7" y="20.6561">InterfazGraficaDePinky</text><line style="stroke:#181818;stroke-width:0.15;" x1="249.3" x2="301.5" y1="24" y2="24"/><line style="stroke:#181818;stroke-width:0.15;" x1="249.3" x2="301.5" y1="26.4" y2="26.4"/></g><!--class InterfazGraficaDeClyde--><g id="elem_InterfazGraficaDeClyde"><rect codeLine="88" fill="#F1F1F1" height="14.4" id="InterfazGraficaDeClyde" rx="0.75" ry="0.75" style="stroke:#181818;stroke-width:0.15;" width="53.4" x="185.1" y="14.4"/><ellipse cx="189.6" cy="19.2" fill="#ADD1B2" rx="3.3" ry="3.3" style="stroke:#181818;stroke-width:0.3;"/><path d="M190.4297,17.9625 Q190.4766,17.8969 190.5328,17.8641 Q190.5891,17.8313 190.6547,17.8313 Q190.7672,17.8313 190.8375,17.9109 Q190.9078,17.9859 190.9078,18.1688 L190.9078,18.6047 Q190.9078,18.7875 190.8375,18.8672 Q190.7672,18.9469 190.6547,18.9469 Q190.5516,18.9469 190.4906,18.8859 Q190.4297,18.8297 190.3969,18.675 Q190.3828,18.5672 190.3266,18.5109 Q190.2281,18.3984 190.0453,18.3328 Q189.8625,18.2672 189.675,18.2672 Q189.4453,18.2672 189.2531,18.3656 Q189.0656,18.4641 188.9156,18.6891 Q188.7703,18.9141 188.7703,19.2234 L188.7703,19.5516 Q188.7703,19.9219 189.0375,20.1703 Q189.3047,20.4141 189.7828,20.4141 Q190.0641,20.4141 190.2609,20.3391 Q190.3781,20.2922 190.5047,20.1609 Q190.5844,20.0813 190.6266,20.0578 Q190.6734,20.0344 190.7344,20.0344 Q190.8328,20.0344 190.9078,20.1141 Q190.9875,20.1891 190.9875,20.2922 Q190.9875,20.3953 190.8844,20.5172 Q190.7344,20.6906 190.4953,20.7891 Q190.1719,20.925 189.7828,20.925 Q189.3281,20.925 188.9672,20.7375 Q188.6719,20.5875 188.4656,20.2688 Q188.2594,19.9453 188.2594,19.5609 L188.2594,19.2141 Q188.2594,18.8156 188.4422,18.4734 Q188.6297,18.1266 188.9578,17.9437 Q189.2859,17.7562 189.6563,17.7562 Q189.8766,17.7562 190.0688,17.8078 Q190.2656,17.8547 190.4297,17.9625 Z " fill="#000000"/><text fill="#000000" font-family="sans-serif" font-size="4.2" lengthAdjust="spacing" textLength="43.8" x="193.8" y="20.6561">InterfazGraficaDeClyde</text><line style="stroke:#181818;stroke-width:0.15;" x1="185.4" x2="238.2" y1="24" y2="24"/><line style="stroke:#181818;stroke-width:0.15;" x1="185.4" x2="238.2" y1="26.4" y2="26.4"/></g><!--class InterfazGraficaDeJugador--><g id="elem_InterfazGraficaDeJugador"><rect codeLine="90" fill="#F1F1F1" height="14.4" id="InterfazGraficaDeJugador" rx="0.75" ry="0.75" style="stroke:#181818;stroke-width:0.15;" width="57.9" x="80.25" y="57.9"/><ellipse cx="84.75" cy="62.7" fill="#ADD1B2" rx="3.3" ry="3.3" style="stroke:#181818;stroke-width:0.3;"/><path d="M85.5797,61.4625 Q85.6266,61.3969 85.6828,61.3641 Q85.7391,61.3313 85.8047,61.3313 Q85.9172,61.3313 85.9875,61.4109 Q86.0578,61.4859 86.0578,61.6687 L86.0578,62.1047 Q86.0578,62.2875 85.9875,62.3672 Q85.9172,62.4469 85.8047,62.4469 Q85.7016,62.4469 85.6406,62.3859 Q85.5797,62.3297 85.5469,62.175 Q85.5328,62.0672 85.4766,62.0109 Q85.3781,61.8984 85.1953,61.8328 Q85.0125,61.7672 84.825,61.7672 Q84.5953,61.7672 84.4031,61.8656 Q84.2156,61.9641 84.0656,62.1891 Q83.9203,62.4141 83.9203,62.7234 L83.9203,63.0516 Q83.9203,63.4219 84.1875,63.6703 Q84.4547,63.9141 84.9328,63.9141 Q85.2141,63.9141 85.4109,63.8391 Q85.5281,63.7922 85.6547,63.6609 Q85.7344,63.5813 85.7766,63.5578 Q85.8234,63.5344 85.8844,63.5344 Q85.9828,63.5344 86.0578,63.6141 Q86.1375,63.6891 86.1375,63.7922 Q86.1375,63.8953 86.0344,64.0172 Q85.8844,64.1906 85.6453,64.2891 Q85.3219,64.425 84.9328,64.425 Q84.4781,64.425 84.1172,64.2375 Q83.8219,64.0875 83.6156,63.7688 Q83.4094,63.4453 83.4094,63.0609 L83.4094,62.7141 Q83.4094,62.3156 83.5922,61.9734 Q83.7797,61.6266 84.1078,61.4437 Q84.4359,61.2562 84.8062,61.2562 Q85.0266,61.2562 85.2188,61.3078 Q85.4156,61.3547 85.5797,61.4625 Z " fill="#000000"/><text fill="#000000" font-family="sans-serif" font-size="4.2" lengthAdjust="spacing" textLength="48.3" x="88.95" y="64.1561">InterfazGraficaDeJugador</text><line style="stroke:#181818;stroke-width:0.15;" x1="80.55" x2="137.85" y1="67.5" y2="67.5"/><line style="stroke:#181818;stroke-width:0.15;" x1="80.55" x2="137.85" y1="69.9" y2="69.9"/></g><!--class InterfazGraficaDelMarco--><g id="elem_InterfazGraficaDelMarco"><rect codeLine="92" fill="#F1F1F1" height="14.4" id="InterfazGraficaDelMarco" rx="0.75" ry="0.75" style="stroke:#181818;stroke-width:0.15;" width="55.2" x="285.6" y="57.9"/><ellipse cx="290.1" cy="62.7" fill="#ADD1B2" rx="3.3" ry="3.3" style="stroke:#181818;stroke-width:0.3;"/><path d="M290.9297,61.4625 Q290.9766,61.3969 291.0328,61.3641 Q291.0891,61.3313 291.1547,61.3313 Q291.2672,61.3313 291.3375,61.4109 Q291.4078,61.4859 291.4078,61.6687 L291.4078,62.1047 Q291.4078,62.2875 291.3375,62.3672 Q291.2672,62.4469 291.1547,62.4469 Q291.0516,62.4469 290.9906,62.3859 Q290.9297,62.3297 290.8969,62.175 Q290.8828,62.0672 290.8266,62.0109 Q290.7281,61.8984 290.5453,61.8328 Q290.3625,61.7672 290.175,61.7672 Q289.9453,61.7672 289.7531,61.8656 Q289.5656,61.9641 289.4156,62.1891 Q289.2703,62.4141 289.2703,62.7234 L289.2703,63.0516 Q289.2703,63.4219 289.5375,63.6703 Q289.8047,63.9141 290.2828,63.9141 Q290.5641,63.9141 290.7609,63.8391 Q290.8781,63.7922 291.0047,63.6609 Q291.0844,63.5813 291.1266,63.5578 Q291.1734,63.5344 291.2344,63.5344 Q291.3328,63.5344 291.4078,63.6141 Q291.4875,63.6891 291.4875,63.7922 Q291.4875,63.8953 291.3844,64.0172 Q291.2344,64.1906 290.9953,64.2891 Q290.6719,64.425 290.2828,64.425 Q289.8281,64.425 289.4672,64.2375 Q289.1719,64.0875 288.9656,63.7688 Q288.7594,63.4453 288.7594,63.0609 L288.7594,62.7141 Q288.7594,62.3156 288.9422,61.9734 Q289.1297,61.6266 289.4578,61.4437 Q289.7859,61.2562 290.1563,61.2562 Q290.3766,61.2562 290.5687,61.3078 Q290.7656,61.3547 290.9297,61.4625 Z " fill="#000000"/><text fill="#000000" font-family="sans-serif" font-size="4.2" lengthAdjust="spacing" textLength="45.6" x="294.3" y="64.1561">InterfazGraficaDelMarco</text><line style="stroke:#181818;stroke-width:0.15;" x1="285.9" x2="340.5" y1="67.5" y2="67.5"/><line style="stroke:#181818;stroke-width:0.15;" x1="285.9" x2="340.5" y1="69.9" y2="69.9"/></g><!--class InterfazGraficaDeLaberinto--><g id="elem_InterfazGraficaDeLaberinto"><rect codeLine="94" fill="#F1F1F1" height="14.4" id="InterfazGraficaDeLaberinto" rx="0.75" ry="0.75" style="stroke:#181818;stroke-width:0.15;" width="60.6" x="9" y="57.9"/><ellipse cx="13.5" cy="62.7" fill="#ADD1B2" rx="3.3" ry="3.3" style="stroke:#181818;stroke-width:0.3;"/><path d="M14.3297,61.4625 Q14.3766,61.3969 14.4328,61.3641 Q14.4891,61.3313 14.5547,61.3313 Q14.6672,61.3313 14.7375,61.4109 Q14.8078,61.4859 14.8078,61.6687 L14.8078,62.1047 Q14.8078,62.2875 14.7375,62.3672 Q14.6672,62.4469 14.5547,62.4469 Q14.4516,62.4469 14.3906,62.3859 Q14.3297,62.3297 14.2969,62.175 Q14.2828,62.0672 14.2266,62.0109 Q14.1281,61.8984 13.9453,61.8328 Q13.7625,61.7672 13.575,61.7672 Q13.3453,61.7672 13.1531,61.8656 Q12.9656,61.9641 12.8156,62.1891 Q12.6703,62.4141 12.6703,62.7234 L12.6703,63.0516 Q12.6703,63.4219 12.9375,63.6703 Q13.2047,63.9141 13.6828,63.9141 Q13.9641,63.9141 14.1609,63.8391 Q14.2781,63.7922 14.4047,63.6609 Q14.4844,63.5813 14.5266,63.5578 Q14.5734,63.5344 14.6344,63.5344 Q14.7328,63.5344 14.8078,63.6141 Q14.8875,63.6891 14.8875,63.7922 Q14.8875,63.8953 14.7844,64.0172 Q14.6344,64.1906 14.3953,64.2891 Q14.0719,64.425 13.6828,64.425 Q13.2281,64.425 12.8672,64.2375 Q12.5719,64.0875 12.3656,63.7688 Q12.1594,63.4453 12.1594,63.0609 L12.1594,62.7141 Q12.1594,62.3156 12.3422,61.9734 Q12.5297,61.6266 12.8578,61.4437 Q13.1859,61.2562 13.5563,61.2562 Q13.7766,61.2562 13.9688,61.3078 Q14.1656,61.3547 14.3297,61.4625 Z " fill="#000000"/><text fill="#000000" font-family="sans-serif" font-size="4.2" lengthAdjust="spacing" textLength="51" x="17.7" y="64.1561">InterfazGraficaDeLaberinto</text><line style="stroke:#181818;stroke-width:0.15;" x1="9.3" x2="69.3" y1="67.5" y2="67.5"/><line style="stroke:#181818;stroke-width:0.15;" x1="9.3" x2="69.3" y1="69.9" y2="69.9"/></g><!--class MenuPacMan--><g id="elem_MenuPacMan"><rect codeLine="96" fill="#F1F1F1" height="23.7844" id="MenuPacMan" rx="0.75" ry="0.75" style="stroke:#181818;stroke-width:0.15;" width="53.7" x="221.25" y="53.25"/><ellipse cx="233.985" cy="58.05" fill="#ADD1B2" rx="3.3" ry="3.3" style="stroke:#181818;stroke-width:0.3;"/><path d="M234.8147,56.8125 Q234.8616,56.7469 234.9178,56.7141 Q234.9741,56.6813 235.0397,56.6813 Q235.1522,56.6813 235.2225,56.7609 Q235.2928,56.8359 235.2928,57.0188 L235.2928,57.4547 Q235.2928,57.6375 235.2225,57.7172 Q235.1522,57.7969 235.0397,57.7969 Q234.9366,57.7969 234.8756,57.7359 Q234.8147,57.6797 234.7819,57.525 Q234.7678,57.4172 234.7116,57.3609 Q234.6131,57.2484 234.4303,57.1828 Q234.2475,57.1172 234.06,57.1172 Q233.8303,57.1172 233.6381,57.2156 Q233.4506,57.3141 233.3006,57.5391 Q233.1553,57.7641 233.1553,58.0734 L233.1553,58.4016 Q233.1553,58.7719 233.4225,59.0203 Q233.6897,59.2641 234.1678,59.2641 Q234.4491,59.2641 234.6459,59.1891 Q234.7631,59.1422 234.8897,59.0109 Q234.9694,58.9313 235.0116,58.9078 Q235.0584,58.8844 235.1194,58.8844 Q235.2178,58.8844 235.2928,58.9641 Q235.3725,59.0391 235.3725,59.1422 Q235.3725,59.2453 235.2694,59.3672 Q235.1194,59.5406 234.8803,59.6391 Q234.5569,59.775 234.1678,59.775 Q233.7131,59.775 233.3522,59.5875 Q233.0569,59.4375 232.8506,59.1188 Q232.6444,58.7953 232.6444,58.4109 L232.6444,58.0641 Q232.6444,57.6656 232.8272,57.3234 Q233.0147,56.9766 233.3428,56.7937 Q233.6709,56.6062 234.0413,56.6062 Q234.2616,56.6062 234.4538,56.6578 Q234.6506,56.7047 234.8147,56.8125 Z " fill="#000000"/><text fill="#000000" font-family="sans-serif" font-size="4.2" lengthAdjust="spacing" textLength="25.8" x="240.015" y="59.5061">MenuPacMan</text><line style="stroke:#181818;stroke-width:0.15;" x1="221.55" x2="274.65" y1="62.85" y2="62.85"/><line style="stroke:#181818;stroke-width:0.15;" x1="221.55" x2="274.65" y1="65.25" y2="65.25"/><ellipse cx="224.55" cy="69.2461" fill="#84BE84" rx="0.9" ry="0.9" style="stroke:#038048;stroke-width:0.3;"/><text fill="#000000" font-family="sans-serif" font-size="4.2" lengthAdjust="spacing" textLength="43.8" x="227.25" y="70.2521">colocarBotonos() : void</text><ellipse cx="224.55" cy="73.9383" fill="#84BE84" rx="0.9" ry="0.9" style="stroke:#038048;stroke-width:0.3;"/><text fill="#000000" font-family="sans-serif" font-size="4.2" lengthAdjust="spacing" textLength="45.9" x="227.25" y="74.9443">colocarEtiquetas() : void</text></g><!--class Runnable--><g id="elem_Runnable"><rect codeLine="102" fill="#F1F1F1" height="14.4" id="Runnable" rx="0.75" ry="0.75" style="stroke:#181818;stroke-width:0.15;" width="27.9" x="186.15" y="413.7"/><ellipse cx="190.65" cy="418.5" fill="#B4A7E5" rx="3.3" ry="3.3" style="stroke:#181818;stroke-width:0.3;"/><path d="M190.9359,417.4922 L190.9359,419.4891 L191.4516,419.4891 Q191.6344,419.4891 191.7141,419.5594 Q191.7938,419.6297 191.7938,419.7469 Q191.7938,419.8594 191.7141,419.9297 Q191.6344,420 191.4516,420 L189.9094,420 Q189.7266,420 189.6469,419.9297 Q189.5672,419.8594 189.5672,419.7422 Q189.5672,419.6297 189.6469,419.5594 Q189.7266,419.4891 189.9094,419.4891 L190.425,419.4891 L190.425,417.4922 L189.9094,417.4922 Q189.7266,417.4922 189.6469,417.4219 Q189.5672,417.3516 189.5672,417.2344 Q189.5672,417.1219 189.6469,417.0516 Q189.7266,416.9813 189.9094,416.9813 L191.4516,416.9813 Q191.6344,416.9813 191.7141,417.0516 Q191.7938,417.1219 191.7938,417.2344 Q191.7938,417.3516 191.7141,417.4219 Q191.6344,417.4922 191.4516,417.4922 L190.9359,417.4922 Z " fill="#000000"/><text fill="#000000" font-family="sans-serif" font-size="4.2" font-style="italic" lengthAdjust="spacing" textLength="18.3" x="194.85" y="419.9561">Runnable</text><line style="stroke:#181818;stroke-width:0.15;" x1="186.45" x2="213.75" y1="423.3" y2="423.3"/><line style="stroke:#181818;stroke-width:0.15;" x1="186.45" x2="213.75" y1="425.7" y2="425.7"/></g><!--class KeyListener--><g id="elem_KeyListener"><rect codeLine="103" fill="#F1F1F1" height="14.4" id="KeyListener" rx="0.75" ry="0.75" style="stroke:#181818;stroke-width:0.15;" width="32.1" x="322.95" y="413.7"/><ellipse cx="327.45" cy="418.5" fill="#B4A7E5" rx="3.3" ry="3.3" style="stroke:#181818;stroke-width:0.3;"/><path d="M327.7359,417.4922 L327.7359,419.4891 L328.2516,419.4891 Q328.4344,419.4891 328.5141,419.5594 Q328.5938,419.6297 328.5938,419.7469 Q328.5938,419.8594 328.5141,419.9297 Q328.4344,420 328.2516,420 L326.7094,420 Q326.5266,420 326.4469,419.9297 Q326.3672,419.8594 326.3672,419.7422 Q326.3672,419.6297 326.4469,419.5594 Q326.5266,419.4891 326.7094,419.4891 L327.225,419.4891 L327.225,417.4922 L326.7094,417.4922 Q326.5266,417.4922 326.4469,417.4219 Q326.3672,417.3516 326.3672,417.2344 Q326.3672,417.1219 326.4469,417.0516 Q326.5266,416.9813 326.7094,416.9813 L328.2516,416.9813 Q328.4344,416.9813 328.5141,417.0516 Q328.5938,417.1219 328.5938,417.2344 Q328.5938,417.3516 328.5141,417.4219 Q328.4344,417.4922 328.2516,417.4922 L327.7359,417.4922 Z " fill="#000000"/><text fill="#000000" font-family="sans-serif" font-size="4.2" font-style="italic" lengthAdjust="spacing" textLength="22.5" x="331.65" y="419.9561">KeyListener</text><line style="stroke:#181818;stroke-width:0.15;" x1="323.25" x2="354.75" y1="423.3" y2="423.3"/><line style="stroke:#181818;stroke-width:0.15;" x1="323.25" x2="354.75" y1="425.7" y2="425.7"/></g><!--link presentacion to logica--><g id="link_presentacion_logica"><path d="M350.4193,28.0776 C350.4424,28.1366 350.4657,28.196 350.489,28.2557 C350.5826,28.4945 350.6781,28.7384 350.7754,28.987 C352.3332,32.9648 354.3684,38.1617 356.4034,43.3579 C358.4383,48.5541 360.473,53.7496 362.0296,57.7248 C362.1269,57.9733 362.2224,58.217 362.3158,58.4556 C362.3392,58.5152 362.3624,58.5746 362.3855,58.6336 " fill="none" id="presentacion-to-logica" style="stroke:#181818;stroke-width:0.3;stroke-dasharray:7.0,7.0;"/><polygon fill="#181818" points="362.3855,58.6336,362.5184,55.6819,361.8386,57.2369,360.2836,56.557,362.3855,58.6336" style="stroke:#181818;stroke-width:0.3;"/></g><!--link Blinky to Fantasma--><g id="link_Blinky_Fantasma"><path codeLine="109" d="M429.165,123.66 C432.57,131.154 438.243,143.634 443.73,155.709 " fill="none" id="Blinky-to-Fantasma" style="stroke:#181818;stroke-width:0.3;"/><polygon fill="none" points="445.659,154.878,446.232,161.208,441.837,156.615,445.659,154.878" style="stroke:#181818;stroke-width:0.3;"/></g><!--link Pinky to Fantasma--><g id="link_Pinky_Fantasma"><path codeLine="110" d="M457.101,123.66 C457.314,131.037 457.668,143.241 458.013,155.136 " fill="none" id="Pinky-to-Fantasma" style="stroke:#181818;stroke-width:0.3;"/><polygon fill="none" points="460.113,155.151,458.187,161.208,455.916,155.271,460.113,155.151" style="stroke:#181818;stroke-width:0.3;"/></g><!--link Inky to Fantasma--><g id="link_Inky_Fantasma"><path codeLine="111" d="M483.033,123.615 C480.405,129.819 476.511,139.188 473.4,147.45 C472.425,150.042 471.438,152.733 470.463,155.442 " fill="none" id="Inky-to-Fantasma" style="stroke:#181818;stroke-width:0.3;"/><polygon fill="none" points="472.407,156.243,468.423,161.193,468.45,154.836,472.407,156.243" style="stroke:#181818;stroke-width:0.3;"/></g><!--link Clyde to Fantasma--><g id="link_Clyde_Fantasma"><path codeLine="112" d="M512.181,123.621 C509.292,129.54 504.756,138.165 499.8,145.05 C497.001,148.938 493.896,152.853 490.683,156.663 " fill="none" id="Clyde-to-Fantasma" style="stroke:#181818;stroke-width:0.3;"/><polygon fill="none" points="492.237,158.076,486.726,161.244,489.057,155.331,492.237,158.076" style="stroke:#181818;stroke-width:0.3;"/></g><!--link Fantasma to Jugador--><g id="link_Fantasma_Jugador"><path codeLine="113" d="M461.751,217.95 C462.426,224.85 463.149,232.224 463.821,239.088 " fill="none" id="Fantasma-to-Jugador" style="stroke:#181818;stroke-width:0.3;"/><polygon fill="#181818" points="463.974,240.636,464.9058,237.8321,463.8281,239.1431,462.5171,238.0655,463.974,240.636" style="stroke:#181818;stroke-width:0.3;"/><text fill="#000000" font-family="sans-serif" font-size="3.9" lengthAdjust="spacing" textLength="12.6" x="463.2" y="230.7806">jugador</text><text fill="#000000" font-family="sans-serif" font-size="3.9" lengthAdjust="spacing" textLength="2.1" x="461.5667" y="237.5514">1</text></g><!--link Personaje to Laberinto--><g id="link_Personaje_Laberinto"><path codeLine="114" d="M547.872,381.522 C552.624,388.911 557.493,396.483 561.663,402.966 " fill="none" id="Personaje-to-Laberinto" style="stroke:#181818;stroke-width:0.3;"/><polygon fill="#181818" points="562.485,404.25,562.0344,401.3299,561.6739,402.9882,560.0155,402.6277,562.485,404.25" style="stroke:#181818;stroke-width:0.3;"/></g><!--link Personaje to Tecla--><g id="link_Personaje_Tecla"><path codeLine="115" d="M517.086,381.522 C514.911,388.851 512.688,396.357 510.774,402.804 " fill="none" id="Personaje-to-Tecla" style="stroke:#181818;stroke-width:0.3;"/><polygon fill="#181818" points="510.348,404.25,512.2622,401.9992,510.7719,402.8112,509.96,401.3209,510.348,404.25" style="stroke:#181818;stroke-width:0.3;"/><text fill="#000000" font-family="sans-serif" font-size="3.9" lengthAdjust="spacing" textLength="15.6" x="514.5" y="394.2806">dirección</text><text fill="#000000" font-family="sans-serif" font-size="3.9" lengthAdjust="spacing" textLength="2.1" x="508.7584" y="401.0804">1</text></g><!--link Personaje to Runnable--><g id="link_Personaje_Runnable"><path codeLine="116" d="M447.249,380.028 C445.557,380.523 443.871,380.997 442.2,381.45 C400.08,392.862 270.192,411.099 220.095,417.915 " fill="none" id="Personaje-to-Runnable" style="stroke:#181818;stroke-width:0.3;stroke-dasharray:7.0,7.0;"/><polygon fill="none" points="220.344,420,214.116,418.725,219.78,415.839,220.344,420" style="stroke:#181818;stroke-width:0.3;"/></g><!--link Jugador to DetectorTeclas--><g id="link_Jugador_DetectorTeclas"><path codeLine="117" d="M446.85,292.677 C435.984,306.879 422.952,323.91 414.219,335.319 " fill="none" id="Jugador-to-DetectorTeclas" style="stroke:#181818;stroke-width:0.3;"/><polygon fill="#181818" points="413.28,336.546,415.8747,335.1326,414.1923,335.3553,413.9696,333.6729,413.28,336.546" style="stroke:#181818;stroke-width:0.3;"/><text fill="#000000" font-family="sans-serif" font-size="3.9" lengthAdjust="spacing" textLength="15.9" x="439.2" y="305.4806">controles</text><text fill="#000000" font-family="sans-serif" font-size="3.9" lengthAdjust="spacing" textLength="2.1" x="412.5747" y="333.3886">1</text></g><!--link Jugador to Personaje--><g id="link_Jugador_Personaje"><path codeLine="118" d="M485.58,292.677 C489.798,298.356 494.355,304.488 498.846,310.53 " fill="none" id="Jugador-to-Personaje" style="stroke:#181818;stroke-width:0.3;"/><polygon fill="none" points="500.532,309.279,502.425,315.348,497.163,311.784,500.532,309.279" style="stroke:#181818;stroke-width:0.3;"/></g><!--link Fantasma to Personaje--><g id="link_Fantasma_Personaje"><path codeLine="119" d="M492.09,217.998 C498.408,224.841 504.339,232.569 508.5,240.75 C519.27,261.933 523.878,288.195 525.774,309.447 " fill="none" id="Fantasma-to-Personaje" style="stroke:#181818;stroke-width:0.3;"/><polygon fill="none" points="527.871,309.294,526.251,315.441,523.683,309.624,527.871,309.294" style="stroke:#181818;stroke-width:0.3;"/></g><!--link DetectorTeclas to KeyListener--><g id="link_DetectorTeclas_KeyListener"><path codeLine="120" d="M393.819,360.375 C381.585,373.815 361.572,395.802 349.41,409.164 " fill="none" id="DetectorTeclas-to-KeyListener" style="stroke:#181818;stroke-width:0.3;stroke-dasharray:7.0,7.0;"/><polygon fill="none" points="350.904,410.64,345.312,413.664,347.799,407.814,350.904,410.64" style="stroke:#181818;stroke-width:0.3;"/></g><!--link Nivel to Jugador--><g id="link_Nivel_Jugador"><path codeLine="121" d="M550.656,123.708 C560.133,141.096 581.526,187.038 562.5,217.95 C549.885,238.446 525.636,250.584 504.663,257.586 " fill="none" id="Nivel-to-Jugador" style="stroke:#181818;stroke-width:0.3;"/><polygon fill="#181818" points="503.16,258.081,506.0996,258.3789,504.5852,257.6131,505.351,256.0987,503.16,258.081" style="stroke:#181818;stroke-width:0.3;"/><text fill="#000000" font-family="sans-serif" font-size="3.9" lengthAdjust="spacing" textLength="12.6" x="570.3" y="191.0306">jugador</text><text fill="#000000" font-family="sans-serif" font-size="3.9" lengthAdjust="spacing" textLength="2.1" x="505.458" y="256.762">1</text></g><!--link Nivel to Fantasma--><g id="link_Nivel_Fantasma"><path codeLine="122" d="M544.383,123.711 C542.025,130.104 537.696,139.395 531,145.05 C528.519,147.144 527.019,146.028 524.1,147.45 C516.333,151.23 508.365,155.751 500.781,160.401 " fill="none" id="Nivel-to-Fantasma" style="stroke:#181818;stroke-width:0.3;"/><polygon fill="#181818" points="499.47,161.211,502.3988,160.8207,500.7482,160.4261,501.1428,158.7755,499.47,161.211" style="stroke:#181818;stroke-width:0.3;"/><text fill="#000000" font-family="sans-serif" font-size="3.9" lengthAdjust="spacing" textLength="18" x="524.4" y="151.2806">fantasmas</text><text fill="#000000" font-family="sans-serif" font-size="3.9" lengthAdjust="spacing" textLength="2.1" x="500.6345" y="158.0261">4</text></g><!--link Nivel to Laberinto--><g id="link_Nivel_Laberinto"><path codeLine="123" d="M554.958,123.633 C564.054,131.679 578.28,145.836 585.6,161.25 C615.417,224.037 605.88,246.186 611.7,315.45 C614.157,344.679 622.848,354.318 611.7,381.45 C608.334,389.64 602.337,397.029 596.055,403.125 " fill="none" id="Nivel-to-Laberinto" style="stroke:#181818;stroke-width:0.3;"/><polygon fill="#181818" points="594.96,404.169,597.7406,403.1699,596.044,403.1322,596.0817,401.4355,594.96,404.169" style="stroke:#181818;stroke-width:0.3;"/><text fill="#000000" font-family="sans-serif" font-size="3.9" lengthAdjust="spacing" textLength="14.7" x="610.2" y="268.1306">laberinto</text><text fill="#000000" font-family="sans-serif" font-size="3.9" lengthAdjust="spacing" textLength="2.1" x="595.6698" y="400.9885">1</text></g><!--link Nivel to Dificultad--><g id="link_Nivel_Dificultad"><path codeLine="124" d="M546.312,123.66 C545.862,134.538 544.98,155.913 544.344,171.318 " fill="none" id="Nivel-to-Dificultad" style="stroke:#181818;stroke-width:0.3;"/><polygon fill="#181818" points="544.278,172.884,545.5925,170.2379,544.3422,171.3854,543.1947,170.1351,544.278,172.884" style="stroke:#181818;stroke-width:0.3;"/></g><!--link PacMan to Nivel--><g id="link_PacMan_Nivel"><path codeLine="125" d="M546.6,72.342 C546.6,81.534 546.6,97.725 546.6,107.628 " fill="none" id="PacMan-to-Nivel" style="stroke:#181818;stroke-width:0.3;"/><polygon fill="#181818" points="546.6,109.158,547.8,106.458,546.6,107.658,545.4,106.458,546.6,109.158" style="stroke:#181818;stroke-width:0.3;"/><text fill="#000000" font-family="sans-serif" font-size="3.9" lengthAdjust="spacing" textLength="11.7" x="546.9" y="89.7806">niveles</text><text fill="#000000" font-family="sans-serif" font-size="3.9" lengthAdjust="spacing" textLength="1.5" x="544.8984" y="105.999">*</text></g><!--link MenuPacMan to InterfazGrafica--><g id="link_MenuPacMan_InterfazGrafica"><path codeLine="128" d="M232.494,76.968 C223.815,83.4 212.841,91.536 203.148,98.718 " fill="none" id="MenuPacMan-to-InterfazGrafica" style="stroke:#181818;stroke-width:0.3;"/><polygon fill="#181818" points="201.852,99.681,204.7346,99.0325,203.0556,98.7858,203.3023,97.1068,201.852,99.681" style="stroke:#181818;stroke-width:0.3;"/><text fill="#000000" font-family="sans-serif" font-size="3.9" lengthAdjust="spacing" textLength="1.5" x="203.2279" y="96.5021">*</text></g><!--link InterfazGraficaDeFantasma to InterfazGrafica--><g id="link_InterfazGraficaDeFantasma_InterfazGrafica"><path codeLine="129" d="M179.7,72.342 C179.7,77.865 179.7,85.914 179.7,93.606 " fill="none" id="InterfazGraficaDeFantasma-to-InterfazGrafica" style="stroke:#181818;stroke-width:0.3;"/><polygon fill="none" points="181.8,93.645,179.7,99.645,177.6,93.645,181.8,93.645" style="stroke:#181818;stroke-width:0.3;"/></g><!--link InterfazGraficaDelMarco to InterfazGrafica--><g id="link_InterfazGraficaDelMarco_InterfazGrafica"><path codeLine="130" d="M294.918,72.342 C275.319,79.785 243.63,91.821 218.439,101.388 " fill="none" id="InterfazGraficaDelMarco-to-InterfazGrafica" style="stroke:#181818;stroke-width:0.3;"/><polygon fill="none" points="219.117,103.377,212.763,103.545,217.626,99.45,219.117,103.377" style="stroke:#181818;stroke-width:0.3;"/></g><!--link InterfazGraficaDeBlinky to InterfazGraficaDeFantasma--><g id="link_InterfazGraficaDeBlinky_InterfazGraficaDeFantasma"><path codeLine="131" d="M152.829,28.887 C157.701,35.4 165.066,45.243 170.853,52.977 " fill="none" id="InterfazGraficaDeBlinky-to-InterfazGraficaDeFantasma" style="stroke:#181818;stroke-width:0.3;"/><polygon fill="none" points="172.56,51.753,174.474,57.816,169.197,54.27,172.56,51.753" style="stroke:#181818;stroke-width:0.3;"/></g><!--link InterfazGraficaDeClyde to InterfazGraficaDeFantasma--><g id="link_InterfazGraficaDeClyde_InterfazGraficaDeFantasma"><path codeLine="132" d="M206.571,28.887 C201.699,35.4 194.334,45.243 188.547,52.977 " fill="none" id="InterfazGraficaDeClyde-to-InterfazGraficaDeFantasma" style="stroke:#181818;stroke-width:0.3;"/><polygon fill="none" points="190.203,54.27,184.926,57.816,186.84,51.753,190.203,54.27" style="stroke:#181818;stroke-width:0.3;"/></g><!--link InterfazGraficaDeInky to InterfazGraficaDeFantasma--><g id="link_InterfazGraficaDeInky_InterfazGraficaDeFantasma"><path codeLine="133" d="M110.286,28.242 C120.78,31.32 132.939,35.451 143.4,40.5 C151.269,44.298 159.405,49.599 165.978,54.279 " fill="none" id="InterfazGraficaDeInky-to-InterfazGraficaDeFantasma" style="stroke:#181818;stroke-width:0.3;"/><polygon fill="none" points="167.271,52.626,170.877,57.861,164.793,56.016,167.271,52.626" style="stroke:#181818;stroke-width:0.3;"/></g><!--link InterfazGraficaDePinky to InterfazGraficaDeFantasma--><g id="link_InterfazGraficaDePinky_InterfazGraficaDeFantasma"><path codeLine="134" d="M248.907,28.434 C238.404,31.473 226.38,35.529 216,40.5 C208.119,44.274 199.983,49.572 193.413,54.258 " fill="none" id="InterfazGraficaDePinky-to-InterfazGraficaDeFantasma" style="stroke:#181818;stroke-width:0.3;"/><polygon fill="none" points="194.598,55.995,188.517,57.846,192.114,52.605,194.598,55.995" style="stroke:#181818;stroke-width:0.3;"/></g><!--link InterfazGraficaDeJugador to InterfazGrafica--><g id="link_InterfazGraficaDeJugador_InterfazGrafica"><path codeLine="135" d="M118.854,72.342 C127.368,78.465 140.202,87.696 151.893,96.102 " fill="none" id="InterfazGraficaDeJugador-to-InterfazGrafica" style="stroke:#181818;stroke-width:0.3;"/><polygon fill="none" points="153.171,94.437,156.819,99.645,150.72,97.845,153.171,94.437" style="stroke:#181818;stroke-width:0.3;"/></g><!--link InterfazGraficaDeLaberinto to InterfazGrafica--><g id="link_InterfazGraficaDeLaberinto_InterfazGrafica"><path codeLine="136" d="M60.006,72.315 C64.905,73.89 70.125,75.522 75,76.95 C90.084,81.372 94.335,80.847 109.2,85.95 C119.691,89.553 130.821,94.002 141.063,98.37 " fill="none" id="InterfazGraficaDeLaberinto-to-InterfazGrafica" style="stroke:#181818;stroke-width:0.3;"/><polygon fill="none" points="141.975,96.474,146.652,100.779,140.31,100.332,141.975,96.474" style="stroke:#181818;stroke-width:0.3;"/></g><!--link InterfazGraficaDeLaberinto to Runnable--><g id="link_InterfazGraficaDeLaberinto_Runnable"><path codeLine="137" d="M59.634,72.333 C77.745,79.95 101.4,94.11 101.4,116.1 C101.4,116.1 101.4,116.1 101.4,348.75 C101.4,387.384 151.443,407.43 180.261,415.77 " fill="none" id="InterfazGraficaDeLaberinto-to-Runnable" style="stroke:#181818;stroke-width:0.3;stroke-dasharray:7.0,7.0;"/><polygon fill="none" points="180.84,413.751,186.063,417.372,179.721,417.798,180.84,413.751" style="stroke:#181818;stroke-width:0.3;"/></g><!--SRC=[dLRDSjis4BxpAJ3EeMfjUTfCJpfuXXBfcgvaiugT_cGo7eXQox11G050TPJ4Jv5RNwEtNlrY1Kc814dGaQCBHUo7nUv-towunia3NW6YV4KIZ3vvIF_mGYg14uKIYgL4CGZ96Ru7Oyv_hz2QIvAGft_P7sY425CkqvyTqv88I0gRDhrHWh2LqngbEYe7vX3fk39CoKSi1jzh-uQJfMKL6NCjWrHumYcHH2V2bhp0B3YdW9a5an1di8GPtu0OrC5SPB31LIpkhJKwb1FETFq4mPOFlmYxSdA4NkO-pKEIC73KxmXjWFA4BF6oB7TF_Zub3B0ZzqSNwQUOAInJtE3SIeSf48GB5ujlm-db90hyuERiMZzQ6ZX4wpoJLKQS1DxrhFE50WPY1lTS16KOd0qIJhEKOQiMjuGsQta5Eg6kew1APPuB8XquSoisTxqCtU6SPPg4GHV-ggC_hP3pRAN943rA_BIZux6aFkR2j27DYMvMg2ImvCsujMWRegV_g28f3fxflI5QPvfmtUDDjlGw_riV3vI2SaGwHC7rt9z4JrykRkBBtyFvJHnEf-5LnuqfMAGWxT9RrvDlI4g0gLAbdI3hvd_wfvMJIpHAkuAuJg17-cRC4VQmDNMpryUqnp2XsoKurYCtV8eNMbOwjGOtALxZibZlthzxRnaIB5POvER16gkx2vn2GzUjL5UWtcBAnIpVO9f0Epr2TOkOqT1inWId2u95iTV_SR-TTbO1A4WK5uNYfPNQuREp_X0zmFPgkuRb84_hLzY66sYDBlkO2wA7dAEeCKvcc3KCmB8K1UIM91bLUYRM8PrgeKwFgjTP64H-_Hf4fr737itYopVHU1gsdHUvMdxz-JmQMvxyiNz-QJaEv-7apB97V_rs7ONpm3UE7prlRUxXjG2fwu3pSUA-ZQDyEjtYZxy8V5jVsURYnGpoEoREdm7GymnMlC788hlN5-VgjGPf1-ixaiZNmVxtwAwBYzlPDOIU3pQ0rhNIR9iMjhVnEiXeJroyhyF-rcu1c-FsMIYTOP7mVP3jIM63Prg13T6RDkRw4m2BCLUSSUcYpY12HJvae3beiwT5ICf04a3pZ36ye60jwHQT4bdGxtdVpO4M6WMfMq89BLoSkmNfDHHyV7nYFYsRUmnwPpDC3uUVJweF3ozsh4NTfPAgvbgbik7m11tyT53TYYDqN_xpwe_Q75DLlBMUxosxVMIDCmjqVApFhQgrEsQtjJKSHve4NInz_KWBgXrK_kp86-ijJyMnDYFbVEnFrxB_V51_t8tGhVahMovg3OuGhQfJO-e1wnav5Zj_E32ZUeHO_jIPEectLU9PcjuvQVM4rpz8Ya9z5MwQRp-mBSVUWxsUeV7INT6t71L_Ku0DpNsr2hK2NeflDiN_]--></g></svg>